<?xml version="1.0" encoding="UTF-8" standalone="no"?>
<!-- Created with Inkscape (http://www.inkscape.org/) -->

<svg
   xmlns:dc="http://purl.org/dc/elements/1.1/"
   xmlns:cc="http://creativecommons.org/ns#"
   xmlns:rdf="http://www.w3.org/1999/02/22-rdf-syntax-ns#"
   xmlns:svg="http://www.w3.org/2000/svg"
   xmlns="http://www.w3.org/2000/svg"
   xmlns:sodipodi="http://sodipodi.sourceforge.net/DTD/sodipodi-0.dtd"
   xmlns:inkscape="http://www.inkscape.org/namespaces/inkscape"
   width="149.10312"
   height="208.03256"
   id="svg3892"
   version="1.1"
   inkscape:version="0.48.3.1 r9886"
   sodipodi:docname="New document 5">
  <defs
     id="defs3894" />
  <sodipodi:namedview
     id="base"
     pagecolor="#ffffff"
     bordercolor="#666666"
     borderopacity="1.0"
     inkscape:pageopacity="0.0"
     inkscape:pageshadow="2"
     inkscape:zoom="0.35"
     inkscape:cx="275.26585"
     inkscape:cy="252.58771"
     inkscape:document-units="px"
     inkscape:current-layer="layer1"
     showgrid="false"
     fit-margin-top="0"
     fit-margin-left="0"
     fit-margin-right="0"
     fit-margin-bottom="0"
     inkscape:window-width="472"
     inkscape:window-height="415"
     inkscape:window-x="773"
     inkscape:window-y="24"
     inkscape:window-maximized="0" />
  <metadata
     id="metadata3897">
    <rdf:RDF>
      <cc:Work
         rdf:about="">
        <dc:format>image/svg+xml</dc:format>
        <dc:type
           rdf:resource="http://purl.org/dc/dcmitype/StillImage" />
        <dc:title></dc:title>
      </cc:Work>
    </rdf:RDF>
  </metadata>
  <g
     inkscape:label="Layer 1"
     inkscape:groupmode="layer"
     id="layer1"
     transform="translate(-99.734152,-576.91733)">
    <path
       inkscape:connector-curvature="0"
       id="path3088"
       style="fill:#000000"
       d="m 175.82194,784.49753 c -0.596,-0.61492 -0.8644,-1.71532 -0.53938,-2.21135 0.30712,-0.46874 0.38556,-3.17452 0.12138,-4.18784 -0.2215,-0.84967 -0.16421,-3.17646 0.11935,-4.84643 0.24418,-1.43798 0.30526,-3.72717 0.35268,-13.21755 0.0439,-8.78812 -0.009,-11.05069 -0.34899,-15.12675 -0.0777,-0.9289 -0.17963,-2.34978 -0.22664,-3.15753 -0.047,-0.80773 -0.18969,-2.22862 -0.3171,-3.15752 -0.285,-2.07798 -0.36511,-3.83738 -0.18468,-4.05593 0.0862,-0.10442 0.0602,-0.22652 -0.0715,-0.33584 -0.2542,-0.21095 -0.14794,-0.69411 0.18106,-0.82331 0.13339,-0.0524 0.47643,-0.11939 0.7623,-0.14889 0.28587,-0.0295 0.68239,-0.11401 0.88117,-0.18781 0.19877,-0.0738 0.89012,-0.14521 1.53631,-0.15866 0.64619,-0.0135 1.44795,-0.0622 1.78169,-0.10832 0.36999,-0.0511 0.64561,-0.021 0.70626,0.0771 0.0547,0.0885 0.20481,0.16093 0.33358,0.16093 0.12877,0 0.64418,0.19375 1.14537,0.43056 0.83716,0.39553 0.91881,0.47616 1.00394,0.99131 0.15012,0.9086 0.10916,3.22447 -0.065,3.67202 -0.21219,0.5454 -0.25613,2.83677 -0.0544,2.83671 0.18866,-8e-5 0.65582,-0.77159 0.65582,-1.08308 0,-0.12646 0.19413,-0.37348 0.4314,-0.54889 0.23727,-0.17542 0.50642,-0.50007 0.59812,-0.72145 0.0917,-0.22138 0.36018,-0.58786 0.59664,-0.81439 0.23645,-0.22654 0.42991,-0.50894 0.42991,-0.62755 0,-0.31002 0.63271,-1.09508 1.36841,-1.69794 0.48845,-0.40025 1.08284,-0.65466 2.58581,-1.10675 1.07335,-0.32288 2.25842,-0.61665 2.6335,-0.65284 0.37506,-0.0362 0.79979,-0.11225 0.94385,-0.16903 0.22307,-0.088 3.24091,0.0777 5.75941,0.31611 0.40387,0.0382 0.96562,0.0567 1.24833,0.0411 1.43127,-0.0791 3.17957,0.1095 3.57381,0.38564 0.17047,0.1194 0.40299,0.21709 0.51673,0.21709 0.11374,0 0.52875,0.23131 0.92227,0.51402 0.3935,0.28271 0.78706,0.51402 0.87456,0.51402 0.23012,0 1.74154,1.64808 1.75088,1.9092 0.004,0.12116 0.10492,0.34857 0.22352,0.50536 0.11859,0.15681 0.21561,0.39572 0.21561,0.53094 0,0.13521 0.12189,0.40346 0.27086,0.59608 0.56579,0.7316 1.56151,4.85742 1.24796,5.17096 -0.0624,0.0624 -0.22909,2.80344 -0.22031,3.62384 0.003,0.20193 0.0428,0.89585 0.0904,1.54204 0.17505,2.37873 0.13726,9.67928 -0.0605,11.6755 -0.10798,1.09045 -0.19255,2.14786 -0.18792,2.34979 0.005,0.20193 -0.0622,0.45247 -0.14843,0.55675 -0.0863,0.10427 -0.31144,0.52318 -0.50034,0.93093 -0.18892,0.40773 -0.4668,0.9172 -0.61756,1.13215 -0.15075,0.21496 -0.31759,0.62959 -0.37074,0.9214 -0.0531,0.29182 -0.22753,0.64901 -0.38751,0.79379 -0.15996,0.14477 -0.29084,0.33871 -0.29084,0.43099 0,0.18052 -1.50795,1.42772 -2.34979,1.94345 -0.28271,0.17321 -0.94358,0.45872 -1.46861,0.63449 -0.52503,0.17576 -1.02069,0.36931 -1.10146,0.43012 -0.38353,0.28867 -2.21546,0.63814 -3.94727,0.75298 -3.14285,0.20843 -7.38357,-0.0538 -8.93817,-0.55276 -0.38275,-0.12283 -0.78562,-0.1889 -0.89527,-0.14683 -0.35305,0.13549 -2.19964,-0.91289 -2.90281,-1.64803 -0.37156,-0.38848 -0.77931,-0.76472 -0.90609,-0.83609 -0.12679,-0.0714 -0.59479,-0.47771 -1.04002,-0.90298 -0.4452,-0.42528 -0.84012,-0.72268 -0.87757,-0.66087 -0.14396,0.23755 -0.3176,4.04873 -0.29952,6.57426 0.0104,1.45392 0.10209,3.40351 0.20375,4.33241 0.14028,1.28167 0.14572,1.98371 0.0226,2.91145 -0.12132,0.9139 -0.11902,1.4099 0.009,1.96478 0.1667,0.72217 0.16043,0.75162 -0.23237,1.08949 -0.54633,0.46993 -1.0169,0.56474 -1.95708,0.39432 -0.74039,-0.1342 -1.38706,-0.0523 -2.25108,0.28506 -0.12116,0.0473 -0.58815,0.12373 -1.03777,0.16982 -0.78378,0.0804 -0.83742,0.0632 -1.30165,-0.41573 z m 17.56717,-17.99013 c 1.18934,-0.21177 3.28109,-0.45618 4.65521,-0.54394 1.3622,-0.087 1.66248,-0.25045 2.47112,-1.34507 0.57197,-0.77425 0.58703,-0.82499 0.54771,-1.84563 -0.0587,-1.52287 -0.034,-2.10115 0.13894,-3.25241 0.0849,-0.56542 0.18905,-1.49065 0.23144,-2.05607 0.0424,-0.56541 0.14533,-1.25933 0.22876,-1.54204 0.27014,-0.91538 0.34846,-3.65911 0.13203,-4.62615 -0.10846,-0.48464 -0.20229,-0.9803 -0.2085,-1.10146 -0.0674,-1.31301 -0.29124,-2.76182 -0.45552,-2.94796 -0.11213,-0.12707 -0.2469,-0.55664 -0.2995,-0.95461 -0.0525,-0.39796 -0.21813,-0.899 -0.3679,-1.1134 -0.14977,-0.2144 -0.27229,-0.45892 -0.27229,-0.54336 0,-0.0845 -0.19827,-0.44732 -0.44059,-0.80637 -0.24232,-0.35905 -0.44058,-0.71432 -0.44058,-0.7895 0,-0.0752 -0.15874,-0.28581 -0.35277,-0.46808 -0.19401,-0.18227 -0.4251,-0.61871 -0.51351,-0.96986 -0.18421,-0.73154 -0.68544,-1.16622 -1.5268,-1.32406 -0.30107,-0.0565 -0.58362,-0.16129 -0.62788,-0.23291 -0.0442,-0.0716 -0.22858,-0.1302 -0.40959,-0.1302 -0.18102,0 -0.3919,-0.0576 -0.46863,-0.128 -0.60566,-0.55557 -3.15471,-0.71564 -5.13281,-0.3223 -1.06879,0.21253 -1.39365,0.35886 -2.38024,1.07222 -0.42061,0.30414 -0.83597,0.55297 -0.92299,0.55297 -0.36096,0 -3.59725,2.93936 -4.04174,3.67089 -0.13259,0.2182 -0.37947,1.48829 -0.37126,1.90985 0.003,0.12117 0.0611,0.78204 0.13052,1.46861 0.13146,1.29991 0.12593,2.22075 -0.0384,6.38849 -0.15961,4.04693 -0.21412,7.45972 -0.12625,7.90643 0.0451,0.22908 0.18819,0.45513 0.31806,0.50232 0.12987,0.0472 0.76033,0.51988 1.40103,1.05039 1.7878,1.48029 2.56588,1.85758 4.12212,1.99882 0.64619,0.0586 1.29315,0.16834 1.43772,0.24378 0.32131,0.16772 2.31335,0.53875 2.55509,0.47593 0.0959,-0.025 0.55856,-0.11373 1.02803,-0.19732 z m 51.33729,7.62933 c -0.33427,-0.20524 -0.4773,-0.40373 -0.4773,-0.66237 0,-0.30657 -0.0698,-0.36931 -0.41121,-0.36931 -0.22616,0 -0.47399,-0.0625 -0.55073,-0.139 -0.0767,-0.0764 -0.60214,-0.17256 -1.16756,-0.2136 -1.25766,-0.0913 -1.55126,-0.35223 -1.46621,-1.30331 0.0305,-0.34124 0.0966,-1.08306 0.14678,-1.64847 0.0503,-0.56542 0.11437,-1.755 0.14255,-2.64351 0.0282,-0.88852 0.12467,-2.24332 0.21443,-3.01067 0.0898,-0.76735 0.1491,-2.28737 0.13186,-3.37782 -0.0172,-1.09045 -0.0369,-4.82441 -0.0436,-8.29768 -0.0118,-6.0088 -0.11253,-8.60016 -0.35999,-9.25229 -0.42034,-1.10768 -1.19724,-2.38499 -1.82879,-3.00668 -0.65103,-0.64088 -0.82898,-0.73513 -1.55309,-0.8226 -0.44978,-0.0543 -0.88387,-0.14715 -0.96464,-0.20627 -0.35959,-0.26317 -2.94671,-0.48216 -4.73525,-0.40081 -3.07654,0.13993 -4.9018,0.68438 -6.23826,1.86078 -0.36022,0.31707 -0.93243,0.68753 -1.27156,0.82323 -0.94198,0.37691 -1.0741,0.76346 -1.20127,3.5147 -0.0597,1.29238 -0.14483,2.44891 -0.1891,2.57007 -0.0443,0.12116 -0.11097,2.24896 -0.14824,4.72845 -0.0372,2.4795 -0.11784,4.58923 -0.17906,4.68832 -0.29064,0.47024 -0.5754,8.89859 -0.35067,10.37841 0.0824,0.54216 0.22216,1.63229 0.31069,2.42253 0.14192,1.26655 0.13272,1.46801 -0.0777,1.70046 -0.13125,0.14504 -0.23864,0.39249 -0.23864,0.54989 0,0.15741 -0.10447,0.43537 -0.23219,0.61769 -0.18381,0.26244 -0.3597,0.32664 -0.84444,0.30821 -0.47681,-0.0181 -3.25477,0.13915 -3.62293,0.2051 -0.33771,0.0605 -1.60281,-0.27623 -1.89182,-0.50355 -0.24767,-0.19484 -0.40898,-0.23676 -0.5125,-0.13324 -0.17876,0.17876 -0.96766,0.1969 -1.2332,0.0284 -0.10244,-0.065 -0.25011,-0.34085 -0.32813,-0.61291 -0.10977,-0.38275 -0.0925,-0.54918 0.0762,-0.73555 0.11989,-0.13247 0.21798,-0.43942 0.21798,-0.68213 0,-0.24269 0.0496,-0.49082 0.11014,-0.5514 0.0606,-0.0606 0.11817,-0.28638 0.12796,-0.50178 0.01,-0.2154 0.0583,-1.31686 0.1076,-2.4477 0.0494,-1.13082 0.12784,-2.48562 0.17436,-3.01066 0.10867,-1.2265 0.20403,-3.25752 0.29997,-6.38848 0.0948,-3.09365 0.0833,-3.73654 -0.0864,-4.84643 -0.0741,-0.48465 -0.10128,-1.33168 -0.0604,-1.8823 0.0409,-0.55063 0.0992,-2.50022 0.1297,-4.33242 0.0305,-1.83222 0.132,-4.02521 0.22563,-4.87334 0.0936,-0.84813 0.17406,-1.67422 0.17873,-1.83577 0.0239,-0.82512 -0.18928,-4.20186 -0.30359,-4.80885 -0.12738,-0.67637 -0.11261,-1.88688 0.0488,-4.00284 0.0431,-0.56542 0.10408,-1.39152 0.13543,-1.83578 0.0497,-0.70441 -0.0595,-1.96702 -0.29861,-3.45125 -0.039,-0.24232 -0.10653,-0.9032 -0.15,-1.46862 -0.0434,-0.56541 -0.12991,-1.09411 -0.19211,-1.17489 -0.2478,-0.32185 -0.28023,-0.92626 -0.0846,-1.57644 0.59165,-1.96586 1.46327,-2.51198 2.5235,-1.58108 0.27598,0.24232 0.64283,0.44058 0.81524,0.44058 0.30062,0 1.71398,0.71547 2.17298,1.1 0.12116,0.10151 0.4516,0.22748 0.7343,0.27996 0.28271,0.0525 0.84203,0.27562 1.2429,0.49589 0.66217,0.36385 0.76015,0.48787 1.0705,1.35511 0.32082,0.89649 0.34266,1.17814 0.35865,4.62614 0.009,2.01935 -0.0299,4.26633 -0.0873,4.99329 -0.0573,0.72697 -0.0585,2.20052 -0.003,3.27457 0.0875,1.68053 0.13455,1.94645 0.3374,1.90739 0.12963,-0.025 0.31701,-0.21504 0.4164,-0.42237 0.28438,-0.59337 3.42653,-3.52488 4.10151,-3.82659 0.33462,-0.14956 0.64394,-0.36452 0.68735,-0.47768 0.0434,-0.11315 0.35983,-0.2532 0.70312,-0.3112 0.56828,-0.096 1.4053,-0.47242 1.84608,-0.8302 0.0954,-0.0774 0.558,-0.17567 1.02803,-0.21829 0.47003,-0.0426 1.08112,-0.17918 1.35798,-0.30343 0.43103,-0.19344 1.92933,-0.28163 3.2416,-0.19082 0.12115,0.009 0.4068,-0.029 0.63474,-0.0832 0.24322,-0.0577 0.55842,-0.0215 0.76285,0.088 0.20403,0.1092 0.59061,0.15394 0.93308,0.10802 0.32806,-0.044 0.73456,-0.002 0.92608,0.0978 0.18775,0.0969 0.93614,0.26152 1.66311,0.36579 0.72696,0.10426 1.45393,0.24781 1.61548,0.319 0.16155,0.0712 0.39285,0.1195 0.51401,0.10737 0.67225,-0.0673 1.28444,0.27723 2.29594,1.29201 1.47205,1.47685 1.50024,1.54328 1.73878,4.09724 0.0301,0.32309 0.15546,1.51267 0.27843,2.6435 0.31838,2.92808 0.35977,3.59727 0.22747,3.67901 -0.20538,0.12695 0.0555,8.0416 0.30481,9.24482 0.0669,0.3231 0.078,1.83895 0.0246,3.36855 -0.0534,1.52963 -0.0477,3.74357 0.0126,4.91986 0.0603,1.17633 0.12257,4.0733 0.13835,6.43772 0.0255,3.81514 0.002,4.32608 -0.21243,4.54009 -0.20451,0.20453 -0.27745,0.211 -0.48026,0.0427 -0.20788,-0.17252 -0.28702,-0.13728 -0.60547,0.26963 -0.20148,0.25744 -0.47901,0.46808 -0.61673,0.46808 -0.13772,0 -0.38076,0.0907 -0.54009,0.20153 -0.54051,0.37602 -1.13544,0.41061 -1.64815,0.0958 z m -129.93585,-0.91985 c -1.11657,-0.17173 -3.18885,-0.22964 -3.97077,-0.11097 -0.33008,0.0501 -1.25758,0.0514 -2.0611,0.003 -1.34299,-0.081 -1.52604,-0.12952 -2.26725,-0.60097 -1.11038,-0.70625 -1.69902,-1.01829 -1.92095,-1.01829 -0.10349,0 -0.33317,-0.13621 -0.51037,-0.30268 -0.17721,-0.16649 -0.54023,-0.41963 -0.80673,-0.56256 -0.36176,-0.19402 -0.57473,-0.48012 -0.84056,-1.1292 -0.19581,-0.47816 -0.50917,-1.19981 -0.69633,-1.60368 -0.30142,-0.65037 -0.35175,-1.04484 -0.4403,-3.45125 -0.055,-1.49431 -0.15261,-2.78303 -0.21693,-2.8638 -0.0643,-0.0807 -0.1516,-0.47729 -0.19395,-0.88117 -0.0423,-0.40387 -0.14994,-1.13083 -0.23909,-1.61547 -0.926377,-5.03698 -0.971897,-5.61836 -0.833807,-10.64747 0.1159,-4.22102 0.434107,-6.33516 1.105207,-7.34308 0.13445,-0.20194 0.35944,-0.59847 0.49998,-0.88118 0.14054,-0.28271 0.41939,-0.73879 0.61965,-1.01349 0.20025,-0.27472 0.42863,-0.73733 0.50748,-1.02803 0.0789,-0.29071 0.31001,-0.77287 0.51371,-1.07149 0.20368,-0.29863 0.37033,-0.6413 0.37033,-0.76152 0,-0.12022 0.40483,-0.60286 0.89962,-1.07254 0.49478,-0.46968 1.07244,-1.04129 1.28368,-1.27027 0.57613,-0.62448 1.40203,-0.93218 3.03029,-1.12896 1.96651,-0.23766 5.69885,-0.26442 5.96592,-0.0428 0.11173,0.0927 1.02906,0.24438 2.03848,0.33697 1.00945,0.0926 2.69447,0.26018 3.74454,0.37239 1.86638,0.19948 2.4573,0.16734 3.68709,-0.20054 0.72457,-0.21675 1.26059,-0.0753 3.0439,0.8031 0.3903,0.19226 0.84171,0.34956 1.00309,0.34956 0.79536,0 3.64769,1.87278 3.64769,2.39501 0,0.0714 0.12473,0.30514 0.27719,0.51955 0.15864,0.22311 0.38074,0.99838 0.5193,1.81276 0.22322,1.31187 0.22369,1.501 0.006,2.42321 -0.12986,0.55016 -0.28632,1.67897 -0.3477,2.50847 -0.10241,1.38426 -0.14604,1.54414 -0.53097,1.94592 -0.23065,0.24075 -0.53109,0.43774 -0.66764,0.43774 -0.13654,0 -0.33577,0.10544 -0.44273,0.23432 -0.14478,0.17444 -0.33936,0.21115 -0.76135,0.14368 -0.31178,-0.0498 -1.30436,-0.017 -2.20572,0.0732 l -1.63886,0.16384 -0.34165,-0.39717 c -0.18789,-0.21846 -0.37983,-0.58814 -0.4265,-0.82153 -0.0467,-0.23339 -0.1427,-0.42436 -0.21337,-0.42436 -0.17215,0 -0.16489,-0.54763 0.009,-0.6549 0.15653,-0.0968 0.0366,-1.10964 -0.15632,-1.32039 -0.0703,-0.0768 -0.12775,-0.31687 -0.12775,-0.53363 0,-0.52147 -0.86925,-1.30477 -1.83576,-1.65422 -0.71252,-0.25765 -0.86172,-0.31491 -1.73253,-0.66501 -0.22594,-0.0908 -0.89944,-0.16515 -1.49667,-0.16515 -0.59724,0 -1.12272,-0.0596 -1.16776,-0.13247 -0.10878,-0.176 -4.04982,-0.18638 -5.07562,-0.0134 -1.5428,0.26022 -1.83734,0.3341 -2.12546,0.53316 -0.15933,0.11007 -0.45863,0.20013 -0.66512,0.20013 -0.26633,0 -0.63775,0.26673 -1.27814,0.91787 -0.99939,1.0162 -1.22126,1.55883 -1.50506,3.68086 -0.0844,0.63113 -0.21818,1.26844 -0.2973,1.41626 -0.26837,0.50146 -0.42873,2.86075 -0.36478,5.36678 0.0725,2.8395 0.28476,4.62637 0.95667,8.05188 0.0765,0.38983 0.14079,0.88549 0.14295,1.10146 0.003,0.22805 0.26394,0.74073 0.62416,1.22291 0.34113,0.45663 0.80034,1.134 1.02046,1.50527 0.54798,0.92426 1.09592,1.22242 2.44845,1.3323 0.61413,0.0499 1.21573,0.14243 1.33689,0.20562 0.1928,0.10057 1.42984,0.10531 1.83657,0.007 0.0803,-0.0194 0.25374,0.0122 0.38536,0.0704 0.22386,0.0988 3.07974,0.0421 4.25335,-0.0846 0.29007,-0.0314 0.68659,-0.1596 0.88117,-0.2851 0.19459,-0.12551 0.67648,-0.32173 1.07085,-0.43607 0.50646,-0.14681 0.8664,-0.38039 1.22552,-0.79531 0.67568,-0.78063 1.34683,-2.21813 1.425,-3.05214 0.12196,-1.30084 0.71772,-1.86535 1.97597,-1.87226 0.7986,-0.004 2.63528,-0.20229 3.40392,-0.36676 0.26803,-0.0573 0.48318,0.0185 0.7475,0.26343 0.67886,0.62914 0.66686,2.80773 -0.0378,6.8635 -0.0912,0.52503 -0.20258,1.05374 -0.24746,1.17489 -0.0719,0.19395 -0.29741,1.07017 -0.56709,2.20293 -0.048,0.20193 -0.26475,0.56542 -0.48151,0.80773 -0.21675,0.24233 -0.67791,0.81887 -1.02481,1.28119 -0.51465,0.68587 -0.72935,0.85644 -1.16658,0.92669 -0.29472,0.0474 -0.70107,0.17433 -0.90301,0.28214 -0.58728,0.31358 -2.33016,0.5224 -3.30438,0.39592 -0.84422,-0.1096 -2.62312,-0.10339 -5.9479,0.0208 -0.84813,0.0317 -1.93858,-0.003 -2.42322,-0.0779 z m 34.2922,-0.57232 c -0.44426,-0.0583 -1.36949,-0.17484 -2.05607,-0.25882 -1.66414,-0.20352 -2.31549,-0.37498 -2.80808,-0.73915 -0.22603,-0.16713 -0.50912,-0.30386 -0.62908,-0.30386 -0.20782,0 -1.60179,-0.63757 -3.02475,-1.38346 -0.69,-0.36168 -0.86395,-0.52068 -2.02153,-1.8475 -0.90667,-1.03923 -1.43496,-2.14937 -1.80125,-3.78506 -0.22216,-0.99219 -0.28012,-1.61064 -0.35661,-3.8055 -0.0343,-0.98424 -0.1005,-2.20687 -0.14714,-2.71694 -0.20507,-2.24292 -0.21819,-3.14428 -0.0632,-4.34572 0.0909,-0.7047 0.16124,-1.41344 0.15631,-1.57499 -0.0237,-0.77653 -0.15248,-2.60366 -0.24964,-3.54203 -0.0727,-0.70204 -0.046,-1.30475 0.0812,-1.835 0.10418,-0.43428 0.18504,-1.31865 0.17968,-1.96527 -0.006,-0.72989 0.0687,-1.33736 0.19703,-1.6021 0.11371,-0.23454 0.20675,-0.48072 0.20675,-0.54706 0,-0.0664 0.18963,-0.53533 0.4214,-1.04219 0.62238,-1.36113 1.01182,-2.33947 1.10975,-2.78794 0.16183,-0.74104 2.1152,-2.83721 3.12488,-3.35334 0.22589,-0.11547 0.57592,-0.32233 0.77786,-0.45972 0.63948,-0.43507 2.74268,-0.84844 4.47927,-0.88038 0.56542,-0.0104 1.13994,-0.0755 1.27672,-0.14479 0.13679,-0.0692 0.76462,-0.15581 1.39518,-0.19241 0.63058,-0.0366 1.57279,-0.13895 2.09379,-0.22751 0.52101,-0.0885 1.18189,-0.1225 1.46862,-0.0754 0.28673,0.047 1.94222,0.11079 3.67886,0.14163 3.08878,0.0549 5.78971,0.18475 6.40083,0.30785 0.16834,0.0339 0.55176,0.25689 0.85207,0.49554 0.30029,0.23865 0.75138,0.47902 1.00239,0.53415 0.25104,0.0551 0.80617,0.32399 1.23366,0.59745 0.4275,0.27346 0.83405,0.4972 0.90349,0.4972 0.0694,0 0.4793,0.42681 0.91083,0.94846 0.61393,0.74216 0.89365,1.26124 1.28596,2.3865 0.27575,0.79093 0.53402,1.66935 0.57395,1.95206 0.0669,0.47358 0.20843,0.89609 0.49392,1.47427 0.0614,0.12426 0.15854,0.50391 0.21595,0.84367 0.0574,0.33977 0.1647,0.65503 0.23844,0.70062 0.0738,0.0456 0.13409,0.46228 0.13409,0.92599 0,0.46373 0.0663,0.90936 0.14716,0.99031 0.0854,0.0853 0.17766,1.57224 0.21977,3.53985 0.04,1.86597 0.13132,3.54778 0.20308,3.73732 0.0918,0.2426 0.0629,0.46082 -0.0978,0.737 -0.38698,0.66523 -0.73018,0.76026 -2.10792,0.58361 -0.67546,-0.0866 -1.92203,-0.19419 -2.77016,-0.23907 -0.84813,-0.0449 -1.78183,-0.11784 -2.07488,-0.16213 -1.50388,-0.22728 -9.86993,-0.38923 -11.0406,-0.2137 -1.50602,0.2258 -2.26443,0.31453 -3.18617,0.37279 -1.76552,0.11161 -4.334,0.55678 -4.56854,0.79184 -0.59205,0.59335 -0.73332,1.41316 -0.70864,4.11201 0.0262,2.86327 0.0437,2.93177 1.0268,4.03023 0.60005,0.67043 0.84445,0.84671 1.9006,1.37095 0.75189,0.37321 4.91747,0.45904 6.87328,0.14163 0.78342,-0.12715 2.2505,-0.26627 3.26017,-0.30918 1.00968,-0.0429 2.25699,-0.15761 2.7718,-0.2549 1.1082,-0.20947 1.08626,-0.18379 2.43083,-2.84657 0.20777,-0.41146 0.51001,-0.86778 0.67166,-1.01407 0.16164,-0.14629 0.2939,-0.38559 0.2939,-0.53178 0,-0.64508 1.25379,-0.71662 2.51984,-0.14378 0.91948,0.41604 2.08598,0.74806 2.64791,0.75371 0.28512,0.003 0.72917,0.17268 1.07299,0.41035 0.68912,0.47639 0.79931,0.93281 0.75925,3.14478 -0.0217,1.19785 -0.0798,1.47356 -0.48783,2.31445 -0.25557,0.52667 -1.003,1.58002 -1.66736,2.34979 -0.9475,1.09785 -1.47403,1.5607 -2.47063,2.17185 -0.69657,0.42716 -1.43311,0.81268 -1.63676,0.85672 -0.20364,0.044 -0.46938,0.1193 -0.59055,0.16728 -0.12116,0.048 -0.45159,0.0988 -0.7343,0.11297 -0.28271,0.0142 -1.07577,0.0798 -1.76235,0.14589 -0.68657,0.0661 -1.6118,0.1335 -2.05605,0.14986 -0.44427,0.0164 -1.63384,0.10915 -2.64352,0.20622 -2.16072,0.20777 -6.7773,0.28608 -7.93053,0.13454 z m 4.18555,-24.28227 c 1.45394,-0.045 2.74265,-0.0884 2.86381,-0.0965 0.12116,-0.008 0.4516,0 0.73431,0.0163 0.66668,0.0402 3.65653,-0.26379 3.86576,-0.39311 0.0885,-0.0547 0.52715,-0.11141 0.97469,-0.12599 1.10218,-0.0359 1.27714,-0.13429 1.64534,-0.92523 0.26855,-0.57688 0.31523,-0.93054 0.30315,-2.29733 -0.0142,-1.61378 -0.2292,-3.10705 -0.48518,-3.37047 -0.0745,-0.0767 -0.13557,-0.24587 -0.13557,-0.37586 0,-0.30169 -1.45143,-1.56055 -2.12261,-1.84099 -0.28132,-0.11754 -0.70796,-0.2137 -0.94811,-0.2137 -0.24015,0 -0.47346,-0.0596 -0.51851,-0.1325 -0.13779,-0.22293 -3.37714,-0.26105 -6.76452,-0.0795 -2.1382,0.11455 -2.74842,0.21645 -3.14062,0.52447 -0.19263,0.15129 -0.45031,0.27506 -0.5726,0.27506 -0.1223,0 -0.44702,0.23131 -0.72158,0.51402 -0.27457,0.28271 -0.60853,0.51401 -0.74215,0.51401 -0.28807,0 -1.21153,0.85758 -1.21153,1.12512 0,0.10245 -0.12312,0.25219 -0.27359,0.33272 -0.15046,0.0805 -0.35648,0.36374 -0.4578,0.62934 -0.10132,0.26559 -0.27887,0.69804 -0.39455,0.96098 -0.54567,1.24028 -0.81099,2.5643 -0.84478,4.21573 -0.009,0.44849 0.0577,0.6166 0.2923,0.7343 0.31455,0.15783 3.73291,0.16146 8.65434,0.009 z m 2.21485,-45.58466 c -3.63724,-3.00559 -10.47755,-4.77127 -12.35592,-8.60888 5.67536,-4.36098 7.8263,-11.36572 6.43955,-18.30804 -0.64418,-6.93985 -6.27216,-11.79613 -9.24058,-17.73763 -5.2809,-6.90714 -7.78342,-16.27289 -6.26134,-24.94712 1.8302,-7.80533 5.77917,-15.00778 11.04251,-21.05576 4.36757,-4.17533 9.20951,-7.57322 15.28377,-8.43223 9.48738,-2.8933 20.10653,-2.20661 28.98437,2.28027 5.74517,1.77464 10.51079,5.99239 14.72777,10.18638 4.63207,3.89409 6.50857,9.68747 7.16866,15.5221 2.02887,7.14793 -0.32325,14.41626 -1.29927,21.50374 -3.36561,7.36477 -7.7289,14.23071 -12.27868,20.86632 -2.93193,7.02606 -0.16254,15.63736 5.71115,20.23763 -0.90494,4.08504 -8.04976,4.01898 -11.29564,6.78423 -4.65581,-1.74239 -8.06332,-5.93286 -10.35,-10.2661 -3.3015,-6.62876 -2.35158,-14.5048 -0.81419,-21.50559 2.18202,-5.4681 6.43018,-9.71819 9.75324,-14.4869 1.90128,-5.09683 6.30393,-9.49612 5.37501,-15.36056 -0.54447,-8.43262 -6.43552,-16.08257 -14.427,-18.79875 -4.83762,-3.22318 -11.82524,-4.38338 -17.08133,-1.58501 -5.40045,1.91931 -9.00633,6.68953 -10.94269,11.95639 -3.29535,5.68952 -4.26783,13.55308 -1.09293,19.45339 4.42186,6.67285 9.68989,13.04664 12.50502,20.58423 2.08785,6.62002 1.74792,14.03073 -1.26014,20.31674 -1.89281,3.83955 -4.85593,9.56748 -8.29134,11.40115 z m 0.0321,-2.57733 c 7.26591,-6.68598 10.73345,-17.39929 8.25358,-27.03459 -2.23025,-7.57865 -7.53051,-13.72431 -11.67164,-20.30845 -4.7231,-4.96844 -3.30662,-12.56757 -2.06379,-18.62846 2.63642,-5.10054 4.26417,-11.34743 9.54253,-14.45576 4.64321,-3.83945 11.03934,-4.80933 16.82958,-3.40754 6.44695,2.07613 13.19584,5.38552 17.10599,11.21669 4.76458,6.31928 6.03722,15.82389 1.3921,22.55207 -2.85781,8.28702 -11.19087,13.60759 -12.86195,22.42273 -2.09805,8.61668 -0.35626,19.30387 7.33705,24.66887 2.56842,3.20762 11.24031,-1.00197 10.67907,-3.30025 -4.74856,-5.27538 -6.56045,-13.1444 -4.41595,-19.9241 4.44155,-7.00843 9.55595,-13.73143 12.50808,-21.53653 1.39037,-7.34059 3.14038,-14.91196 0.95858,-22.30752 -0.20986,-5.9658 -3.95805,-10.62658 -8.04332,-14.57214 -4.58581,-4.33699 -10.14725,-7.23711 -15.90726,-9.58652 -8.17984,-2.93839 -17.56332,-3.23044 -25.73994,0.0324 -5.5579,1.6264 -9.98267,4.77941 -14.34678,8.52568 -3.4047,5.29476 -7.00017,10.74385 -8.71355,16.9455 -2.32613,9.32624 0.59514,19.52395 6.32203,27.17692 3.57474,5.73663 8.97059,10.98005 9.19051,18.18606 0.44235,5.44266 0.0124,11.76074 -4.38077,15.68614 -5.2717,3.11128 6.53396,6.13817 8.02585,7.64885 z m -20.09063,-53.68998 c -0.17746,-0.53696 -0.36214,0.52319 0,0 z m 77.96613,43.06719 c -4.94286,-1.68646 -8.26437,-7.81947 -6.83791,-13.19463 1.79621,-4.77617 4.99546,-8.81661 7.81126,-13.00525 5.68065,-8.99111 6.08466,-20.04623 5.82471,-30.37693 -0.85514,-8.83665 -5.46594,-16.75142 -11.44636,-23.14122 -3.70167,-4.1968 -7.88962,-7.92065 -12.72318,-10.69746 -5.02293,-3.08678 -10.52888,-5.25935 -16.61246,-4.675 -8.28769,0.0195 -16.70688,0.88271 -24.64044,3.05569 -5.14994,2.35233 -9.92626,5.65526 -13.85003,9.75556 -4.41216,4.29441 -8.73005,8.84231 -11.0406,14.64134 -3.29248,5.55259 -3.00287,12.1769 -3.14918,18.33016 0.71411,11.36168 6.23931,21.65486 12.63416,30.7983 3.64109,5.39655 3.16576,13.64326 -3.1034,16.84538 -5.25607,2.0191 -7.89485,-6.3077 -11.47707,-9.16698 -4.22575,-6.11851 -8.75398,-12.32747 -10.73436,-19.61407 -1.91871,-5.49349 -2.59756,-11.65757 -3.08672,-17.54193 -0.69793,-9.70304 0.77777,-19.58534 5.37281,-28.23304 2.45552,-5.94154 5.94489,-11.46415 10.86776,-15.67105 4.47806,-3.47658 8.54317,-7.48658 13.12058,-10.87862 4.16386,-3.0273 8.6398,-5.72173 13.71773,-6.84713 7.1545,-3.27184 15.19994,-2.4076 22.84135,-2.85555 6.18731,-0.92672 11.86058,1.77243 17.58298,3.82424 6.21105,2.86177 12.80211,4.83971 18.41087,8.92358 5.14602,4.0836 10.7212,8.21081 14.41852,13.75602 3.29687,4.56895 5.66293,9.81677 7.7334,15.06352 3.07092,6.75176 2.51695,14.36977 2.74128,21.59621 -0.76639,5.75352 0.41364,11.70895 -1.20267,17.43305 -1.47493,9.19357 -6.58411,17.29449 -12.55855,24.23769 -3.2816,2.8266 -6.63709,6.35964 -10.61448,7.63812 z m 1.65197,-2.85856 c 8.43051,-4.85233 14.04363,-13.47359 17.96642,-22.15368 2.31934,-6.69368 3.30961,-13.80405 2.4022,-20.82786 0.82965,-6.5074 0.53395,-13.20188 -0.42937,-19.65183 -1.55218,-5.52387 -4.12996,-10.56752 -6.59397,-15.68586 -2.88206,-4.85374 -6.50268,-9.23588 -11.0866,-12.63556 -5.52955,-5.55564 -12.64187,-9.18389 -20.05362,-11.52228 -5.25643,-2.5237 -11.06957,-3.91196 -16.71067,-5.32848 -7.94841,0.14255 -16.18704,-0.80473 -23.86531,1.65516 -5.24717,1.89925 -10.77116,3.66636 -15.08262,7.4378 -5.95981,4.08879 -10.60354,9.78989 -16.1365,14.41769 -4.8419,3.96066 -6.78989,10.12293 -9.39548,15.61028 -4.70207,11.04161 -3.88928,23.56154 -1.77846,35.1221 1.63124,9.59291 7.21679,17.85136 12.82023,25.53691 2.95411,3.80459 8.15876,11.80973 11.85028,3.97051 2.31132,-6.25918 -2.23572,-12.30242 -5.43388,-17.35616 -5.96601,-9.95256 -9.84796,-21.65683 -8.23197,-33.3898 0.10627,-6.19201 3.05332,-11.63746 6.23263,-16.75731 3.32522,-5.14045 8.21103,-9.04317 12.43443,-13.38274 4.83815,-5.10781 11.39578,-7.50466 18.33573,-7.75433 9.00574,-1.24484 18.32512,-2.38185 27.25687,-0.17278 6.20759,3.70107 13.61078,5.9538 17.97612,12.07315 8.10893,7.78641 14.63886,18.16533 14.55674,29.7604 0.003,7.78617 -0.72696,15.79753 -3.38883,23.1373 -2.33802,5.55834 -6.28605,10.05339 -9.18872,15.28786 -2.94225,4.26081 -0.54579,14.35608 5.5443,12.60862 l 5e-5,8.9e-4 z m -33.06296,-92.6937 c -0.46208,-1.29022 -0.80249,0.75442 0,0 z m -9.546,60.40933 c -5.50393,-0.78813 -11.2086,-4.05666 -12.21222,-9.97159 -0.63494,-5.30698 1.60601,-11.58273 6.54483,-14.08926 5.2905,-3.50771 12.41975,-1.17099 16.61472,2.83821 4.14378,4.87477 3.29803,12.68582 -0.51717,17.53061 -2.5954,3.20038 -6.39496,4.33282 -10.43016,3.69203 z m 4.1555,-1.9319 c 8.55532,-2.06284 10.50076,-15.99898 2.84304,-20.23794 -4.49286,-2.68559 -10.26447,-2.71704 -14.17452,1.19642 -2.53935,4.08326 -4.85168,9.72588 -1.71765,14.23451 2.80746,3.8549 8.43126,5.52912 13.04913,4.80701 z" />
  </g>
</svg>
