<?xml version="1.0" encoding="UTF-8" standalone="no"?>
<!-- Created with Inkscape (http://www.inkscape.org/) -->

<svg
   xmlns:dc="http://purl.org/dc/elements/1.1/"
   xmlns:cc="http://creativecommons.org/ns#"
   xmlns:rdf="http://www.w3.org/1999/02/22-rdf-syntax-ns#"
   xmlns:svg="http://www.w3.org/2000/svg"
   xmlns="http://www.w3.org/2000/svg"
   xmlns:sodipodi="http://sodipodi.sourceforge.net/DTD/sodipodi-0.dtd"
   xmlns:inkscape="http://www.inkscape.org/namespaces/inkscape"
   width="539.97076"
   height="406.89316"
   id="svg4503"
   version="1.1"
   inkscape:version="0.48.2 r9819"
   sodipodi:docname="New document 7">
  <defs
     id="defs4505" />
  <sodipodi:namedview
     id="base"
     pagecolor="#ffffff"
     bordercolor="#666666"
     borderopacity="1.0"
     inkscape:pageopacity="0.0"
     inkscape:pageshadow="2"
     inkscape:zoom="0.35"
     inkscape:cx="269.98065"
     inkscape:cy="203.45111"
     inkscape:document-units="px"
     inkscape:current-layer="layer1"
     showgrid="false"
     fit-margin-top="0"
     fit-margin-left="0"
     fit-margin-right="0"
     fit-margin-bottom="0"
     inkscape:window-width="918"
     inkscape:window-height="825"
     inkscape:window-x="750"
     inkscape:window-y="202"
     inkscape:window-maximized="0" />
  <metadata
     id="metadata4508">
    <rdf:RDF>
      <cc:Work
         rdf:about="">
        <dc:format>image/svg+xml</dc:format>
        <dc:type
           rdf:resource="http://purl.org/dc/dcmitype/StillImage" />
        <dc:title></dc:title>
      </cc:Work>
    </rdf:RDF>
  </metadata>
  <g
     inkscape:label="Layer 1"
     inkscape:groupmode="layer"
     id="layer1"
     transform="translate(-105.01935,-328.92013)">
    <g
       transform="translate(730.60701,589.33696)"
       id="g4444">
      <path
         sodipodi:nodetypes="ccscscscsccccccsscccccsscccscccccsccccccsscccccccscsccscsccccsssccscccscccssccsssccccscsscccccccccccccccsscscscscscccccsccccscccccscscsccccccccccscccccccccccccccsssccc"
         inkscape:connector-curvature="0"
         d="m -451.01396,-252.94159 c -0.47222,-0.13195 -0.52372,-0.34767 -0.16132,-0.67566 0.16352,-0.14798 0.2973,-0.34557 0.2973,-0.4391 0,-0.0935 0.18174,-0.33245 0.40387,-0.53094 1.32249,-1.1817 2.28581,-1.42783 4.31491,-1.10245 0.75679,0.12135 1.75671,0.25553 2.22205,0.29816 0.9286,0.0851 1.42975,0.34012 1.7147,0.87254 0.23053,0.43073 -0.0129,1.01061 -0.36714,0.87466 -0.12901,-0.0495 -0.31049,0.0304 -0.42508,0.18711 -0.1898,0.25956 -0.21425,0.26056 -0.4804,0.0197 -0.36958,-0.33445 -2.60339,-0.7297 -4.02268,-0.71177 -1.1757,0.0148 -2.08787,0.3672 -2.69904,1.04254 -0.14638,0.16174 -0.30545,0.28747 -0.35352,0.27942 -0.048,-0.008 -0.24769,-0.0594 -0.44365,-0.11421 z m 20.36617,2.45153 c -0.46445,-0.31263 -0.84445,-0.63268 -0.84445,-0.71124 0,-0.0785 -0.0731,-0.14283 -0.16245,-0.14283 -0.0893,0 -0.28042,-0.14998 -0.42462,-0.33331 -0.23544,-0.29929 -0.98823,-0.54153 -2.26099,-0.72753 -0.47341,-0.0692 -0.63259,-0.49132 -0.31682,-0.84022 0.22386,-0.24736 0.41088,-0.29301 1.02184,-0.24945 0.41132,0.0293 0.88003,0.10272 1.04157,0.16305 0.74152,0.27697 1.22277,0.53139 1.39294,0.73643 0.10179,0.12265 0.27282,0.223 0.38004,0.223 0.10722,0 0.57827,0.23114 1.04675,0.51364 0.46851,0.2825 0.95724,0.51381 1.08606,0.51401 0.53226,0.002 0.96807,1.00484 0.54869,1.26404 -0.0944,0.0584 -0.50747,0.11796 -0.91788,0.13245 -0.64592,0.0228 -0.85973,-0.0501 -1.59068,-0.54204 z m -34.40234,6.52961 c -0.16155,-0.0397 -0.37633,-0.13927 -0.4773,-0.22125 -0.2251,-0.18274 -0.24345,-1.08676 -0.0248,-1.22189 0.0873,-0.054 0.28309,-0.30257 0.43507,-0.55246 0.40319,-0.66301 2.34007,-2.45959 2.5533,-2.45959 0.10028,0 0.41939,-0.23576 0.62478,-0.39731 1.33263,-0.7531 0.68794,-0.80012 1.83295,-1.312 0.19017,-0.22915 0.91191,-0.25079 1.30727,-0.0392 0.28481,0.1524 0.38031,0.58543 0.17393,0.78863 -0.0606,0.0596 -0.17795,0.30606 -0.26081,0.54758 -0.11993,0.34953 -0.32967,0.51145 -1.02803,0.79356 -0.48256,0.19492 -0.96804,0.48823 -1.07886,0.65178 -0.11082,0.16355 -0.32045,0.29737 -0.46586,0.29737 -0.33533,0 -2.17506,1.78227 -2.69086,2.60679 -0.21474,0.34329 -0.43917,0.6165 -0.49874,0.60713 -0.0595,-0.009 -0.24049,-0.0495 -0.40203,-0.0892 z m 43.38747,6.11879 c -0.25305,-0.21948 -0.36073,-0.48539 -0.39227,-0.96865 -0.0363,-0.55642 -0.13962,-0.75853 -0.62729,-1.2271 -0.5733,-0.55082 -1.69094,-2.69263 -2.07639,-3.97917 -0.14878,-0.49658 -0.13623,-0.60965 0.0962,-0.86653 0.2654,-0.29325 0.2719,-0.29066 0.89007,0.3545 0.56681,0.59156 1.47869,1.98073 1.71977,2.61996 0.0532,0.14115 0.33023,0.62157 0.61555,1.06761 0.28532,0.44601 0.51878,0.90071 0.51878,1.01042 0,0.10969 0.0912,0.27512 0.20259,0.36759 0.11143,0.0925 0.24436,0.37703 0.29542,0.63233 0.0755,0.37748 0.0188,0.54146 -0.3035,0.87787 -0.47364,0.49439 -0.49428,0.49683 -0.93897,0.11117 z m -49.45663,6.27767 c -0.62514,-0.66543 -0.35187,-2.66445 0.54179,-3.96334 0.25335,-0.36824 0.46064,-0.76304 0.46064,-0.87733 0,-0.35786 0.51529,-0.69389 1.06408,-0.69389 0.28981,0 0.55285,-0.0778 0.58455,-0.17288 0.0317,-0.0951 0.13656,-0.12407 0.23306,-0.0644 0.24616,0.15213 0.0706,0.77149 -0.43366,1.52971 -0.231,0.34734 -0.42083,0.67777 -0.42186,0.73431 -0.002,0.0566 -0.19671,0.487 -0.43487,0.9566 -0.23816,0.46963 -0.50111,1.22218 -0.58432,1.67235 -0.14331,0.7752 -0.35689,1.21881 -0.5868,1.21881 -0.0568,0 -0.24698,-0.15296 -0.42261,-0.33992 z m 50.42794,8.95428 c -0.20759,-0.15179 -0.24499,-0.29585 -0.16209,-0.62417 0.11467,-0.45414 0.27532,-1.7117 0.52357,-4.09836 0.2293,-2.20468 0.24489,-2.33772 0.29241,-2.49665 0.0242,-0.0807 0.0507,-0.27904 0.0589,-0.44059 0.0104,-0.20386 0.1344,-0.30754 0.40532,-0.33888 0.3276,-0.0379 0.40172,0.0211 0.46117,0.36715 0.15488,0.90148 0.17557,1.37777 0.15196,3.49641 -0.0242,2.17186 -0.25819,3.65649 -0.65082,4.12959 -0.21404,0.2579 -0.73162,0.26053 -1.0804,0.005 z m -52.04753,6.533 c -0.32514,-0.0913 -1.04952,-1.13919 -1.04952,-1.51823 0,-0.0924 -0.0978,-0.2761 -0.21722,-0.40811 -0.31846,-0.35187 -0.38588,-2.29161 -0.12683,-3.64826 0.53688,-2.81163 0.49055,-2.67018 0.87466,-2.67018 0.195,0 0.48282,-0.0801 0.6396,-0.17801 0.15677,-0.0979 0.31905,-0.14402 0.36062,-0.10247 0.22293,0.22295 0.002,1.86551 -0.37395,2.77713 -0.13605,0.33004 -0.20921,1.01338 -0.20447,1.9092 l 0.008,1.39519 0.63929,0.92626 0.6393,0.92625 -0.33706,0.35879 c -0.18539,0.19732 -0.37512,0.35218 -0.42161,0.34413 -0.0465,-0.008 -0.2401,-0.0583 -0.43022,-0.11169 z m 45.30809,7.4946 c -0.28808,-0.31832 -0.31641,-0.61151 -0.0595,-0.61535 0.10097,-0.002 0.51402,-0.40537 0.91789,-0.89748 0.40387,-0.49208 0.94909,-1.14321 1.21161,-1.44693 0.26251,-0.30374 0.4773,-0.6684 0.4773,-0.81039 0,-0.30357 1.1914,-2.2152 1.86179,-2.98728 l 0.46661,-0.53738 0.16861,0.44059 c 0.14093,0.36825 0.11858,0.5616 -0.13617,1.17772 -0.16762,0.40544 -0.30478,0.79573 -0.30478,0.86731 0,0.0716 -0.16522,0.34678 -0.36716,0.61153 -0.20193,0.26475 -0.36715,0.54237 -0.36715,0.61691 0,0.0745 -0.2313,0.43846 -0.51401,0.80872 -0.28271,0.37025 -0.51402,0.7125 -0.51402,0.76054 0,0.27788 -1.47238,1.88823 -1.89042,2.06759 -0.62746,0.2692 -0.65785,0.26741 -0.95062,-0.0561 z m -38.20679,4.56965 c -0.16155,-0.0388 -0.45894,-0.2215 -0.66088,-0.40584 -0.20193,-0.18434 -0.63423,-0.50047 -0.96068,-0.70253 -0.7039,-0.43569 -2.74142,-2.27043 -2.88411,-2.59707 -0.0549,-0.12569 -0.10447,-0.54011 -0.11015,-0.92094 -0.008,-0.54092 0.0519,-0.7257 0.27379,-0.84449 0.45093,-0.24132 0.98055,0.0399 1.08811,0.57761 0.0993,0.49663 1.81089,2.34599 2.56752,2.77422 1.6799,0.95079 2.38691,1.63559 2.07575,2.01051 -0.17119,0.20628 -0.78409,0.25416 -1.38935,0.10853 z m 22.76325,4.65699 c -0.1142,-0.18478 0.15453,-0.43384 0.47244,-0.43785 0.0981,-0.002 0.24903,-0.1342 0.33536,-0.29549 0.20585,-0.38465 1.19362,-0.88165 1.75227,-0.88165 0.44074,0 1.05681,-0.29002 2.05068,-0.96536 0.28845,-0.19602 0.63741,-0.3564 0.77543,-0.3564 0.13804,0 0.29181,-0.0661 0.34174,-0.14686 0.0499,-0.0807 0.34315,-0.14686 0.65162,-0.14686 0.38996,0 0.62227,-0.0875 0.76236,-0.28711 0.15452,-0.22021 0.40687,-0.29722 1.08266,-0.33045 l 0.88117,-0.0434 0.0442,0.4531 c 0.0516,0.52881 -0.0246,0.59656 -1.29255,1.14916 -0.52502,0.22883 -1.06935,0.47409 -1.2096,0.54506 -0.14027,0.071 -0.33854,0.12963 -0.44059,0.13037 -0.10206,0.002 -0.51601,0.1639 -0.91988,0.36257 -0.40387,0.19866 -0.81995,0.36328 -0.92461,0.3658 -0.10467,0.003 -0.49886,0.16885 -0.87597,0.36961 -0.44382,0.23626 -0.73601,0.31467 -0.82839,0.22229 -0.0924,-0.0924 -0.23959,-0.055 -0.41737,0.10588 -0.34554,0.31268 -2.07421,0.45734 -2.24099,0.18751 z m -11.01714,0.93481 c -0.12712,-0.0929 -0.35693,-0.13609 -0.51069,-0.0959 -0.15414,0.0403 -0.48011,-0.0697 -0.72649,-0.24511 -0.2458,-0.17503 -0.5064,-0.28146 -0.57913,-0.23651 -0.13816,0.0854 -1.07207,-0.20517 -1.88912,-0.58774 -0.49964,-0.23397 -0.59516,-0.4737 -0.30454,-0.76433 0.13244,-0.13244 0.11246,-0.23938 -0.0856,-0.45826 -0.24751,-0.27351 -0.24564,-0.29231 0.0445,-0.44761 0.352,-0.18838 0.96064,-0.0716 1.48382,0.28476 0.37163,0.25312 1.78098,0.808 3.19807,1.25909 0.80893,0.25752 1.81388,0.20587 2.19804,-0.11296 0.14521,-0.12053 0.24182,-0.11883 0.3671,0.007 0.0935,0.0935 0.29059,0.17002 0.43799,0.17002 0.15253,0 0.32969,0.16229 0.41121,0.37671 0.18479,0.48606 0.20454,0.43021 -0.26064,0.73726 -0.32453,0.21421 -0.71322,0.26821 -1.97864,0.27485 -0.96845,0.005 -1.66374,-0.0568 -1.80587,-0.16072 z"
         style="fill:#000000;stroke:#000000;stroke-opacity:1"
         id="path3316" />
      <path
         inkscape:connector-curvature="0"
         id="path3304"
         d="m -595.58039,-80.618774 c 9.71032,-0.67241 18.89458,-7.16025 22.8523,-16.00151 2.65782,-7.366646 4.98914,-15.844066 1.16764,-23.269956 -2.92226,-6.56226 -9.69688,-9.85234 -16.25394,-11.64096 -5.14736,-1.83139 -10.8802,-2.7992 -16.1191,-0.71183 -5.8373,2.46852 -10.9357,6.77178 -14.53434,11.98574 -5.35607,7.8616 -7.42797,19.19403 -1.84837,27.478496 3.68574,5.31281 9.0998,9.37889 15.35061,11.12422 3.00131,0.91349 6.25225,1.58393 9.3852,1.0358 z m -4.92022,2.22044 c -9.86582,-1.78117 -19.82736,-7.46674 -23.59976,-17.19263 -4.58585,-12.601086 1.94154,-26.946776 12.61538,-34.255676 5.61493,-4.11002 12.76611,-6.49964 19.70106,-4.84055 5.40503,1.14035 10.69157,3.18692 15.42451,6.00461 6.37309,5.01816 10.21239,13.36809 8.79912,21.50316 -1.10696,8.216376 -4.57707,16.422146 -11.2491,21.646056 -5.9451,5.14979 -13.84331,7.8031 -21.69121,7.13503 z"
         style="fill:#000000" />
      <path
         sodipodi:nodetypes="ccscscscsccccccsscccccsscccscccccsccccccsscccccccscsccscsccccsssccscccscccssccsssccccscsscccccccccccccccsscscscscscccccsccccscccccscscsccccccccccscccccccccccccccsssccc"
         inkscape:connector-curvature="0"
         d="m -542.82477,-256.45861 c -0.47222,-0.13195 -0.52372,-0.34767 -0.16132,-0.67566 0.16352,-0.14798 0.2973,-0.34557 0.2973,-0.4391 0,-0.0935 0.18174,-0.33245 0.40387,-0.53094 1.32249,-1.1817 2.28581,-1.42783 4.31491,-1.10245 0.75679,0.12135 1.75671,0.25553 2.22205,0.29816 0.9286,0.0851 1.42975,0.34012 1.7147,0.87254 0.23053,0.43073 -0.0129,1.01061 -0.36714,0.87466 -0.12901,-0.0495 -0.31049,0.0304 -0.42508,0.18711 -0.1898,0.25956 -0.21425,0.26056 -0.4804,0.0197 -0.36958,-0.33445 -2.60339,-0.7297 -4.02268,-0.71177 -1.1757,0.0148 -2.08787,0.3672 -2.69904,1.04254 -0.14638,0.16174 -0.30545,0.28747 -0.35352,0.27942 -0.048,-0.008 -0.24769,-0.0594 -0.44365,-0.11421 z m 20.36617,2.45153 c -0.46445,-0.31263 -0.84445,-0.63268 -0.84445,-0.71124 0,-0.0785 -0.0731,-0.14283 -0.16245,-0.14283 -0.0893,0 -0.28042,-0.14998 -0.42462,-0.33331 -0.23544,-0.29929 -0.98823,-0.54153 -2.26099,-0.72753 -0.47341,-0.0692 -0.63259,-0.49132 -0.31682,-0.84022 0.22386,-0.24736 0.41088,-0.29301 1.02184,-0.24945 0.41132,0.0293 0.88003,0.10272 1.04157,0.16305 0.74152,0.27697 1.22277,0.53139 1.39294,0.73643 0.10179,0.12265 0.27282,0.223 0.38004,0.223 0.10722,0 0.57827,0.23114 1.04675,0.51364 0.46851,0.2825 0.95724,0.51381 1.08606,0.51401 0.53226,0.002 0.96807,1.00484 0.54869,1.26404 -0.0944,0.0584 -0.50747,0.11796 -0.91788,0.13245 -0.64592,0.0228 -0.85973,-0.0501 -1.59068,-0.54204 z m -34.40234,6.52961 c -0.16155,-0.0397 -0.37633,-0.13927 -0.4773,-0.22125 -0.2251,-0.18274 -0.24345,-1.08676 -0.0248,-1.22189 0.0873,-0.054 0.28309,-0.30257 0.43507,-0.55246 0.40319,-0.66301 2.34007,-2.45959 2.5533,-2.45959 0.10028,0 0.41939,-0.23576 0.62478,-0.39731 1.33263,-0.7531 0.68794,-0.80012 1.83295,-1.312 0.19017,-0.22915 0.91191,-0.25079 1.30727,-0.0392 0.28481,0.1524 0.38031,0.58543 0.17393,0.78863 -0.0606,0.0596 -0.17795,0.30606 -0.26081,0.54758 -0.11993,0.34953 -0.32967,0.51145 -1.02803,0.79356 -0.48256,0.19492 -0.96804,0.48823 -1.07886,0.65178 -0.11082,0.16355 -0.32045,0.29737 -0.46586,0.29737 -0.33533,0 -2.17506,1.78227 -2.69086,2.60679 -0.21474,0.34329 -0.43917,0.6165 -0.49874,0.60713 -0.0595,-0.009 -0.24049,-0.0495 -0.40203,-0.0892 z m 43.38747,6.1188 c -0.25305,-0.21948 -0.36073,-0.48539 -0.39227,-0.96865 -0.0363,-0.55642 -0.13962,-0.75853 -0.62729,-1.2271 -0.5733,-0.55082 -1.69094,-2.69264 -2.07639,-3.97918 -0.14878,-0.49658 -0.13623,-0.60965 0.0962,-0.86653 0.2654,-0.29325 0.2719,-0.29066 0.89007,0.3545 0.56681,0.59156 1.47869,1.98073 1.71977,2.61996 0.0532,0.14115 0.33023,0.62158 0.61555,1.06762 0.28532,0.44601 0.51878,0.90071 0.51878,1.01042 0,0.10969 0.0912,0.27512 0.20259,0.36759 0.11143,0.0925 0.24436,0.37703 0.29542,0.63233 0.0755,0.37748 0.0188,0.54146 -0.3035,0.87787 -0.47364,0.49439 -0.49428,0.49683 -0.93897,0.11117 z m -49.45663,6.27767 c -0.62514,-0.66543 -0.35187,-2.66446 0.54179,-3.96335 0.25335,-0.36824 0.46064,-0.76303 0.46064,-0.87732 0,-0.35786 0.51529,-0.69389 1.06408,-0.69389 0.28981,0 0.55285,-0.0778 0.58455,-0.17288 0.0317,-0.0951 0.13656,-0.12407 0.23306,-0.0644 0.24616,0.15213 0.0706,0.77149 -0.43366,1.5297 -0.231,0.34734 -0.42083,0.67777 -0.42186,0.73431 -0.002,0.0566 -0.19671,0.487 -0.43487,0.9566 -0.23816,0.46963 -0.50111,1.22218 -0.58432,1.67236 -0.14331,0.7752 -0.35689,1.21881 -0.5868,1.21881 -0.0568,0 -0.24698,-0.15296 -0.42261,-0.33992 z m 50.42794,8.95428 c -0.20759,-0.15179 -0.24499,-0.29585 -0.16209,-0.62417 0.11467,-0.45414 0.27532,-1.7117 0.52357,-4.09836 0.2293,-2.20468 0.24489,-2.33772 0.29241,-2.49665 0.0242,-0.0807 0.0507,-0.27904 0.0589,-0.44059 0.0104,-0.20386 0.1344,-0.30754 0.40532,-0.33888 0.3276,-0.0379 0.40172,0.0211 0.46117,0.36715 0.15488,0.90148 0.17557,1.37777 0.15196,3.49641 -0.0242,2.17186 -0.25819,3.65649 -0.65082,4.12959 -0.21404,0.2579 -0.73162,0.26053 -1.0804,0.005 z m -52.04753,6.533 c -0.32514,-0.0913 -1.04952,-1.13919 -1.04952,-1.51823 0,-0.0924 -0.0978,-0.2761 -0.21722,-0.40811 -0.31846,-0.35187 -0.38588,-2.29161 -0.12683,-3.64826 0.53688,-2.81163 0.49055,-2.67018 0.87466,-2.67018 0.195,0 0.48282,-0.0801 0.6396,-0.17801 0.15677,-0.0979 0.31905,-0.14402 0.36062,-0.10247 0.22293,0.22295 0.002,1.86551 -0.37395,2.77713 -0.13605,0.33004 -0.20921,1.01338 -0.20447,1.9092 l 0.008,1.39519 0.63929,0.92626 0.6393,0.92625 -0.33706,0.35879 c -0.18539,0.19732 -0.37512,0.35218 -0.42161,0.34413 -0.0465,-0.008 -0.2401,-0.0583 -0.43022,-0.11169 z m 45.30809,7.4946 c -0.28808,-0.31832 -0.31641,-0.61151 -0.0595,-0.61535 0.10097,-0.002 0.51402,-0.40537 0.91789,-0.89748 0.40387,-0.49208 0.94909,-1.14321 1.21161,-1.44693 0.26251,-0.30374 0.4773,-0.6684 0.4773,-0.81039 0,-0.30357 1.1914,-2.2152 1.86179,-2.98728 l 0.46661,-0.53738 0.16861,0.44059 c 0.14093,0.36825 0.11858,0.5616 -0.13617,1.17772 -0.16762,0.40544 -0.30478,0.79573 -0.30478,0.86731 0,0.0716 -0.16522,0.34678 -0.36716,0.61153 -0.20193,0.26475 -0.36715,0.54237 -0.36715,0.61691 0,0.0745 -0.2313,0.43846 -0.51401,0.80872 -0.28271,0.37025 -0.51402,0.7125 -0.51402,0.76054 0,0.27788 -1.47238,1.88823 -1.89042,2.06759 -0.62746,0.2692 -0.65785,0.26741 -0.95062,-0.0561 z m -38.20679,4.56965 c -0.16155,-0.0388 -0.45894,-0.2215 -0.66088,-0.40584 -0.20193,-0.18434 -0.63423,-0.50047 -0.96068,-0.70253 -0.7039,-0.43569 -2.74142,-2.27043 -2.88411,-2.59707 -0.0549,-0.12569 -0.10447,-0.54011 -0.11015,-0.92094 -0.008,-0.54092 0.0519,-0.7257 0.27379,-0.84449 0.45093,-0.24132 0.98055,0.0399 1.08811,0.57761 0.0993,0.49663 1.81089,2.34599 2.56752,2.77422 1.6799,0.95079 2.38691,1.63559 2.07575,2.01051 -0.17119,0.20628 -0.78409,0.25416 -1.38935,0.10853 z m 22.76325,4.65699 c -0.1142,-0.18478 0.15453,-0.43384 0.47244,-0.43785 0.0981,-0.002 0.24903,-0.1342 0.33536,-0.29549 0.20585,-0.38465 1.19362,-0.88165 1.75227,-0.88165 0.44074,0 1.05681,-0.29002 2.05068,-0.96536 0.28845,-0.19602 0.63741,-0.3564 0.77543,-0.3564 0.13804,0 0.29181,-0.0661 0.34174,-0.14686 0.0499,-0.0807 0.34315,-0.14686 0.65162,-0.14686 0.38996,0 0.62227,-0.0875 0.76236,-0.28711 0.15452,-0.22021 0.40687,-0.29722 1.08266,-0.33045 l 0.88117,-0.0434 0.0442,0.4531 c 0.0516,0.52881 -0.0246,0.59656 -1.29255,1.14916 -0.52502,0.22883 -1.06935,0.47409 -1.2096,0.54506 -0.14027,0.071 -0.33854,0.12963 -0.44059,0.13037 -0.10206,0.002 -0.51601,0.1639 -0.91988,0.36257 -0.40387,0.19866 -0.81995,0.36328 -0.92461,0.3658 -0.10467,0.003 -0.49886,0.16885 -0.87597,0.36961 -0.44382,0.23626 -0.73601,0.31467 -0.82839,0.22229 -0.0924,-0.0924 -0.23959,-0.055 -0.41737,0.10588 -0.34554,0.31268 -2.07421,0.45734 -2.24099,0.18751 z m -11.01714,0.93481 c -0.12712,-0.0929 -0.35693,-0.13609 -0.51069,-0.0959 -0.15414,0.0403 -0.48011,-0.0697 -0.72649,-0.24511 -0.2458,-0.17503 -0.5064,-0.28146 -0.57913,-0.23651 -0.13816,0.0854 -1.07207,-0.20517 -1.88912,-0.58774 -0.49964,-0.23397 -0.59516,-0.4737 -0.30454,-0.76433 0.13244,-0.13244 0.11246,-0.23938 -0.0856,-0.45826 -0.24751,-0.27351 -0.24564,-0.29231 0.0445,-0.44761 0.352,-0.18838 0.96064,-0.0716 1.48382,0.28476 0.37163,0.25312 1.78098,0.808 3.19807,1.25909 0.80893,0.25752 1.81388,0.20587 2.19804,-0.11296 0.14521,-0.12053 0.24182,-0.11883 0.3671,0.007 0.0935,0.0935 0.29059,0.17002 0.43799,0.17002 0.15253,0 0.32969,0.16229 0.41121,0.37671 0.18479,0.48606 0.20454,0.43021 -0.26064,0.73726 -0.32453,0.21421 -0.71322,0.26821 -1.97864,0.27485 -0.96845,0.005 -1.66374,-0.0568 -1.80587,-0.16072 z"
         style="fill:#000000;stroke:#000000;stroke-opacity:1"
         id="path3316-5" />
      <path
         inkscape:connector-curvature="0"
         d="m -546.33503,-198.70103 c -0.58598,1.99334 -1.59653,3.7778 -2.56269,5.59387 -0.90011,1.81853 -1.70154,3.68318 -2.58964,5.50753 -0.94574,1.88439 -1.87144,3.77906 -2.83099,5.65647 -1.29918,2.56964 -2.56553,5.15476 -3.91717,7.6975 -1.46008,2.69354 -2.58504,5.54872 -4.01987,8.25395 -1.23515,2.16008 -2.51169,4.29471 -3.70536,6.47858 -0.94102,1.68554 -1.82347,3.40274 -2.80682,5.06429 -0.87183,1.37701 -1.73712,2.75415 -2.53049,4.17785 -0.62473,1.04343 -1.3443,2.02357 -1.76816,3.17037 -0.25437,0.8067 -0.80114,1.42837 -1.30378,2.08515 -0.39882,0.63519 -0.83201,1.24117 -1.28647,1.83849 -0.48134,0.71466 -0.82079,1.51424 -1.24233,2.26649 -0.49116,0.86631 -0.84921,1.79243 -1.37876,2.63816 -0.43066,0.62539 -0.83803,1.26595 -1.25399,1.90096 -0.17464,0.29953 -0.28911,0.62894 -0.4307,0.94484 -0.0845,0.34058 -0.20741,0.64401 -0.41095,0.93566 -0.16847,0.2906 -0.30987,0.59085 -0.50178,0.86828 -0.14533,0.29605 -0.40051,0.5113 -0.58044,0.78127 -0.22024,0.33729 -0.3438,0.71066 -0.60052,1.0253 -0.32581,0.58752 -1.35241,-0.73271 -0.6572,-0.67711 0.15417,-0.27221 0.53913,-0.0542 0.38497,0.21802 l 0,0 c 0.59328,0.339 -0.4681,-0.89081 -0.71672,-0.42046 0.16413,-0.17512 0.28149,-0.66098 0.49824,-0.89623 0.19104,-0.26361 0.41905,-0.49268 0.58365,-0.77547 0.19467,-0.2711 0.30857,-0.58539 0.49897,-0.85975 0.14141,-0.20721 0.20899,-0.4599 0.29957,-0.74413 0.17994,-0.37035 0.29911,-0.77023 0.5313,-1.11418 0.41776,-0.62137 0.82656,-1.24854 1.24748,-1.86804 0.5227,-0.82459 0.86881,-1.73366 1.35102,-2.58047 0.4525,-0.80167 0.80373,-1.66108 1.33169,-2.41658 0.45322,-0.60123 0.89249,-1.20284 1.28978,-1.84257 0.42629,-0.5592 0.91089,-1.06799 1.13465,-1.75234 0.46017,-1.20193 1.1824,-2.25402 1.85604,-3.34422 0.81133,-1.42294 1.66759,-2.81509 2.55945,-4.18962 0.97092,-1.65353 1.85112,-3.35671 2.79151,-5.02762 1.19445,-2.17656 2.48813,-4.29467 3.70269,-6.45959 1.42897,-2.70897 2.56113,-5.56082 4.02117,-8.25496 1.34385,-2.53821 2.60584,-5.11678 3.89597,-7.68236 0.94456,-1.87839 1.86042,-3.77106 2.81254,-5.64568 0.90155,-1.83243 1.7084,-3.70832 2.59751,-5.54671 0.92445,-1.76549 2.02882,-3.43728 2.53847,-5.39732 0.27746,-0.82602 1.44561,-0.43363 1.16816,0.39238 z"
         id="path5090"
         style="fill:#000000;fill-opacity:1;stroke:#000000;stroke-width:1;stroke-miterlimit:4;stroke-opacity:1;stroke-dasharray:none;stroke-dashoffset:0" />
      <path
         inkscape:connector-curvature="0"
         d="m -547.64476,-199.26287 c -1.57614,1.58819 -3.07858,3.24382 -4.69929,4.7867 -1.228,1.17469 -2.4118,2.39395 -3.60444,3.60413 -0.40663,0.45906 -0.0319,0.22884 -0.21045,0.0227 -0.0962,-0.11105 -0.23435,-0.17938 -0.36395,-0.24856 -0.06,-0.032 0.10156,0.0904 0.15234,0.1356 0.45238,0.26479 0.21076,0.23748 0.72787,0.0482 0.0443,-0.0154 0.0661,0.0472 0.0218,0.0626 l 0,0 c -0.54794,0.19882 -0.30361,0.0482 -0.73062,0.4556 -1.10123,0.56876 -1.36918,-0.93061 -0.54042,-1.40878 1.23281,-1.17887 2.42368,-2.40062 3.64431,-3.59198 1.6038,-1.53899 3.2386,-3.0472 4.75268,-4.67712 0.57339,-0.60115 1.42354,0.20976 0.85015,0.81091 z"
         id="path5092"
         style="fill:#000000;fill-opacity:1;stroke:#000000;stroke-width:1;stroke-miterlimit:4;stroke-opacity:1;stroke-dasharray:none;stroke-dashoffset:0" />
      <path
         inkscape:connector-curvature="0"
         d="m -545.59162,-200.50485 c 0.12479,1.58781 0.24085,3.18611 0.10785,4.77782 -0.058,0.69439 -0.1885,1.36759 -0.2275,2.06472 5.7e-4,1.50806 0.2291,3.0025 0.38539,4.49929 -0.003,0.37214 0.15191,0.88224 -0.0588,1.23479 -0.1064,0.17807 -0.2927,0.29876 -0.40197,0.4751 0.0103,0.0457 -0.0544,0.0603 -0.0647,0.0146 l 0,0 c -0.79972,-0.57223 -0.78345,-0.52438 -0.87159,-1.57973 -0.14756,-1.56876 -0.36297,-3.13502 -0.37496,-4.71282 0.0395,-0.71745 0.1721,-1.37579 0.26186,-2.08441 0.19097,-1.5078 0.1058,-3.02825 -0.0582,-4.53475 -0.10928,-0.92107 1.1933,-1.07562 1.30259,-0.15456 z"
         id="path5094"
         style="fill:#000000;fill-opacity:1;stroke:#000000;stroke-width:1;stroke-miterlimit:4;stroke-opacity:1;stroke-dasharray:none;stroke-dashoffset:0" />
      <path
         inkscape:connector-curvature="0"
         id="path5096"
         d="m -572.77844,-126.27921 c 3.94515,-2.51433 7.41356,-5.67919 11.2893,-8.29876 7.26011,-6.42221 14.62917,-12.70712 22.37046,-18.54744 8.23621,-6.47334 15.96181,-13.58706 24.6053,-19.52878 5.21186,-4.1613 10.65544,-8.0185 15.80389,-12.25751 3.67321,-2.70516 8.16456,-4.22724 11.61175,-7.20397 2.75684,-3.73195 7.03662,-5.78798 10.27512,-9.0063 2.16369,-0.67746 6.20366,-6.50358 7.36203,-3.86566 -3.59044,3.33839 -7.73052,6.11408 -11.39807,9.38411 -3.67664,2.30983 -5.76632,6.42403 -9.99613,7.9687 -6.80643,3.20886 -12.04066,8.68503 -18.24117,12.80773 -6.50478,5.30111 -13.60173,9.82632 -19.78575,15.52915 -10.2103,8.3386 -20.83382,16.16947 -30.51685,25.13589 -3.33213,2.70387 -6.90597,5.09702 -10.28367,7.7352 -0.78342,0.60623 -4.39038,3.06889 -3.09621,0.14764 z"
         style="fill:#000000;fill-opacity:1;stroke:#000000;stroke-width:1;stroke-miterlimit:4;stroke-opacity:1;stroke-dasharray:none;stroke-dashoffset:0" />
      <path
         inkscape:connector-curvature="0"
         d="m -481.30634,-202.96474 c 1.2521,-0.3694 2.83527,-0.9653 3.78297,-1.50325 0.79414,-0.28623 1.54625,-0.66403 2.31585,-1.00653 0.67909,-0.35051 1.43494,-0.4744 2.15167,-0.71924 0.8282,-0.37455 1.66323,-0.73907 2.47332,-1.15212 0.069,0.0235 1.57584,-0.85062 1.03217,-0.47629 -0.53416,0.70203 -0.0681,1.63637 0.66908,1.32899 -0.87169,0.17489 -0.63568,0.27568 -0.24494,0.0495 0.28745,-0.38879 0.27411,-0.74621 0.25478,-0.0828 -0.0659,0.43666 -0.31152,0.81771 -0.52168,1.19844 -0.49072,0.9696 -1.02034,1.91868 -1.54505,2.87016 -1.11362,2.18775 -2.51214,4.20653 -3.94185,6.19541 -0.84565,0.9762 -1.40372,2.17707 -2.1847,3.19462 -0.20361,0.12728 -0.38719,0.17462 -0.62369,0.2142 -0.007,0.22477 -0.32459,0.21527 -0.31787,-0.01 l 0,0 c -0.33124,-0.1837 -0.474,-0.301 -0.49371,-0.70399 0.2695,-1.41939 1.55669,-2.44905 2.25782,-3.64845 1.38838,-1.94192 2.74501,-3.90917 3.83675,-6.03798 0.52946,-0.94561 1.08063,-1.87931 1.55433,-2.85493 0.0511,-0.0937 0.33445,-0.71222 0.32694,-0.54039 0.004,-0.22666 -0.0126,-0.86908 0.34788,-1.11274 0.21814,-0.13873 1.17702,-0.44449 0.25148,-0.0718 -0.0362,0.0146 0.15794,-0.0926 0.0947,-0.0689 0.79294,-0.36485 2.39231,-0.16647 1.45854,1.33267 -0.44161,0.32591 -0.97109,0.4924 -1.45033,0.75649 -0.88096,0.45822 -1.78958,0.86758 -2.69851,1.26621 -0.67176,0.22803 -1.37499,0.3574 -2.01494,0.67311 -0.74202,0.31748 -1.46395,0.68124 -2.2244,0.95607 -1.19169,0.7285 -2.76196,0.85344 -4.02001,1.4922 -1.08833,0.37233 -1.61489,-1.1668 -0.52656,-1.53913 z"
         id="path5114"
         style="fill:#000000;fill-opacity:1;stroke:#000000;stroke-width:1;stroke-miterlimit:4;stroke-opacity:1;stroke-dasharray:none;stroke-dashoffset:0" />
    </g>
    <g
       transform="translate(730.60701,589.33696)"
       id="g4422">
      <path
         inkscape:connector-curvature="0"
         id="path3304-9"
         d="m -310.37503,9.4214734 c 9.71032,-0.67241 18.89458,-7.16025 22.8523,-16.00151 2.65782,-7.3666504 4.98914,-15.8440704 1.16764,-23.2699604 -2.92226,-6.56226 -9.69688,-9.85234 -16.25394,-11.64096 -5.14736,-1.83139 -10.8802,-2.7992 -16.1191,-0.71183 -5.83729,2.46852 -10.93569,6.77178 -14.53433,11.98574 -5.35607,7.8616 -7.42797,19.19403 -1.84837,27.4785004 3.68573,5.31281 9.0998,9.37889 15.3506,11.12422 3.00131,0.91349 6.25225,1.58393 9.3852,1.0358 z m -4.92022,2.2204396 c -9.86581,-1.7811696 -19.82736,-7.4667396 -23.59976,-17.1926296 -4.58585,-12.6010904 1.94154,-26.9467804 12.61539,-34.2556804 5.61492,-4.11002 12.7661,-6.49964 19.70105,-4.84055 5.40503,1.14035 10.69157,3.18692 15.42451,6.00461 6.37309,5.01816 10.21239,13.36809 8.79912,21.50316 -1.10696,8.2163804 -4.57707,16.42215041 -11.2491,21.6460604 -5.9451,5.14979 -13.84331,7.8030996 -21.69121,7.1350296 z"
         style="fill:#000000" />
      <path
         sodipodi:nodetypes="ccscscscsccccccsscccccsscccscccccsccccccsscccccccscsccscsccccsssccscccscccssccsssccccscsscccccccccccccccsscscscscscccccsccccscccccscscsccccccccccscccccccccccccccsssccc"
         inkscape:connector-curvature="0"
         d="m -373.18258,-152.50582 c -0.47222,-0.13195 -0.52372,-0.34767 -0.16132,-0.67566 0.16352,-0.14798 0.2973,-0.34557 0.2973,-0.4391 0,-0.0935 0.18174,-0.33245 0.40387,-0.53094 1.32249,-1.1817 2.28581,-1.42783 4.31491,-1.10245 0.75679,0.12135 1.75671,0.25553 2.22205,0.29816 0.9286,0.0851 1.42975,0.34012 1.7147,0.87254 0.23053,0.43073 -0.0129,1.01061 -0.36714,0.87466 -0.12901,-0.0495 -0.31049,0.0304 -0.42508,0.18711 -0.1898,0.25956 -0.21425,0.26056 -0.4804,0.0197 -0.36958,-0.33445 -2.60339,-0.7297 -4.02268,-0.71177 -1.1757,0.0148 -2.08787,0.3672 -2.69904,1.04254 -0.14638,0.16174 -0.30545,0.28747 -0.35352,0.27942 -0.048,-0.008 -0.24769,-0.0594 -0.44365,-0.11421 z m 20.36617,2.45153 c -0.46445,-0.31263 -0.84445,-0.63268 -0.84445,-0.71124 0,-0.0785 -0.0731,-0.14283 -0.16245,-0.14283 -0.0893,0 -0.28042,-0.14998 -0.42462,-0.33331 -0.23544,-0.29929 -0.98823,-0.54153 -2.26099,-0.72753 -0.47341,-0.0692 -0.63259,-0.49132 -0.31682,-0.84022 0.22386,-0.24736 0.41088,-0.29301 1.02184,-0.24945 0.41132,0.0293 0.88003,0.10272 1.04157,0.16305 0.74152,0.27697 1.22277,0.53139 1.39294,0.73643 0.10179,0.12265 0.27282,0.223 0.38004,0.223 0.10722,0 0.57827,0.23114 1.04675,0.51364 0.46851,0.2825 0.95724,0.51381 1.08606,0.51401 0.53226,0.002 0.96807,1.00484 0.54869,1.26404 -0.0944,0.0584 -0.50747,0.11796 -0.91788,0.13245 -0.64592,0.0228 -0.85973,-0.0501 -1.59068,-0.54204 z m -34.40234,6.52961 c -0.16155,-0.0397 -0.37633,-0.13927 -0.4773,-0.22125 -0.2251,-0.18274 -0.24345,-1.08676 -0.0248,-1.22189 0.0873,-0.054 0.28309,-0.30257 0.43507,-0.55246 0.40319,-0.66301 2.34007,-2.45959 2.5533,-2.45959 0.10028,0 0.41939,-0.23576 0.62478,-0.39731 1.33263,-0.7531 0.68794,-0.80012 1.83295,-1.312 0.19017,-0.22915 0.91191,-0.25079 1.30727,-0.0392 0.28481,0.1524 0.38031,0.58543 0.17393,0.78863 -0.0606,0.0596 -0.17795,0.30606 -0.26081,0.54758 -0.11993,0.34953 -0.32967,0.51145 -1.02803,0.79356 -0.48256,0.19492 -0.96804,0.48823 -1.07886,0.65178 -0.11082,0.16355 -0.32045,0.29737 -0.46586,0.29737 -0.33533,0 -2.17506,1.78227 -2.69086,2.60679 -0.21474,0.34329 -0.43917,0.6165 -0.49874,0.60713 -0.0595,-0.009 -0.24049,-0.0495 -0.40203,-0.0892 z m 43.38747,6.1188 c -0.25305,-0.21948 -0.36073,-0.48539 -0.39227,-0.96865 -0.0363,-0.55642 -0.13962,-0.75853 -0.62729,-1.2271 -0.5733,-0.55082 -1.69094,-2.69264 -2.07639,-3.97918 -0.14878,-0.49658 -0.13623,-0.60965 0.0962,-0.86653 0.2654,-0.29325 0.2719,-0.29066 0.89007,0.3545 0.56681,0.59156 1.47869,1.98073 1.71977,2.61996 0.0532,0.14115 0.33023,0.62158 0.61555,1.06762 0.28532,0.44601 0.51878,0.90071 0.51878,1.01042 0,0.10969 0.0912,0.27512 0.20259,0.36759 0.11143,0.0925 0.24436,0.37703 0.29542,0.63233 0.0755,0.37748 0.0188,0.54146 -0.3035,0.87787 -0.47364,0.49439 -0.49428,0.49683 -0.93897,0.11117 z m -49.45663,6.27766 c -0.62514,-0.66543 -0.35187,-2.66445 0.54179,-3.96334 0.25335,-0.36824 0.46064,-0.76303 0.46064,-0.87732 0,-0.35786 0.51529,-0.69389 1.06408,-0.69389 0.28981,0 0.55285,-0.0778 0.58455,-0.17288 0.0317,-0.0951 0.13656,-0.12407 0.23306,-0.0644 0.24616,0.15213 0.0706,0.77149 -0.43366,1.5297 -0.231,0.34734 -0.42083,0.67777 -0.42186,0.73431 -0.002,0.0566 -0.19671,0.487 -0.43487,0.9566 -0.23816,0.46963 -0.50111,1.22218 -0.58432,1.67235 -0.14331,0.7752 -0.35689,1.21881 -0.5868,1.21881 -0.0568,0 -0.24698,-0.15296 -0.42261,-0.33992 z m 50.42794,8.95428 c -0.20759,-0.15179 -0.24499,-0.29585 -0.16209,-0.62417 0.11467,-0.45414 0.27532,-1.7117 0.52357,-4.09836 0.2293,-2.20468 0.24489,-2.33772 0.29241,-2.49665 0.0242,-0.0807 0.0507,-0.27904 0.0589,-0.44059 0.0104,-0.20386 0.1344,-0.30754 0.40532,-0.33888 0.3276,-0.0379 0.40172,0.0211 0.46117,0.36715 0.15488,0.90148 0.17557,1.37777 0.15196,3.49641 -0.0242,2.17186 -0.25819,3.65649 -0.65082,4.12959 -0.21404,0.2579 -0.73162,0.26053 -1.0804,0.005 z m -52.04753,6.533 c -0.32514,-0.0913 -1.04952,-1.13919 -1.04952,-1.51823 0,-0.0924 -0.0978,-0.2761 -0.21722,-0.40811 -0.31846,-0.35187 -0.38588,-2.29161 -0.12683,-3.64826 0.53688,-2.81163 0.49055,-2.67018 0.87466,-2.67018 0.195,0 0.48282,-0.0801 0.6396,-0.17801 0.15677,-0.0979 0.31905,-0.14402 0.36062,-0.10247 0.22293,0.22295 0.002,1.86551 -0.37395,2.77713 -0.13605,0.33004 -0.20921,1.01338 -0.20447,1.9092 l 0.008,1.39519 0.63929,0.92626 0.6393,0.92625 -0.33706,0.35879 c -0.18539,0.19732 -0.37512,0.35218 -0.42161,0.34413 -0.0465,-0.008 -0.2401,-0.0583 -0.43022,-0.11169 z m 45.30809,7.4946 c -0.28808,-0.31832 -0.31641,-0.61151 -0.0595,-0.61535 0.10097,-0.002 0.51402,-0.40537 0.91789,-0.89748 0.40387,-0.49208 0.94909,-1.14321 1.21161,-1.44693 0.26251,-0.30374 0.4773,-0.6684 0.4773,-0.81039 0,-0.30357 1.1914,-2.2152 1.86179,-2.98728 l 0.46661,-0.53738 0.16861,0.44059 c 0.14093,0.36825 0.11858,0.5616 -0.13617,1.17772 -0.16762,0.40544 -0.30478,0.79573 -0.30478,0.86731 0,0.0716 -0.16522,0.34678 -0.36716,0.61153 -0.20193,0.26475 -0.36715,0.54237 -0.36715,0.61691 0,0.0745 -0.2313,0.43846 -0.51401,0.80872 -0.28271,0.37025 -0.51402,0.7125 -0.51402,0.76054 0,0.27788 -1.47238,1.88823 -1.89042,2.06759 -0.62746,0.2692 -0.65785,0.26741 -0.95062,-0.0561 z m -38.20679,4.56965 c -0.16155,-0.0388 -0.45894,-0.2215 -0.66088,-0.40584 -0.20193,-0.18434 -0.63423,-0.50047 -0.96068,-0.70253 -0.7039,-0.43569 -2.74142,-2.27043 -2.88411,-2.59707 -0.0549,-0.12569 -0.10447,-0.54011 -0.11015,-0.92094 -0.008,-0.54092 0.0519,-0.7257 0.27379,-0.84449 0.45093,-0.24132 0.98055,0.0399 1.08811,0.57761 0.0993,0.49663 1.81089,2.34599 2.56752,2.77422 1.6799,0.95079 2.38691,1.63559 2.07575,2.01051 -0.17119,0.20628 -0.78409,0.25416 -1.38935,0.10853 z m 22.76325,4.656993 c -0.1142,-0.18478 0.15453,-0.43384 0.47244,-0.43785 0.0981,-0.002 0.24903,-0.1342 0.33536,-0.29549 0.20585,-0.384653 1.19362,-0.881653 1.75227,-0.881653 0.44074,0 1.05681,-0.29002 2.05068,-0.96536 0.28845,-0.19602 0.63741,-0.3564 0.77543,-0.3564 0.13804,0 0.29181,-0.0661 0.34174,-0.14686 0.0499,-0.0807 0.34315,-0.14686 0.65162,-0.14686 0.38996,0 0.62227,-0.0875 0.76236,-0.28711 0.15452,-0.22021 0.40687,-0.29722 1.08266,-0.33045 l 0.88117,-0.0434 0.0442,0.4531 c 0.0516,0.52881 -0.0246,0.59656 -1.29255,1.14916 -0.52502,0.22883 -1.06935,0.47409 -1.2096,0.54506 -0.14027,0.071 -0.33854,0.12963 -0.44059,0.13037 -0.10206,0.002 -0.51601,0.1639 -0.91988,0.36257 -0.40387,0.198663 -0.81995,0.363283 -0.92461,0.365803 -0.10467,0.003 -0.49886,0.16885 -0.87597,0.36961 -0.44382,0.23626 -0.73601,0.31467 -0.82839,0.22229 -0.0924,-0.0924 -0.23959,-0.055 -0.41737,0.10588 -0.34554,0.31268 -2.07421,0.45734 -2.24099,0.18751 z m -11.01714,0.93481 c -0.12712,-0.0929 -0.35693,-0.13609 -0.51069,-0.0959 -0.15414,0.0403 -0.48011,-0.0697 -0.72649,-0.24511 -0.2458,-0.17503 -0.5064,-0.28146 -0.57913,-0.23651 -0.13816,0.0854 -1.07207,-0.20517 -1.88912,-0.58774 -0.49964,-0.23397 -0.59516,-0.4737 -0.30454,-0.76433 0.13244,-0.132443 0.11246,-0.239383 -0.0856,-0.458263 -0.24751,-0.27351 -0.24564,-0.29231 0.0445,-0.44761 0.352,-0.18838 0.96064,-0.0716 1.48382,0.28476 0.37163,0.25312 1.78098,0.808003 3.19807,1.259093 0.80893,0.25752 1.81388,0.20587 2.19804,-0.11296 0.14521,-0.12053 0.24182,-0.11883 0.3671,0.007 0.0935,0.0935 0.29059,0.17002 0.43799,0.17002 0.15253,0 0.32969,0.16229 0.41121,0.37671 0.18479,0.48606 0.20454,0.43021 -0.26064,0.73726 -0.32453,0.21421 -0.71322,0.26821 -1.97864,0.27485 -0.96845,0.005 -1.66374,-0.0568 -1.80587,-0.16072 z"
         style="fill:#000000;stroke:#000000;stroke-opacity:1"
         id="path3316-1" />
      <path
         sodipodi:nodetypes="ccscscscsccccccsscccccsscccscccccsccccccsscccccccscsccscsccccsssccscccscccssccsssccccscsscccccccccccccccsscscscscscccccsccccscccccscscsccccccccccscccccccccccccccsssccc"
         inkscape:connector-curvature="0"
         d="m -288.66122,-159.13494 c -0.47222,-0.13195 -0.52372,-0.34767 -0.16132,-0.67566 0.16352,-0.14798 0.2973,-0.34557 0.2973,-0.4391 0,-0.0935 0.18174,-0.33245 0.40387,-0.53094 1.32249,-1.1817 2.28581,-1.42783 4.31491,-1.10245 0.75679,0.12135 1.75671,0.25553 2.22205,0.29816 0.9286,0.0851 1.42975,0.34012 1.7147,0.87254 0.23053,0.43073 -0.0129,1.01061 -0.36714,0.87466 -0.12901,-0.0495 -0.31049,0.0304 -0.42508,0.18711 -0.1898,0.25956 -0.21425,0.26056 -0.4804,0.0197 -0.36958,-0.33445 -2.60339,-0.7297 -4.02268,-0.71177 -1.1757,0.0148 -2.08787,0.3672 -2.69904,1.04254 -0.14638,0.16174 -0.30545,0.28747 -0.35352,0.27942 -0.048,-0.008 -0.24769,-0.0594 -0.44365,-0.11421 z m 20.36617,2.45153 c -0.46445,-0.31263 -0.84445,-0.63268 -0.84445,-0.71124 0,-0.0785 -0.0731,-0.14283 -0.16245,-0.14283 -0.0893,0 -0.28042,-0.14998 -0.42462,-0.33331 -0.23544,-0.29929 -0.98823,-0.54153 -2.26099,-0.72753 -0.47341,-0.0692 -0.63259,-0.49132 -0.31682,-0.84022 0.22386,-0.24736 0.41088,-0.29301 1.02184,-0.24945 0.41132,0.0293 0.88003,0.10272 1.04157,0.16305 0.74152,0.27697 1.22277,0.53139 1.39294,0.73643 0.10179,0.12265 0.27282,0.223 0.38004,0.223 0.10722,0 0.57827,0.23114 1.04675,0.51364 0.46851,0.2825 0.95724,0.51381 1.08606,0.51401 0.53226,0.002 0.96807,1.00484 0.54869,1.26404 -0.0944,0.0584 -0.50747,0.11796 -0.91788,0.13245 -0.64592,0.0228 -0.85973,-0.0501 -1.59068,-0.54204 z m -34.40234,6.52961 c -0.16155,-0.0397 -0.37633,-0.13927 -0.4773,-0.22125 -0.2251,-0.18274 -0.24345,-1.08676 -0.0248,-1.22189 0.0873,-0.054 0.28309,-0.30257 0.43507,-0.55246 0.40319,-0.66301 2.34007,-2.45959 2.5533,-2.45959 0.10028,0 0.41939,-0.23576 0.62478,-0.39731 1.33263,-0.7531 0.68794,-0.80012 1.83295,-1.312 0.19017,-0.22915 0.91191,-0.25079 1.30727,-0.0392 0.28481,0.1524 0.38031,0.58543 0.17393,0.78863 -0.0606,0.0596 -0.17795,0.30606 -0.26081,0.54758 -0.11993,0.34953 -0.32967,0.51145 -1.02803,0.79356 -0.48256,0.19492 -0.96804,0.48823 -1.07886,0.65178 -0.11082,0.16355 -0.32045,0.29737 -0.46586,0.29737 -0.33533,0 -2.17506,1.78227 -2.69086,2.60679 -0.21474,0.34329 -0.43917,0.6165 -0.49874,0.60713 -0.0595,-0.009 -0.24049,-0.0495 -0.40203,-0.0892 z m 43.38747,6.1188 c -0.25305,-0.21948 -0.36073,-0.48539 -0.39227,-0.96865 -0.0363,-0.55642 -0.13962,-0.75853 -0.62729,-1.2271 -0.5733,-0.55082 -1.69094,-2.69264 -2.07639,-3.97918 -0.14878,-0.49658 -0.13623,-0.60965 0.0962,-0.86653 0.2654,-0.29325 0.2719,-0.29066 0.89007,0.3545 0.56681,0.59156 1.47869,1.98073 1.71977,2.61996 0.0532,0.14115 0.33023,0.62158 0.61555,1.06762 0.28532,0.44601 0.51878,0.90071 0.51878,1.01042 0,0.10969 0.0912,0.27512 0.20259,0.36759 0.11143,0.0925 0.24436,0.37703 0.29542,0.63233 0.0755,0.37748 0.0188,0.54146 -0.3035,0.87787 -0.47364,0.49439 -0.49428,0.49683 -0.93897,0.11117 z m -49.45663,6.27766 c -0.62514,-0.66543 -0.35187,-2.66445 0.54179,-3.96334 0.25335,-0.36824 0.46064,-0.76303 0.46064,-0.87732 0,-0.35786 0.51529,-0.69389 1.06408,-0.69389 0.28981,0 0.55285,-0.0778 0.58455,-0.17288 0.0317,-0.0951 0.13656,-0.12407 0.23306,-0.0644 0.24616,0.15213 0.0706,0.77149 -0.43366,1.5297 -0.231,0.34734 -0.42083,0.67777 -0.42186,0.73431 -0.002,0.0566 -0.19671,0.487 -0.43487,0.9566 -0.23816,0.46963 -0.50111,1.22218 -0.58432,1.67235 -0.14331,0.7752 -0.35689,1.21881 -0.5868,1.21881 -0.0568,0 -0.24698,-0.15296 -0.42261,-0.33992 z m 50.42794,8.95428 c -0.20759,-0.15179 -0.24499,-0.29585 -0.16209,-0.62417 0.11467,-0.45414 0.27532,-1.7117 0.52357,-4.09836 0.2293,-2.20468 0.24489,-2.33772 0.29241,-2.49665 0.0242,-0.0807 0.0507,-0.27904 0.0589,-0.44059 0.0104,-0.20386 0.1344,-0.30754 0.40532,-0.33888 0.3276,-0.0379 0.40172,0.0211 0.46117,0.36715 0.15488,0.90148 0.17557,1.37777 0.15196,3.49641 -0.0242,2.17186 -0.25819,3.65649 -0.65082,4.12959 -0.21404,0.2579 -0.73162,0.26053 -1.0804,0.005 z m -52.04753,6.533 c -0.32514,-0.0913 -1.04952,-1.13919 -1.04952,-1.51823 0,-0.0924 -0.0978,-0.2761 -0.21722,-0.40811 -0.31846,-0.35187 -0.38588,-2.29161 -0.12683,-3.64826 0.53688,-2.81163 0.49055,-2.67018 0.87466,-2.67018 0.195,0 0.48282,-0.0801 0.6396,-0.17801 0.15677,-0.0979 0.31905,-0.14402 0.36062,-0.10247 0.22293,0.22295 0.002,1.86551 -0.37395,2.77713 -0.13605,0.33004 -0.20921,1.01338 -0.20447,1.9092 l 0.008,1.39519 0.63929,0.92626 0.6393,0.92625 -0.33706,0.35879 c -0.18539,0.19732 -0.37512,0.35218 -0.42161,0.34413 -0.0465,-0.008 -0.2401,-0.0583 -0.43022,-0.11169 z m 45.30809,7.4946 c -0.28808,-0.31832 -0.31641,-0.61151 -0.0595,-0.61535 0.10097,-0.002 0.51402,-0.40537 0.91789,-0.89748 0.40387,-0.49208 0.94909,-1.14321 1.21161,-1.44693 0.26251,-0.30374 0.4773,-0.6684 0.4773,-0.81039 0,-0.30357 1.1914,-2.2152 1.86179,-2.98728 l 0.46661,-0.53738 0.16861,0.44059 c 0.14093,0.36825 0.11858,0.5616 -0.13617,1.17772 -0.16762,0.40544 -0.30478,0.79573 -0.30478,0.86731 0,0.0716 -0.16522,0.34678 -0.36716,0.61153 -0.20193,0.26475 -0.36715,0.54237 -0.36715,0.61691 0,0.0745 -0.2313,0.43846 -0.51401,0.80872 -0.28271,0.37025 -0.51402,0.7125 -0.51402,0.76054 0,0.27788 -1.47238,1.88823 -1.89042,2.06759 -0.62746,0.2692 -0.65785,0.26741 -0.95062,-0.0561 z m -38.20679,4.56965 c -0.16155,-0.0388 -0.45894,-0.2215 -0.66088,-0.40584 -0.20193,-0.18434 -0.63423,-0.50047 -0.96068,-0.70253 -0.7039,-0.43569 -2.74142,-2.27043 -2.88411,-2.59707 -0.0549,-0.12569 -0.10447,-0.54011 -0.11015,-0.92094 -0.008,-0.54092 0.0519,-0.7257 0.27379,-0.84449 0.45093,-0.24132 0.98055,0.0399 1.08811,0.57761 0.0993,0.49663 1.81089,2.34599 2.56752,2.77422 1.6799,0.95079 2.38691,1.63559 2.07575,2.01051 -0.17119,0.20628 -0.78409,0.25416 -1.38935,0.10853 z m 22.76325,4.65699 c -0.1142,-0.18478 0.15453,-0.43384 0.47244,-0.43785 0.0981,-0.002 0.24903,-0.1342 0.33536,-0.29549 0.20585,-0.38465 1.19362,-0.88165 1.75227,-0.88165 0.44074,0 1.05681,-0.29002 2.05068,-0.96536 0.28845,-0.19602 0.63741,-0.3564 0.77543,-0.3564 0.13804,0 0.29181,-0.0661 0.34174,-0.14686 0.0499,-0.0807 0.34315,-0.14686 0.65162,-0.14686 0.38996,0 0.62227,-0.0875 0.76236,-0.28711 0.15452,-0.22021 0.40687,-0.29722 1.08266,-0.33045 l 0.88117,-0.0434 0.0442,0.4531 c 0.0516,0.52881 -0.0246,0.59656 -1.29255,1.14916 -0.52502,0.22883 -1.06935,0.47409 -1.2096,0.54506 -0.14027,0.071 -0.33854,0.12963 -0.44059,0.13037 -0.10206,0.002 -0.51601,0.1639 -0.91988,0.36257 -0.40387,0.19866 -0.81995,0.36328 -0.92461,0.3658 -0.10467,0.003 -0.49886,0.16885 -0.87597,0.36961 -0.44382,0.23626 -0.73601,0.31467 -0.82839,0.22229 -0.0924,-0.0924 -0.23959,-0.055 -0.41737,0.10588 -0.34554,0.31268 -2.07421,0.45734 -2.24099,0.18751 z m -11.01714,0.93481 c -0.12712,-0.0929 -0.35693,-0.13609 -0.51069,-0.0959 -0.15414,0.0403 -0.48011,-0.0697 -0.72649,-0.24511 -0.2458,-0.17503 -0.5064,-0.28146 -0.57913,-0.23651 -0.13816,0.0854 -1.07207,-0.20517 -1.88912,-0.58774 -0.49964,-0.23397 -0.59516,-0.4737 -0.30454,-0.76433 0.13244,-0.13244 0.11246,-0.23938 -0.0856,-0.45826 -0.24751,-0.27351 -0.24564,-0.29231 0.0445,-0.44761 0.352,-0.18838 0.96064,-0.0716 1.48382,0.28476 0.37163,0.25312 1.78098,0.808 3.19807,1.25909 0.80893,0.25752 1.81388,0.20587 2.19804,-0.11296 0.14521,-0.12053 0.24182,-0.11883 0.3671,0.007 0.0935,0.0935 0.29059,0.17002 0.43799,0.17002 0.15253,0 0.32969,0.16229 0.41121,0.37671 0.18479,0.48606 0.20454,0.43021 -0.26064,0.73726 -0.32453,0.21421 -0.71322,0.26821 -1.97864,0.27485 -0.96845,0.005 -1.66374,-0.0568 -1.80587,-0.16072 z"
         style="fill:#000000;stroke:#000000;stroke-opacity:1"
         id="path3316-2" />
      <path
         inkscape:connector-curvature="0"
         d="m -281.69784,-102.05601 c -0.51847,1.80233 -0.88461,3.635503 -1.50727,5.403823 -0.48206,1.49934 -0.96216,2.99165 -1.615,4.42643 -0.62456,1.34749 -1.29833,2.67146 -1.9524,4.00483 -0.95776,1.89976 -1.56249,3.94783 -2.25849,5.95153 -0.92199,2.4063 -1.74705,4.84813 -2.64265,7.26388 -0.75042,1.8989 -1.63195,3.7364 -2.29006,5.67148 -0.44928,1.47585 -0.85579,2.9642 -1.27822,4.44792 -0.38858,1.78443 -1.06766,3.4751 -1.73832,5.1661 -0.44906,1.29643 -1.08713,2.51132 -1.7235,3.7224 -0.45818,0.78758 -0.69602,1.66571 -0.98311,2.5225 -0.33878,0.95133 -0.64292,1.91265 -0.92311,2.88295 -0.13774,0.59668 -0.24509,1.18501 -0.50166,1.74376 -0.12,0.48119 -0.30174,0.92494 -0.55256,1.3524 -0.21067,0.29874 -0.27625,0.66232 -0.40712,0.99702 -0.15647,0.33088 -0.32666,0.65102 -0.43413,1.00224 -0.11335,0.32686 -0.24912,0.65376 -0.31537,0.99446 0.005,0.2996 -0.0882,0.56456 -0.22819,0.82674 -0.008,0.17093 -0.28866,0.70155 -0.44051,0.95946 -0.24754,0.412 -0.40053,0.7298 -0.90662,0.53252 -0.0935,0.37669 -0.62622,0.24444 -0.53271,-0.13224 l 0,0 c -0.54509,-0.30798 -0.28346,-0.78354 -0.069,-1.26363 0.17086,-0.29352 0.30423,-0.58249 0.39506,-0.9082 0.0133,-0.0247 0.0202,-0.054 0.0398,-0.0741 0.0324,-0.0332 -0.0183,0.1848 -0.014,0.13858 0.0469,-0.50094 -0.0336,0.071 0.0468,-0.44847 0.0923,-0.38787 0.21128,-0.77045 0.3516,-1.14341 0.12855,-0.39389 0.28903,-0.77384 0.48399,-1.13937 0.19567,-0.39117 0.22853,-0.86353 0.5149,-1.21536 0.22583,-0.37981 0.35257,-0.75921 0.47801,-1.18981 0.21735,-0.47456 0.28449,-0.98691 0.42216,-1.48917 0.27579,-1.00026 0.58838,-1.98804 0.93034,-2.96758 0.31675,-0.94611 0.60174,-1.90873 1.10582,-2.77796 0.61752,-1.15389 1.23801,-2.30667 1.65628,-3.55242 0.65906,-1.63004 1.28236,-3.27576 1.66127,-4.99784 0.42018,-1.51728 0.84226,-3.03481 1.31422,-4.53689 0.66952,-1.95147 1.58196,-3.7949 2.35714,-5.70456 0.91799,-2.3906 1.73865,-4.81841 2.64945,-7.21205 0.71069,-2.06959 1.31566,-4.18851 2.30915,-6.14705 0.64055,-1.32279 1.28446,-2.64387 1.91322,-3.97208 0.62704,-1.38536 1.10586,-2.82365 1.54357,-4.27926 0.58202,-1.74461 1.13771,-3.497233 1.54749,-5.293773 0.30699,-1.12697 1.90077,-0.69281 1.59378,0.43416 z"
         id="path5160"
         style="fill:#000000;fill-opacity:1;stroke:#000000;stroke-width:1;stroke-miterlimit:4;stroke-opacity:1;stroke-dasharray:none;stroke-dashoffset:0" />
      <path
         inkscape:connector-curvature="0"
         d="m -282.74221,-102.19387 c -1.86891,2.835503 -4.23538,5.260303 -6.46508,7.799703 -1.12392,1.48934 -2.60697,2.61184 -3.91771,3.91373 -0.0288,0.037 -0.0811,-0.004 -0.0524,-0.0407 l 0,0 c 0.9802,-1.58017 1.62483,-3.35501 2.85392,-4.78714 2.0863,-2.5948 4.58108,-4.851993 6.34416,-7.708403 0.5818,-0.87474 1.81886,-0.0519 1.23706,0.82278 z"
         id="path5168"
         style="fill:#000000;fill-opacity:1;stroke:#000000;stroke-width:1;stroke-miterlimit:4;stroke-opacity:1;stroke-dasharray:none;stroke-dashoffset:0" />
      <path
         inkscape:connector-curvature="0"
         d="m -280.5706,-102.55308 c 0.47539,2.581443 0.48395,5.205333 0.71541,7.808823 0.10465,1.17624 0.34655,2.35491 -0.31312,3.396 0.002,0.0468 -0.0647,0.0491 -0.0663,0.002 l 0,0 c -0.75035,-0.93343 -0.85995,-2.10354 -0.99081,-3.26517 -0.24842,-2.57635 -0.0701,-5.1878 -0.63105,-7.737833 -0.14431,-0.90921 1.14151,-1.11329 1.28582,-0.20408 z"
         id="path5170"
         style="fill:#000000;fill-opacity:1;stroke:#000000;stroke-width:1;stroke-miterlimit:4;stroke-opacity:1;stroke-dasharray:none;stroke-dashoffset:0" />
      <path
         inkscape:connector-curvature="0"
         d="m -357.74414,-99.849387 c 0.29874,0.78048 0.15313,2.08599 0.81142,2.75041 0.0163,0.0164 0.0384,-0.0495 0.0582,-0.0376 0.26375,0.15753 0.44447,0.5054 0.60072,0.73154 0.58278,1.34766 1.22269,2.66302 1.96782,3.9283 1.15157,1.77691 2.15203,3.64398 3.23094,5.46439 1.57166,2.69988 3.18872,5.3716 4.85937,8.01126 1.63877,2.41764 3.10353,4.93321 4.39823,7.54925 1.19738,2.56567 2.25468,5.19383 3.32952,7.81239 1.06027,2.73381 2.2098,5.42843 3.39054,8.1118 0.90596,2.02667 1.82954,4.05419 2.98184,5.95474 0.77706,1.1871 1.57393,2.36103 2.33489,3.5588 0.72013,1.21168 1.32918,2.48723 1.94441,3.75477 0.36872,0.72306 0.82571,1.39633 1.21563,2.10716 -3.16482,1.36968 -0.13401,-0.21891 0.1631,0.21609 0.1448,0.10501 0.37239,1.05632 0.21423,0.59515 -0.43336,-0.46357 -0.15297,-0.28497 -1.21606,0.37587 -0.0216,0.0134 0.0364,0.044 0.0618,0.0449 0.2749,0.009 0.55221,-0.0501 0.82504,-0.0152 0.0788,0.0101 -0.14647,0.0619 -0.2197,0.0928 -0.0207,0.0421 -0.0802,0.0128 -0.0595,-0.0292 l 0,0 c -0.78479,-0.16351 0.99336,-0.50026 0.72202,-0.24054 -1.01051,0.96725 -0.72056,1.08411 -1.26211,0.58181 -0.14587,-0.29297 -0.1674,-0.45765 -0.22079,-0.62585 -0.0358,-0.0535 -0.20816,-0.30462 -0.19107,-0.32044 2.71574,-2.51526 0.38242,0.6891 -0.0292,-0.0417 -0.36037,-0.74204 -0.85031,-1.41701 -1.20711,-2.16168 -0.58324,-1.2277 -1.15441,-2.46498 -1.86083,-3.62847 -0.75611,-1.20938 -1.5786,-2.37557 -2.3345,-3.58515 -1.18221,-1.94685 -2.06468,-4.04709 -3.03606,-6.10309 -1.2354,-2.6748 -2.41698,-5.37225 -3.50608,-8.11045 -1.06563,-2.58819 -2.11232,-5.18617 -3.29328,-7.72462 -1.26867,-2.57498 -2.69526,-5.05822 -4.30564,-7.4372 -1.67044,-2.65385 -3.3095,-5.32667 -4.90336,-8.02737 -1.08437,-1.81924 -2.09216,-3.68443 -3.22127,-5.47657 -0.73651,-1.25045 -1.38522,-2.54481 -1.96369,-3.87617 -0.17334,-0.34592 -0.45585,-0.43613 -0.6846,-0.76523 -0.64417,-0.92679 -0.59975,-2.19795 -0.92059,-3.22862 -0.14586,-0.937433 1.17986,-1.143713 1.32573,-0.20629 z"
         id="path5176"
         style="fill:#000000;fill-opacity:1;stroke:#000000;stroke-width:1;stroke-miterlimit:4;stroke-opacity:1;stroke-dasharray:none;stroke-dashoffset:0" />
      <path
         inkscape:connector-curvature="0"
         d="m -359.0645,-98.051677 c 1.06568,2.59338 1.67118,5.30843 2.26144,8.03432 0.32355,2.04161 1.10375,4.15668 0.8009,6.2457 -0.20723,0.36651 -0.0839,0.22467 -0.33921,0.4505 0.006,0.0465 -0.0597,0.055 -0.0657,0.009 l 0,0 c -0.30305,-0.18451 -0.15509,-0.0607 -0.41613,-0.40215 -0.57434,-1.95691 -0.61962,-4.06287 -1.27478,-6.00819 -0.61506,-2.65548 -1.06187,-5.35651 -2.16648,-7.87416 -0.32141,-0.84853 0.87859,-1.30307 1.2,-0.45454 z"
         id="path5182"
         style="fill:#000000;fill-opacity:1;stroke:#000000;stroke-width:1;stroke-miterlimit:4;stroke-opacity:1;stroke-dasharray:none;stroke-dashoffset:0" />
      <path
         inkscape:connector-curvature="0"
         d="m -358.03209,-98.947387 c 1.20045,0.59933 2.51622,1.0258 3.61547,1.818 0.34558,0.24905 0.60599,0.55289 0.96505,0.78571 1.27083,0.707 2.66479,1.14226 3.99533,1.71897 0.83142,0.34712 1.49598,0.90771 2.15697,1.5005 0.0442,0.0156 0.0221,0.0781 -0.0221,0.0625 l 0,0 c -0.89581,0.0536 -1.76677,0.0705 -2.64019,-0.18944 -1.51886,-0.44094 -3.02196,-0.96759 -4.40563,-1.7447 -0.37945,-0.26089 -0.62297,-0.52197 -0.95975,-0.80692 -0.95849,-0.81098 -2.20348,-1.19138 -3.3126,-1.72907 -1.00093,-0.42955 -0.39347,-1.84508 0.60747,-1.41554 z"
         id="path5186"
         style="fill:#000000;fill-opacity:1;stroke:#000000;stroke-width:1;stroke-miterlimit:4;stroke-opacity:1;stroke-dasharray:none;stroke-dashoffset:0" />
    </g>
    <g
       transform="translate(730.60701,589.33696)"
       id="g4411">
      <path
         sodipodi:nodetypes="ccscscscsccccccsscccccsscccscccccsccccccsscccccccscsccscsccccsssccscccscccssccsssccccscsscccccccccccccccsscscscscscccccsccccscccccscscsccccccccccscccccccccccccccsssccc"
         inkscape:connector-curvature="0"
         d="m -215.09488,-252.74228 c -0.47222,-0.13195 -0.52372,-0.34767 -0.16132,-0.67566 0.16352,-0.14798 0.2973,-0.34557 0.2973,-0.4391 0,-0.0935 0.18174,-0.33245 0.40387,-0.53094 1.32249,-1.1817 2.28581,-1.42783 4.31491,-1.10245 0.75679,0.12135 1.75671,0.25553 2.22205,0.29816 0.9286,0.0851 1.42975,0.34012 1.7147,0.87254 0.23053,0.43073 -0.0129,1.01061 -0.36714,0.87466 -0.12901,-0.0495 -0.31049,0.0304 -0.42508,0.18711 -0.1898,0.25956 -0.21425,0.26056 -0.4804,0.0197 -0.36958,-0.33445 -2.60339,-0.7297 -4.02268,-0.71177 -1.1757,0.0148 -2.08787,0.3672 -2.69904,1.04254 -0.14638,0.16174 -0.30545,0.28747 -0.35352,0.27942 -0.048,-0.008 -0.24769,-0.0594 -0.44365,-0.11421 z m 20.36617,2.45153 c -0.46445,-0.31263 -0.84445,-0.63268 -0.84445,-0.71124 0,-0.0785 -0.0731,-0.14283 -0.16245,-0.14283 -0.0893,0 -0.28042,-0.14998 -0.42462,-0.33331 -0.23544,-0.29929 -0.98823,-0.54153 -2.26099,-0.72753 -0.47341,-0.0692 -0.63259,-0.49132 -0.31682,-0.84022 0.22386,-0.24736 0.41088,-0.29301 1.02184,-0.24945 0.41132,0.0293 0.88003,0.10272 1.04157,0.16305 0.74152,0.27697 1.22277,0.53139 1.39294,0.73643 0.10179,0.12265 0.27282,0.223 0.38004,0.223 0.10722,0 0.57827,0.23114 1.04675,0.51364 0.46851,0.2825 0.95724,0.51381 1.08606,0.51401 0.53226,0.002 0.96807,1.00484 0.54869,1.26404 -0.0944,0.0584 -0.50747,0.11796 -0.91788,0.13245 -0.64592,0.0228 -0.85973,-0.0501 -1.59068,-0.54204 z m -34.40234,6.52961 c -0.16155,-0.0397 -0.37633,-0.13927 -0.4773,-0.22125 -0.2251,-0.18274 -0.24345,-1.08676 -0.0248,-1.22189 0.0873,-0.054 0.28309,-0.30257 0.43507,-0.55246 0.40319,-0.66301 2.34007,-2.45959 2.5533,-2.45959 0.10028,0 0.41939,-0.23576 0.62478,-0.39731 1.33263,-0.7531 0.68794,-0.80012 1.83295,-1.312 0.19017,-0.22915 0.91191,-0.25079 1.30727,-0.0392 0.28481,0.1524 0.38031,0.58543 0.17393,0.78863 -0.0606,0.0596 -0.17795,0.30606 -0.26081,0.54758 -0.11993,0.34953 -0.32967,0.51145 -1.02803,0.79356 -0.48256,0.19492 -0.96804,0.48823 -1.07886,0.65178 -0.11082,0.16355 -0.32045,0.29737 -0.46586,0.29737 -0.33533,0 -2.17506,1.78227 -2.69086,2.60679 -0.21474,0.34329 -0.43917,0.6165 -0.49874,0.60713 -0.0595,-0.009 -0.24049,-0.0495 -0.40203,-0.0892 z m 43.38747,6.1188 c -0.25305,-0.21948 -0.36073,-0.48539 -0.39227,-0.96865 -0.0363,-0.55642 -0.13962,-0.75853 -0.62729,-1.2271 -0.5733,-0.55082 -1.69094,-2.69264 -2.07639,-3.97918 -0.14878,-0.49658 -0.13623,-0.60965 0.0962,-0.86653 0.2654,-0.29325 0.2719,-0.29066 0.89007,0.3545 0.56681,0.59156 1.47869,1.98073 1.71977,2.61996 0.0532,0.14115 0.33023,0.62158 0.61555,1.06762 0.28532,0.44601 0.51878,0.90071 0.51878,1.01042 0,0.10969 0.0912,0.27512 0.20259,0.36759 0.11143,0.0925 0.24436,0.37703 0.29542,0.63233 0.0755,0.37748 0.0188,0.54146 -0.3035,0.87787 -0.47364,0.49439 -0.49428,0.49683 -0.93897,0.11117 z m -49.45663,6.27766 c -0.62514,-0.66543 -0.35187,-2.66445 0.54179,-3.96334 0.25335,-0.36824 0.46064,-0.76303 0.46064,-0.87732 0,-0.35786 0.51529,-0.69389 1.06408,-0.69389 0.28981,0 0.55285,-0.0778 0.58455,-0.17288 0.0317,-0.0951 0.13656,-0.12407 0.23306,-0.0644 0.24616,0.15213 0.0706,0.77149 -0.43366,1.5297 -0.231,0.34734 -0.42083,0.67777 -0.42186,0.73431 -0.002,0.0566 -0.19671,0.487 -0.43487,0.9566 -0.23816,0.46963 -0.50111,1.22218 -0.58432,1.67235 -0.14331,0.7752 -0.35689,1.21881 -0.5868,1.21881 -0.0568,0 -0.24698,-0.15296 -0.42261,-0.33992 z m 50.42794,8.95428 c -0.20759,-0.15179 -0.24499,-0.29585 -0.16209,-0.62417 0.11467,-0.45414 0.27532,-1.7117 0.52357,-4.09836 0.2293,-2.20468 0.24489,-2.33772 0.29241,-2.49665 0.0242,-0.0807 0.0507,-0.27904 0.0589,-0.44059 0.0104,-0.20386 0.1344,-0.30754 0.40532,-0.33888 0.3276,-0.0379 0.40172,0.0211 0.46117,0.36715 0.15488,0.90148 0.17557,1.37777 0.15196,3.49641 -0.0242,2.17186 -0.25819,3.65649 -0.65082,4.12959 -0.21404,0.2579 -0.73162,0.26053 -1.0804,0.005 z m -52.04753,6.533 c -0.32514,-0.0913 -1.04952,-1.13919 -1.04952,-1.51823 0,-0.0924 -0.0978,-0.2761 -0.21722,-0.40811 -0.31846,-0.35187 -0.38588,-2.29161 -0.12683,-3.64826 0.53688,-2.81163 0.49055,-2.67018 0.87466,-2.67018 0.195,0 0.48282,-0.0801 0.6396,-0.17801 0.15677,-0.0979 0.31905,-0.14402 0.36062,-0.10247 0.22293,0.22295 0.002,1.86551 -0.37395,2.77713 -0.13605,0.33004 -0.20921,1.01338 -0.20447,1.9092 l 0.008,1.39519 0.63929,0.92626 0.6393,0.92625 -0.33706,0.35879 c -0.18539,0.19732 -0.37512,0.35218 -0.42161,0.34413 -0.0465,-0.008 -0.2401,-0.0583 -0.43022,-0.11169 z m 45.30809,7.4946 c -0.28808,-0.31832 -0.31641,-0.61151 -0.0595,-0.61535 0.10097,-0.002 0.51402,-0.40537 0.91789,-0.89748 0.40387,-0.49208 0.94909,-1.14321 1.21161,-1.44693 0.26251,-0.30374 0.4773,-0.6684 0.4773,-0.81039 0,-0.30357 1.1914,-2.2152 1.86179,-2.98728 l 0.46661,-0.53738 0.16861,0.44059 c 0.14093,0.36825 0.11858,0.5616 -0.13617,1.17772 -0.16762,0.40544 -0.30478,0.79573 -0.30478,0.86731 0,0.0716 -0.16522,0.34678 -0.36716,0.61153 -0.20193,0.26475 -0.36715,0.54237 -0.36715,0.61691 0,0.0745 -0.2313,0.43846 -0.51401,0.80872 -0.28271,0.37025 -0.51402,0.7125 -0.51402,0.76054 0,0.27788 -1.47238,1.88823 -1.89042,2.06759 -0.62746,0.2692 -0.65785,0.26741 -0.95062,-0.0561 z m -38.20679,4.56965 c -0.16155,-0.0388 -0.45894,-0.2215 -0.66088,-0.40584 -0.20193,-0.18434 -0.63423,-0.50047 -0.96068,-0.70253 -0.7039,-0.43569 -2.74142,-2.27043 -2.88411,-2.59707 -0.0549,-0.12569 -0.10447,-0.54011 -0.11015,-0.92094 -0.008,-0.54092 0.0519,-0.7257 0.27379,-0.84449 0.45093,-0.24132 0.98055,0.0399 1.08811,0.57761 0.0993,0.49663 1.81089,2.34599 2.56752,2.77422 1.6799,0.95079 2.38691,1.63559 2.07575,2.01051 -0.17119,0.20628 -0.78409,0.25416 -1.38935,0.10853 z m 22.76325,4.65699 c -0.1142,-0.18478 0.15453,-0.43384 0.47244,-0.43785 0.0981,-0.002 0.24903,-0.1342 0.33536,-0.29549 0.20585,-0.38465 1.19362,-0.88165 1.75227,-0.88165 0.44074,0 1.05681,-0.29002 2.05068,-0.96536 0.28845,-0.19602 0.63741,-0.3564 0.77543,-0.3564 0.13804,0 0.29181,-0.0661 0.34174,-0.14686 0.0499,-0.0807 0.34315,-0.14686 0.65162,-0.14686 0.38996,0 0.62227,-0.0875 0.76236,-0.28711 0.15452,-0.22021 0.40687,-0.29722 1.08266,-0.33045 l 0.88117,-0.0434 0.0442,0.4531 c 0.0516,0.52881 -0.0246,0.59656 -1.29255,1.14916 -0.52502,0.22883 -1.06935,0.47409 -1.2096,0.54506 -0.14027,0.071 -0.33854,0.12963 -0.44059,0.13037 -0.10206,0.002 -0.51601,0.1639 -0.91988,0.36257 -0.40387,0.19866 -0.81995,0.36328 -0.92461,0.3658 -0.10467,0.003 -0.49886,0.16885 -0.87597,0.36961 -0.44382,0.23626 -0.73601,0.31467 -0.82839,0.22229 -0.0924,-0.0924 -0.23959,-0.055 -0.41737,0.10588 -0.34554,0.31268 -2.07421,0.45734 -2.24099,0.18751 z m -11.01714,0.93481 c -0.12712,-0.0929 -0.35693,-0.13609 -0.51069,-0.0959 -0.15414,0.0403 -0.48011,-0.0697 -0.72649,-0.24511 -0.2458,-0.17503 -0.5064,-0.28146 -0.57913,-0.23651 -0.13816,0.0854 -1.07207,-0.20517 -1.88912,-0.58774 -0.49964,-0.23397 -0.59516,-0.4737 -0.30454,-0.76433 0.13244,-0.13244 0.11246,-0.23938 -0.0856,-0.45826 -0.24751,-0.27351 -0.24564,-0.29231 0.0445,-0.44761 0.352,-0.18838 0.96064,-0.0716 1.48382,0.28476 0.37163,0.25312 1.78098,0.808 3.19807,1.25909 0.80893,0.25752 1.81388,0.20587 2.19804,-0.11296 0.14521,-0.12053 0.24182,-0.11883 0.3671,0.007 0.0935,0.0935 0.29059,0.17002 0.43799,0.17002 0.15253,0 0.32969,0.16229 0.41121,0.37671 0.18479,0.48606 0.20454,0.43021 -0.26064,0.73726 -0.32453,0.21421 -0.71322,0.26821 -1.97864,0.27485 -0.96845,0.005 -1.66374,-0.0568 -1.80587,-0.16072 z"
         style="fill:#000000;stroke:#000000;stroke-opacity:1"
         id="path3316-1-2" />
      <path
         sodipodi:nodetypes="ccscscscsccccccsscccccsscccscccccsccccccsscccccccscsccscsccccsssccscccscccssccsssccccscsscccccccccccccccsscscscscscccccsccccscccccscscsccccccccccscccccccccccccccsssccc"
         inkscape:connector-curvature="0"
         d="m -118.1884,-257.04623 c -0.47222,-0.13195 -0.52372,-0.34767 -0.16132,-0.67566 0.16352,-0.14798 0.2973,-0.34557 0.2973,-0.4391 0,-0.0935 0.18174,-0.33245 0.40387,-0.53094 1.32249,-1.1817 2.28581,-1.42783 4.31491,-1.10245 0.75679,0.12135 1.75671,0.25553 2.22205,0.29816 0.9286,0.0851 1.42975,0.34012 1.7147,0.87254 0.23053,0.43073 -0.0129,1.01061 -0.36714,0.87466 -0.12901,-0.0495 -0.31049,0.0304 -0.42508,0.18711 -0.1898,0.25956 -0.21425,0.26056 -0.4804,0.0197 -0.36958,-0.33445 -2.60339,-0.7297 -4.02268,-0.71177 -1.1757,0.0148 -2.08787,0.3672 -2.69904,1.04254 -0.14638,0.16174 -0.30545,0.28747 -0.35352,0.27942 -0.048,-0.008 -0.24769,-0.0594 -0.44365,-0.11421 z m 20.366168,2.45153 c -0.46445,-0.31263 -0.84445,-0.63268 -0.84445,-0.71124 0,-0.0785 -0.0731,-0.14283 -0.16245,-0.14283 -0.0893,0 -0.28042,-0.14998 -0.42462,-0.33331 -0.23544,-0.29929 -0.988228,-0.54153 -2.260988,-0.72753 -0.47341,-0.0692 -0.63259,-0.49132 -0.31682,-0.84022 0.22386,-0.24736 0.41088,-0.29301 1.02184,-0.24945 0.41132,0.0293 0.880028,0.10272 1.041568,0.16305 0.74152,0.27697 1.22277,0.53139 1.39294,0.73643 0.10179,0.12265 0.27282,0.223 0.38004,0.223 0.10722,0 0.57827,0.23114 1.04675,0.51364 0.46851,0.2825 0.95724,0.51381 1.08606,0.51401 0.53226,0.002 0.96807,1.00484 0.54869,1.26404 -0.0944,0.0584 -0.50747,0.11796 -0.91788,0.13245 -0.64592,0.0228 -0.85973,-0.0501 -1.59068,-0.54204 z m -34.402338,6.52961 c -0.16155,-0.0397 -0.37633,-0.13927 -0.4773,-0.22125 -0.2251,-0.18274 -0.24345,-1.08676 -0.0248,-1.22189 0.0873,-0.054 0.28309,-0.30257 0.43507,-0.55246 0.40319,-0.66301 2.34007,-2.45959 2.5533,-2.45959 0.10028,0 0.41939,-0.23576 0.62478,-0.39731 1.33263,-0.7531 0.68794,-0.80012 1.83295,-1.312 0.19017,-0.22915 0.91191,-0.25079 1.30727,-0.0392 0.28481,0.1524 0.38031,0.58543 0.17393,0.78863 -0.0606,0.0596 -0.17795,0.30606 -0.26081,0.54758 -0.11993,0.34953 -0.32967,0.51145 -1.02803,0.79356 -0.48256,0.19492 -0.96804,0.48823 -1.07886,0.65178 -0.11082,0.16355 -0.32045,0.29737 -0.46586,0.29737 -0.33533,0 -2.17506,1.78227 -2.69086,2.60679 -0.21474,0.34329 -0.43917,0.6165 -0.49874,0.60713 -0.0595,-0.009 -0.24049,-0.0495 -0.40203,-0.0892 z m 43.387468,6.1188 c -0.25305,-0.21948 -0.36073,-0.48539 -0.39227,-0.96865 -0.0363,-0.55642 -0.13962,-0.75853 -0.62729,-1.2271 -0.5733,-0.55082 -1.69094,-2.69264 -2.07639,-3.97918 -0.14878,-0.49658 -0.13623,-0.60965 0.0962,-0.86653 0.2654,-0.29325 0.2719,-0.29066 0.89007,0.3545 0.56681,0.59156 1.47869,1.98073 1.71977,2.61996 0.0532,0.14115 0.33023,0.62158 0.61555,1.06762 0.28532,0.44601 0.51878,0.90071 0.51878,1.01042 0,0.10969 0.0912,0.27512 0.20259,0.36759 0.11143,0.0925 0.24436,0.37703 0.29542,0.63233 0.0755,0.37748 0.0188,0.54146 -0.3035,0.87787 -0.47364,0.49439 -0.49428,0.49683 -0.93897,0.11117 z m -49.456628,6.27766 c -0.62514,-0.66543 -0.35187,-2.66445 0.54179,-3.96334 0.25335,-0.36824 0.46064,-0.76303 0.46064,-0.87732 0,-0.35786 0.51529,-0.69389 1.06408,-0.69389 0.28981,0 0.55285,-0.0778 0.58455,-0.17288 0.0317,-0.0951 0.13656,-0.12407 0.23306,-0.0644 0.24616,0.15213 0.0706,0.77149 -0.43366,1.5297 -0.231,0.34734 -0.42083,0.67777 -0.42186,0.73431 -0.002,0.0566 -0.19671,0.487 -0.43487,0.9566 -0.23816,0.46963 -0.50111,1.22218 -0.58432,1.67235 -0.14331,0.7752 -0.35689,1.21881 -0.5868,1.21881 -0.0568,0 -0.24698,-0.15296 -0.42261,-0.33992 z m 50.427938,8.95428 c -0.20759,-0.15179 -0.24499,-0.29585 -0.16209,-0.62417 0.11467,-0.45414 0.27532,-1.7117 0.52357,-4.09836 0.2293,-2.20468 0.24489,-2.33772 0.29241,-2.49665 0.0242,-0.0807 0.0507,-0.27904 0.0589,-0.44059 0.0104,-0.20386 0.1344,-0.30754 0.40532,-0.33888 0.3276,-0.0379 0.40172,0.0211 0.46117,0.36715 0.15488,0.90148 0.17557,1.37777 0.15196,3.49641 -0.0242,2.17186 -0.25819,3.65649 -0.65082,4.12959 -0.21404,0.2579 -0.73162,0.26053 -1.0804,0.005 z m -52.047528,6.533 c -0.32514,-0.0913 -1.04952,-1.13919 -1.04952,-1.51823 0,-0.0924 -0.0978,-0.2761 -0.21722,-0.40811 -0.31846,-0.35187 -0.38588,-2.29161 -0.12683,-3.64826 0.53688,-2.81163 0.49055,-2.67018 0.87466,-2.67018 0.195,0 0.48282,-0.0801 0.6396,-0.17801 0.15677,-0.0979 0.31905,-0.14402 0.36062,-0.10247 0.22293,0.22295 0.002,1.86551 -0.37395,2.77713 -0.13605,0.33004 -0.20921,1.01338 -0.20447,1.9092 l 0.008,1.39519 0.63929,0.92626 0.6393,0.92625 -0.33706,0.35879 c -0.18539,0.19732 -0.37512,0.35218 -0.42161,0.34413 -0.0465,-0.008 -0.2401,-0.0583 -0.43022,-0.11169 z m 45.308088,7.49461 c -0.28808,-0.31832 -0.31641,-0.61151 -0.0595,-0.61535 0.10097,-0.002 0.51402,-0.40537 0.91789,-0.89748 0.40387,-0.49208 0.94909,-1.14321 1.21161,-1.44693 0.26251,-0.30375 0.4773,-0.66841 0.4773,-0.8104 0,-0.30357 1.1914,-2.2152 1.86179,-2.98728 l 0.46661,-0.53738 0.16861,0.44059 c 0.14093,0.36825 0.11858,0.5616 -0.13617,1.17772 -0.16762,0.40544 -0.30478,0.79573 -0.30478,0.86731 0,0.0716 -0.16522,0.34678 -0.36716,0.61153 -0.20193,0.26475 -0.36715,0.54237 -0.36715,0.61691 0,0.0745 -0.2313,0.43846 -0.51401,0.80873 -0.28271,0.37025 -0.51402,0.7125 -0.51402,0.76054 0,0.27788 -1.47238,1.88823 -1.89042,2.06759 -0.62746,0.2692 -0.65785,0.26741 -0.95062,-0.0561 z m -38.206788,4.56965 c -0.16155,-0.0388 -0.45894,-0.2215 -0.66088,-0.40584 -0.20193,-0.18434 -0.63423,-0.50047 -0.96068,-0.70253 -0.7039,-0.43569 -2.74142,-2.27043 -2.88411,-2.59707 -0.0549,-0.12569 -0.10447,-0.54011 -0.11015,-0.92094 -0.008,-0.54092 0.0519,-0.7257 0.27379,-0.84449 0.45093,-0.24132 0.98055,0.0399 1.08811,0.57761 0.0993,0.49663 1.81089,2.34599 2.56752,2.77422 1.6799,0.95079 2.38691,1.63559 2.07575,2.01051 -0.17119,0.20628 -0.78409,0.25416 -1.38935,0.10853 z m 22.76325,4.65699 c -0.1142,-0.18478 0.15453,-0.43384 0.47244,-0.43785 0.0981,-0.002 0.24903,-0.1342 0.33536,-0.29549 0.20585,-0.38465 1.19362,-0.88165 1.75227,-0.88165 0.44074,0 1.05681,-0.29002 2.05068,-0.96536 0.28845,-0.19602 0.63741,-0.3564 0.77543,-0.3564 0.13804,0 0.29181,-0.0661 0.34174,-0.14686 0.0499,-0.0807 0.34315,-0.14686 0.65162,-0.14686 0.38996,0 0.62227,-0.0875 0.76236,-0.28711 0.15452,-0.22021 0.40687,-0.29722 1.08266,-0.33045 l 0.88117,-0.0434 0.0442,0.4531 c 0.0516,0.52881 -0.0246,0.59656 -1.29255,1.14916 -0.52502,0.22883 -1.06935,0.47409 -1.2096,0.54506 -0.14027,0.071 -0.33854,0.12963 -0.44059,0.13037 -0.10206,0.002 -0.51601,0.1639 -0.91988,0.36257 -0.40387,0.19866 -0.81995,0.36328 -0.92461,0.3658 -0.10467,0.003 -0.49886,0.16885 -0.87597,0.36961 -0.44382,0.23626 -0.73601,0.31467 -0.82839,0.22229 -0.0924,-0.0924 -0.23959,-0.055 -0.41737,0.10588 -0.34554,0.31268 -2.07421,0.45734 -2.24099,0.18751 z m -11.01714,0.93481 c -0.12712,-0.0929 -0.35693,-0.13609 -0.51069,-0.0959 -0.15414,0.0403 -0.48011,-0.0697 -0.72649,-0.24511 -0.2458,-0.17503 -0.5064,-0.28146 -0.57913,-0.23651 -0.13816,0.0854 -1.07207,-0.20517 -1.88912,-0.58774 -0.49964,-0.23397 -0.59516,-0.4737 -0.30454,-0.76433 0.13244,-0.13244 0.11246,-0.23938 -0.0856,-0.45826 -0.24751,-0.27351 -0.24564,-0.29231 0.0445,-0.44761 0.352,-0.18838 0.96064,-0.0716 1.48382,0.28476 0.37163,0.25312 1.78098,0.808 3.19807,1.25909 0.80893,0.25752 1.81388,0.20587 2.19804,-0.11296 0.14521,-0.12053 0.24182,-0.11883 0.3671,0.007 0.0935,0.0935 0.29059,0.17002 0.43799,0.17002 0.15253,0 0.32969,0.16229 0.41121,0.37671 0.18479,0.48606 0.20454,0.43021 -0.26064,0.73726 -0.32453,0.21421 -0.71322,0.26821 -1.97864,0.27485 -0.96845,0.005 -1.66374,-0.0568 -1.80587,-0.16072 z"
         style="fill:#000000;stroke:#000000;stroke-opacity:1"
         id="path3316-2-9" />
      <path
         inkscape:connector-curvature="0"
         id="path3304-9-8"
         d="m -155.46409,-89.287813 c 9.71032,-0.67241 18.89458,-7.16025 22.8523,-16.001507 2.65782,-7.36665 4.98914,-15.84407 1.16764,-23.26996 -2.92226,-6.56226 -9.69688,-9.85234 -16.25394,-11.64096 -5.14736,-1.83139 -10.8802,-2.7992 -16.1191,-0.71183 -5.83729,2.46852 -10.93569,6.77178 -14.53433,11.98574 -5.35607,7.8616 -7.42797,19.19403 -1.84837,27.4785 3.68573,5.312807 9.0998,9.378887 15.3506,11.124217 3.00131,0.91349 6.25225,1.58393 9.3852,1.0358 z m -4.92022,2.22044 c -9.86581,-1.78117 -19.82736,-7.46674 -23.59976,-17.192627 -4.58585,-12.60109 1.94154,-26.94678 12.61539,-34.25568 5.61492,-4.11002 12.7661,-6.49964 19.70105,-4.84055 5.40503,1.14035 10.69157,3.18692 15.42451,6.00461 6.37309,5.01816 10.21239,13.36809 8.79912,21.50316 -1.10696,8.21638 -4.57707,16.422147 -11.2491,21.646057 -5.9451,5.14979 -13.84331,7.8031 -21.69121,7.13503 z"
         style="fill:#000000" />
      <path
         inkscape:connector-curvature="0"
         d="m -144.74741,-142.39725 c 0.45626,-1.03864 0.58874,-2.23118 1.12888,-3.2393 0.17972,-0.33544 0.46948,-0.59328 0.66558,-0.91908 0.64866,-1.39542 1.37176,-2.75392 2.01041,-4.15415 1.00279,-2.44526 1.77372,-4.97762 2.65297,-7.46889 1.17664,-3.20111 2.65365,-6.28096 4.1654,-9.33442 1.55284,-3.00559 3.36122,-5.86825 5.02099,-8.81462 1.40458,-2.46142 2.80138,-4.92651 4.09896,-7.44631 1.14698,-2.31833 2.2399,-4.66313 3.33651,-7.00566 0.8632,-1.90127 1.74506,-3.79135 2.8183,-5.58437 0.63051,-0.96949 1.2663,-1.91889 1.71444,-2.9876 0.29569,-0.65394 0.62361,-1.27147 0.80393,-1.9689 0.15947,-0.79532 0.46909,-1.54625 0.79576,-2.28472 0.1927,-0.42349 0.67365,-0.83275 1.13343,-0.52872 0.138,0.21451 0.0958,0.10807 0.14704,0.31039 0.0459,0.009 0.0328,0.0743 -0.0132,0.065 l 0,0 c -0.0501,0.1776 -0.0257,0.0804 -0.0699,0.29247 5.2e-4,0.36152 0.47681,-0.0995 0.17836,0.45157 -0.29212,0.66618 -0.56212,1.34597 -0.69234,2.06516 -0.20051,0.77217 -0.51355,1.48032 -0.8511,2.20051 -0.49634,1.12001 -1.14886,2.13855 -1.84391,3.14593 -1.04685,1.74856 -1.90733,3.5903 -2.72509,5.45573 -1.092,2.36716 -2.17157,4.74126 -3.34575,7.06918 -1.30618,2.54091 -2.70647,5.03011 -4.13578,7.50366 -1.68418,2.9019 -3.49868,5.72898 -5.06469,8.69798 -1.5086,2.99026 -2.98338,6.00692 -4.12383,9.16084 -0.89531,2.53134 -1.65229,5.11374 -2.6759,7.59745 -0.66882,1.45382 -1.43425,2.85815 -2.12686,4.30019 -0.17112,0.26765 -0.43456,0.50393 -0.59785,0.75659 -0.58871,0.91093 -0.71951,2.06259 -1.11325,3.04817 -0.27156,0.91326 -1.56311,0.52922 -1.29155,-0.38405 z"
         id="path5231"
         style="fill:#000000;fill-opacity:1;stroke:#000000;stroke-width:1;stroke-miterlimit:4;stroke-opacity:1;stroke-dasharray:none;stroke-dashoffset:0" />
      <path
         inkscape:connector-curvature="0"
         d="m -115.73293,-200.908 c -1.81255,2.01312 -3.31097,4.27352 -5.0039,6.3805 -1.17259,1.31476 -2.19733,2.75475 -3.37002,4.0681 -0.28462,0.31197 -0.60176,0.57638 -0.99865,0.72417 0.001,0.0469 -0.0649,0.0488 -0.0663,0.002 l 0,0 c -0.34544,-0.44894 -0.14284,-0.95968 0.0832,-1.42955 0.92004,-1.52795 2.16732,-2.81589 3.28038,-4.20125 1.6911,-2.12139 3.32263,-4.29011 5.07088,-6.36645 0.58164,-0.71019 1.58599,0.11237 1.00435,0.82256 z"
         id="path5233"
         style="fill:#000000;fill-opacity:1;stroke:#000000;stroke-width:1;stroke-miterlimit:4;stroke-opacity:1;stroke-dasharray:none;stroke-dashoffset:0" />
      <path
         inkscape:connector-curvature="0"
         d="m -113.93467,-201.59611 c -0.91753,2.54416 -0.91665,5.17463 -0.97732,7.82537 0.033,1.58446 -0.22708,3.1121 -0.66735,4.6226 0.001,0.0469 -0.0651,0.0485 -0.0663,0.002 l 0,0 c -0.50309,-1.5146 -0.59617,-3.04907 -0.46235,-4.64326 0.021,-1.0604 -0.0237,-2.13457 0.082,-3.19133 0.16686,-1.66832 0.59363,-3.29451 1.00189,-4.91551 0.21249,-0.77031 1.30187,-0.46981 1.08938,0.3005 z"
         id="path5235"
         style="fill:#000000;fill-opacity:1;stroke:#000000;stroke-width:1;stroke-miterlimit:4;stroke-opacity:1;stroke-dasharray:none;stroke-dashoffset:0" />
      <path
         inkscape:connector-curvature="0"
         d="m -175.58544,-137.62948 c 0.0467,-0.0828 -1.63355,-2.36875 -1.56774,-2.49732 0.16385,-0.32007 0.70952,-0.40782 0.762,-0.76354 0.0444,-0.30111 -0.48024,0.48178 -0.78428,0.46764 -0.49464,-0.82938 -0.79448,-1.74734 -1.10047,-2.65724 -0.40656,-1.2344 -0.8204,-2.46535 -1.27433,-3.68338 -0.40096,-1.10802 -0.93778,-2.15734 -1.42479,-3.22816 -0.50096,-1.21865 -1.09413,-2.39559 -1.63447,-3.59661 -0.60876,-1.29391 -1.15298,-2.61135 -1.61646,-3.96381 -0.44194,-1.3391 -0.92433,-2.66439 -1.38436,-3.9973 -0.3806,-1.25151 -0.82854,-2.47916 -1.27634,-3.70779 -0.42605,-1.253 -0.93642,-2.4763 -1.33403,-3.7386 -0.25764,-0.9558 -0.53333,-1.90295 -0.86995,-2.83393 -0.35046,-0.81 -0.56303,-1.66718 -0.8363,-2.50382 -0.33933,-1.0093 -0.60993,-2.03985 -0.92828,-3.05612 -0.27543,-1.02884 -0.46137,-2.07373 -0.73809,-3.1026 -0.23505,-0.73063 -0.31682,-1.49385 -0.5483,-2.22551 -0.32615,-0.80615 -0.65755,-1.6107 -0.98551,-2.41656 -0.30427,-0.73278 -0.73688,-1.39548 -0.98866,-2.14975 -0.26204,-0.76159 -0.41637,-1.55154 -0.51639,-2.34882 -0.0282,-0.52433 -0.18822,-1.01427 -0.33767,-1.51147 -0.15538,-0.48382 -0.36027,-0.92466 -0.64031,-1.34613 -0.33258,-0.54166 -0.46706,-1.18421 -0.65723,-1.78721 -0.17279,-0.49894 -0.24664,-1.03163 -0.47422,-1.51094 -0.15964,-0.36946 -0.36149,-0.71663 -0.55577,-1.06842 -0.13356,-0.34099 -0.26604,-0.68438 -0.38796,-1.0303 -0.14725,-0.48601 -0.15577,-0.99591 -0.25952,-1.49092 3.77851,0.45017 -0.10334,-0.22202 0.60733,-0.25013 0.0134,-0.0449 0.077,-0.0259 0.0635,0.019 l 0,0 c 0.26818,0.22918 0.34642,0.258 -0.72434,0.1539 -0.37274,-0.0362 1.31558,-1.0401 1.34439,-0.17419 0.0768,0.4356 0.10477,0.87809 0.20603,1.3086 0.0961,0.28075 0.22581,0.54968 0.3063,0.8355 0.2064,0.38632 0.41013,0.77335 0.58847,1.17333 0.22312,0.53245 0.33461,1.09822 0.50529,1.6483 0.15377,0.49094 0.26975,1.01381 0.51674,1.46395 0.34532,0.52864 0.59419,1.09009 0.77922,1.69451 0.16199,0.56569 0.33316,1.12748 0.35773,1.72127 0.0792,0.71953 0.21973,1.42665 0.45437,2.11337 0.23008,0.72972 0.69977,1.35271 0.96196,2.07133 0.33364,0.83527 0.67103,1.66929 0.99437,2.50826 0.24209,0.74909 0.33819,1.5246 0.5511,2.28122 0.27658,1.0133 0.45321,2.04282 0.71923,3.05806 0.32094,1.01421 0.59397,2.04285 0.93281,3.05072 0.25785,0.83011 0.47913,1.6718 0.80023,2.48054 0.32231,0.95067 0.56502,1.92226 0.83414,2.88879 0.38121,1.24892 0.89987,2.45035 1.31336,3.68883 0.44907,1.23425 0.89496,2.46877 1.27104,3.72767 0.46455,1.33224 0.93671,2.66195 1.38727,3.99899 0.45675,1.32011 1.02964,2.5881 1.62583,3.85058 0.53651,1.19794 1.13249,2.36873 1.63288,3.58287 0.51332,1.0905 1.05864,2.16819 1.47358,3.30178 0.46351,1.22844 0.88257,2.47172 1.30108,3.71588 0.29059,0.85952 0.58357,1.72141 1.03193,2.51436 0.0652,0.17495 0.26935,0.35339 0.1955,0.52486 -0.13139,0.30507 -0.43683,0.86574 -0.71879,0.69015 -0.27332,-0.1702 0.29722,-0.58316 0.52473,-0.811 0.057,-0.0571 0.0142,0.16401 0.0484,0.23702 0.31239,0.6663 0.92569,1.59701 1.27843,2.16515 0.36424,0.56902 -0.44047,1.08414 -0.80472,0.51512 z"
         id="path5241"
         style="fill:#000000;fill-opacity:1;stroke:#000000;stroke-width:1;stroke-miterlimit:4;stroke-opacity:1;stroke-dasharray:none;stroke-dashoffset:0" />
      <path
         inkscape:connector-curvature="0"
         d="m -197.73372,-199.67509 c -0.23745,1.06217 -0.80004,2.1704 -0.69507,3.29615 0.0311,0.33335 0.21787,0.78258 0.2732,1.11172 0.13695,1.88837 0.16721,3.78502 0.21884,5.67785 -0.0185,1.28328 0.10792,2.60387 -0.1825,3.86609 -0.11016,0.24108 -0.0315,0.14924 -0.21773,0.29006 0.003,0.41671 -0.58659,0.42058 -0.58932,0.004 l 0,0 c -0.18286,-0.17769 -0.11004,-0.0697 -0.20436,-0.33304 -0.18431,-1.25499 0.0512,-2.52684 -0.0258,-3.78888 -0.0463,-1.83412 -0.0957,-3.67033 -0.23085,-5.5002 -0.0802,-0.45532 -0.28206,-0.93336 -0.28733,-1.39733 -0.0139,-1.22462 0.55148,-2.40138 0.79969,-3.57261 0.24488,-0.807 1.38615,-0.46068 1.14126,0.34632 z"
         id="path5243"
         style="fill:#000000;fill-opacity:1;stroke:#000000;stroke-width:1;stroke-miterlimit:4;stroke-opacity:1;stroke-dasharray:none;stroke-dashoffset:0" />
      <path
         inkscape:connector-curvature="0"
         d="m -196.64009,-201.91144 c 0.93799,0.81709 1.98183,1.54642 2.7672,2.52544 0.36451,0.45438 0.64653,0.98719 0.99335,1.45708 0.91016,1.23284 1.89225,2.40282 3.00906,3.45227 0.81103,0.71127 1.62878,1.41516 2.12553,2.38661 0.045,0.13849 0.09,0.27698 0.13503,0.41546 0.0371,0.0287 -0.004,0.0811 -0.0406,0.0524 l 0,0 c -0.14445,-0.007 -0.2889,-0.0139 -0.43334,-0.0209 -1.11974,-0.26997 -1.91828,-1.06572 -2.73813,-1.8375 -1.16494,-1.11724 -2.19012,-2.35674 -3.16459,-3.64263 -0.33034,-0.45737 -0.57948,-0.94846 -0.89586,-1.40788 -0.66252,-0.96205 -1.6397,-1.64946 -2.52376,-2.3859 -0.70321,-0.5417 0.0629,-1.53619 0.76608,-0.9945 z"
         id="path5245"
         style="fill:#000000;fill-opacity:1;stroke:#000000;stroke-width:1;stroke-miterlimit:4;stroke-opacity:1;stroke-dasharray:none;stroke-dashoffset:0" />
    </g>
    <g
       transform="translate(730.60701,589.33696)"
       id="g4433">
      <path
         sodipodi:nodetypes="ccscscscsccccccsscccccsscccscccccsccccccsscccccccscsccscsccccsssccscccscccssccsssccccscsscccccccccccccccsscscscscscccccsccccscccccscscsccccccccccscccccccccccccccsssccc"
         inkscape:connector-curvature="0"
         d="m -529.65214,-19.300224 c -0.47222,-0.13195 -0.52372,-0.34767 -0.16132,-0.67566 0.16352,-0.14798 0.2973,-0.34557 0.2973,-0.4391 0,-0.0935 0.18174,-0.33245 0.40387,-0.53094 1.32249,-1.1817 2.28581,-1.42783 4.31491,-1.10245 0.75679,0.12135 1.75671,0.25553 2.22205,0.29816 0.9286,0.0851 1.42975,0.34012 1.7147,0.87254 0.23053,0.43073 -0.0129,1.01061 -0.36714,0.87466 -0.12901,-0.0495 -0.31049,0.0304 -0.42508,0.18711 -0.1898,0.25956 -0.21425,0.26056 -0.4804,0.0197 -0.36958,-0.33445 -2.60339,-0.7297 -4.02268,-0.71177 -1.1757,0.0148 -2.08787,0.3672 -2.69904,1.04254 -0.14638,0.16174 -0.30545,0.28747 -0.35352,0.27942 -0.048,-0.008 -0.24769,-0.0594 -0.44365,-0.11421 z m 20.36617,2.45153 c -0.46445,-0.31263 -0.84445,-0.63268 -0.84445,-0.71124 0,-0.0785 -0.0731,-0.14283 -0.16245,-0.14283 -0.0893,0 -0.28042,-0.14998 -0.42462,-0.33331 -0.23544,-0.29929 -0.98823,-0.54153 -2.26099,-0.72753 -0.47341,-0.0692 -0.63259,-0.49132 -0.31682,-0.84022 0.22386,-0.24736 0.41088,-0.29301 1.02184,-0.24945 0.41132,0.0293 0.88003,0.10272 1.04157,0.16305 0.74152,0.27697 1.22277,0.53139 1.39294,0.73643 0.10179,0.12265 0.27282,0.223 0.38004,0.223 0.10722,0 0.57827,0.23114 1.04675,0.51364 0.46851,0.2825 0.95724,0.51381 1.08606,0.51401 0.53226,0.002 0.96807,1.00484 0.54869,1.26404 -0.0944,0.0584 -0.50747,0.11796 -0.91788,0.13245 -0.64592,0.0228 -0.85973,-0.0501 -1.59068,-0.54204 z m -34.40233,6.52961 c -0.16155,-0.0397 -0.37633,-0.13927 -0.4773,-0.22125 -0.2251,-0.18274 -0.24345,-1.08676 -0.0248,-1.22189 0.0873,-0.054 0.28309,-0.30257 0.43507,-0.55246 0.40319,-0.66301 2.34007,-2.45959 2.5533,-2.45959 0.10028,0 0.41939,-0.23576 0.62478,-0.39731 1.33262,-0.7531 0.68793,-0.80012 1.83294,-1.312 0.19017,-0.22915 0.91191,-0.25079 1.30727,-0.0392 0.28481,0.1524 0.38031,0.58543 0.17393,0.78863 -0.0606,0.0596 -0.17795,0.30606 -0.26081,0.54758 -0.11993,0.34953 -0.32967,0.51145 -1.02803,0.79356 -0.48256,0.19492 -0.96804,0.48823 -1.07886,0.65178 -0.11082,0.16355 -0.32045,0.29737 -0.46586,0.29737 -0.33532,0 -2.17505,1.78227 -2.69085,2.60679 -0.21474,0.34329 -0.43917,0.6165 -0.49874,0.60713 -0.0595,-0.009 -0.24049,-0.0495 -0.40203,-0.0892 z m 43.38746,6.1188002 c -0.25305,-0.21948 -0.36073,-0.48539 -0.39227,-0.96865 -0.0363,-0.55642 -0.13962,-0.75853 -0.62729,-1.2271 -0.5733,-0.55082 -1.69094,-2.69264 -2.07639,-3.9791802 -0.14878,-0.49658 -0.13623,-0.60965 0.0962,-0.86653 0.2654,-0.29325 0.2719,-0.29066 0.89007,0.3545 0.56681,0.59156 1.47869,1.9807302 1.71977,2.6199602 0.0532,0.14115 0.33023,0.62158 0.61555,1.06762 0.28532,0.44601 0.51878,0.90071 0.51878,1.01042 0,0.10969 0.0912,0.27512 0.20259,0.36759 0.11143,0.0925 0.24436,0.37703 0.29542,0.63233 0.0755,0.37748 0.0188,0.54146 -0.3035,0.87787 -0.47364,0.49439 -0.49428,0.49683 -0.93897,0.11117 z m -49.45662,6.27766 c -0.62514,-0.66543 -0.35187,-2.66444998 0.54179,-3.96334 0.25335,-0.36824 0.46064,-0.76303 0.46064,-0.87732 0,-0.35786 0.51529,-0.69389 1.06408,-0.69389 0.28981,0 0.55285,-0.0778 0.58455,-0.17288 0.0317,-0.0951 0.13656,-0.12407 0.23306,-0.0644 0.24616,0.15213 0.0706,0.77149 -0.43366,1.5297 -0.231,0.34734 -0.42083,0.67777 -0.42186,0.73431 -0.002,0.0566 -0.19671,0.48700002 -0.43487,0.95660002 -0.23816,0.46963 -0.50111,1.22218 -0.58432,1.67234998 -0.14331,0.7752 -0.35689,1.21881 -0.5868,1.21881 -0.0568,0 -0.24698,-0.15296 -0.42261,-0.33992 z m 50.42793,8.9542798 c -0.20759,-0.15179 -0.24499,-0.29585 -0.16209,-0.62417 0.11467,-0.4541398 0.27532,-1.7116998 0.52357,-4.0983598 0.2293,-2.20468 0.24489,-2.33772 0.29241,-2.49665 0.0242,-0.0807 0.0507,-0.27904 0.0589,-0.44059 0.0104,-0.20386 0.1344,-0.30754 0.40532,-0.33888 0.3276,-0.0379 0.40172,0.0211 0.46117,0.36715 0.15488,0.90148 0.17557,1.37777 0.15196,3.49641 -0.0242,2.17186 -0.25819,3.6564898 -0.65082,4.1295898 -0.21404,0.2579 -0.73162,0.26053 -1.0804,0.005 z m -52.04752,6.53301 c -0.32514,-0.0913 -1.04952,-1.13919 -1.04952,-1.51823 0,-0.0924 -0.0978,-0.2761 -0.21722,-0.40811 -0.31846,-0.35188 -0.38588,-2.29162 -0.12683,-3.64827 0.53688,-2.8116298 0.49055,-2.6701798 0.87466,-2.6701798 0.195,0 0.48282,-0.0801 0.6396,-0.17801 0.15677,-0.0979 0.31905,-0.14402 0.36062,-0.10247 0.22293,0.22295 0.002,1.8655098 -0.37395,2.7771298 -0.13605,0.33004 -0.20921,1.01338 -0.20447,1.9092 l 0.008,1.39519 0.63929,0.92627 0.6393,0.92625 -0.33706,0.35879 c -0.18539,0.19732 -0.37512,0.35218 -0.42161,0.34413 -0.0465,-0.008 -0.2401,-0.0583 -0.43022,-0.11169 z m 45.30808,7.49459 c -0.28808,-0.31832 -0.31641,-0.61151 -0.0595,-0.61535 0.10097,-0.002 0.51402,-0.40537 0.91789,-0.89748 0.40387,-0.49208 0.94909,-1.14321 1.21161,-1.44693 0.26251,-0.30374 0.4773,-0.6684 0.4773,-0.81039 0,-0.30357 1.1914,-2.2152 1.86179,-2.98728 l 0.46661,-0.53737 0.16861,0.44058 c 0.14093,0.36825 0.11858,0.5616 -0.13617,1.17772 -0.16762,0.40544 -0.30478,0.79573 -0.30478,0.86731 0,0.0716 -0.16522,0.34678 -0.36716,0.61153 -0.20193,0.26475 -0.36715,0.54237 -0.36715,0.61691 0,0.0745 -0.2313,0.43846 -0.51401,0.80872 -0.28271,0.37025 -0.51402,0.7125 -0.51402,0.76054 0,0.27788 -1.47238,1.88823 -1.89042,2.06759 -0.62746,0.2692 -0.65785,0.26741 -0.95062,-0.0561 z m -38.20678,4.56965 c -0.16155,-0.0388 -0.45894,-0.2215 -0.66088,-0.40584 -0.20193,-0.18434 -0.63423,-0.50047 -0.96068,-0.70253 -0.7039,-0.43569 -2.74142,-2.27043 -2.88411,-2.59707 -0.0549,-0.12569 -0.10447,-0.54011 -0.11015,-0.92094 -0.008,-0.54092 0.0519,-0.7257 0.27379,-0.84449 0.45093,-0.24132 0.98055,0.0399 1.08811,0.57761 0.0993,0.49663 1.81089,2.34599 2.56752,2.77422 1.6799,0.95079 2.38691,1.63559 2.07575,2.01051 -0.17119,0.20628 -0.78409,0.25416 -1.38935,0.10853 z m 22.76324,4.65699 c -0.1142,-0.18478 0.15453,-0.43384 0.47244,-0.43785 0.0981,-0.002 0.24903,-0.1342 0.33536,-0.29549 0.20585,-0.38465 1.19362,-0.88165 1.75227,-0.88165 0.44074,0 1.05681,-0.29002 2.05068,-0.96536 0.28845,-0.19602 0.63741,-0.3564 0.77543,-0.3564 0.13804,0 0.29181,-0.0661 0.34174,-0.14686 0.0499,-0.0807 0.34315,-0.14686 0.65162,-0.14686 0.38996,0 0.62227,-0.0875 0.76236,-0.28711 0.15452,-0.22021 0.40687,-0.29722 1.08266,-0.33045 l 0.88117,-0.0434 0.0442,0.4531 c 0.0516,0.52881 -0.0246,0.59656 -1.29255,1.14916 -0.52502,0.22883 -1.06935,0.47409 -1.2096,0.54506 -0.14027,0.071 -0.33854,0.12963 -0.44059,0.13037 -0.10206,0.002 -0.51601,0.1639 -0.91988,0.36257 -0.40387,0.19866 -0.81995,0.36328 -0.92461,0.3658 -0.10467,0.003 -0.49886,0.16885 -0.87597,0.36961 -0.44382,0.23626 -0.73601,0.31467 -0.82839,0.22229 -0.0924,-0.0924 -0.23959,-0.055 -0.41737,0.10588 -0.34554,0.31268 -2.07421,0.45734 -2.24099,0.18751 z m -11.01714,0.93481 c -0.12712,-0.0929 -0.35693,-0.13609 -0.51069,-0.0959 -0.15414,0.0403 -0.48011,-0.0697 -0.72649,-0.24511 -0.2458,-0.17503 -0.5064,-0.28146 -0.57913,-0.23651 -0.13816,0.0854 -1.07207,-0.20517 -1.88912,-0.58774 -0.49964,-0.23397 -0.59516,-0.4737 -0.30454,-0.76433 0.13244,-0.13244 0.11246,-0.23938 -0.0856,-0.45826 -0.24751,-0.27351 -0.24564,-0.29231 0.0445,-0.44761 0.352,-0.18838 0.96064,-0.0716 1.48382,0.28476 0.37163,0.25312 1.78098,0.808 3.19807,1.25909 0.80893,0.25752 1.81388,0.20587 2.19804,-0.11296 0.14521,-0.12053 0.24182,-0.11883 0.3671,0.007 0.0935,0.0935 0.29059,0.17002 0.43799,0.17002 0.15253,0 0.32969,0.16229 0.41121,0.37671 0.18479,0.48606 0.20454,0.43021 -0.26064,0.73726 -0.32453,0.21421 -0.71322,0.26821 -1.97864,0.27485 -0.96845,0.005 -1.66374,-0.0568 -1.80587,-0.16072 z"
         style="fill:#000000;stroke:#000000;stroke-opacity:1"
         id="path3316-1-2-8" />
      <path
         sodipodi:nodetypes="ccscscscsccccccsscccccsscccscccccsccccccsscccccccscsccscsccccsssccscccscccssccsssccccscsscccccccccccccccsscscscscscccccsccccscccccscscsccccccccccscccccccccccccccsssccc"
         inkscape:connector-curvature="0"
         d="m -432.74566,-23.604164 c -0.47222,-0.13195 -0.52372,-0.34767 -0.16132,-0.67566 0.16352,-0.14798 0.2973,-0.34557 0.2973,-0.4391 0,-0.0935 0.18174,-0.33245 0.40387,-0.53094 1.32249,-1.1817 2.28581,-1.42783 4.31491,-1.10245 0.75679,0.12135 1.75671,0.25553 2.22205,0.29816 0.9286,0.0851 1.42975,0.34012 1.7147,0.87254 0.23053,0.43073 -0.0129,1.01061 -0.36714,0.87466 -0.12901,-0.0495 -0.31049,0.0304 -0.42508,0.18711 -0.1898,0.25956 -0.21425,0.26056 -0.4804,0.0197 -0.36958,-0.33445 -2.60339,-0.7297 -4.02268,-0.71177 -1.1757,0.0148 -2.08787,0.3672 -2.69904,1.04254 -0.14638,0.16174 -0.30545,0.28747 -0.35352,0.27942 -0.048,-0.008 -0.24769,-0.0594 -0.44365,-0.11421 z m 20.36617,2.45153 c -0.46445,-0.31263 -0.84445,-0.63268 -0.84445,-0.71124 0,-0.0785 -0.0731,-0.14283 -0.16245,-0.14283 -0.0893,0 -0.28042,-0.14998 -0.42462,-0.33331 -0.23544,-0.29929 -0.98823,-0.54153 -2.26099,-0.72753 -0.47341,-0.0692 -0.63259,-0.49132 -0.31682,-0.84022 0.22386,-0.24736 0.41088,-0.29301 1.02184,-0.24945 0.41132,0.0293 0.88003,0.10272 1.04157,0.16305 0.74152,0.27697 1.22277,0.53139 1.39294,0.73643 0.10179,0.12265 0.27282,0.223 0.38004,0.223 0.10722,0 0.57827,0.23114 1.04675,0.51364 0.46851,0.2825 0.95724,0.51381 1.08606,0.51401 0.53226,0.002 0.96807,1.00484 0.54869,1.26404 -0.0944,0.0584 -0.50747,0.11796 -0.91788,0.13245 -0.64592,0.0228 -0.85973,-0.0501 -1.59068,-0.54204 z m -34.40234,6.52961 c -0.16155,-0.0397 -0.37633,-0.13927 -0.4773,-0.22125 -0.2251,-0.18274 -0.24345,-1.08676 -0.0248,-1.22189 0.0873,-0.054 0.28309,-0.30257 0.43507,-0.55246 0.40319,-0.66301 2.34007,-2.45959 2.5533,-2.45959 0.10028,0 0.41939,-0.23576 0.62478,-0.39731 1.33263,-0.7531 0.68794,-0.80012 1.83295,-1.312 0.19017,-0.22915 0.91191,-0.25079 1.30727,-0.0392 0.28481,0.1524 0.38031,0.58543 0.17393,0.78863 -0.0606,0.0596 -0.17795,0.30606 -0.26081,0.54758 -0.11993,0.34953 -0.32967,0.51145 -1.02803,0.79356 -0.48256,0.19492 -0.96804,0.48823 -1.07886,0.65178 -0.11082,0.16355 -0.32045,0.29737 -0.46586,0.29737 -0.33533,0 -2.17506,1.78227 -2.69086,2.60679 -0.21474,0.34329 -0.43917,0.6165 -0.49874,0.60713 -0.0595,-0.009 -0.24049,-0.0495 -0.40203,-0.0892 z m 43.38747,6.1188002 c -0.25305,-0.21948 -0.36073,-0.48539 -0.39227,-0.96865 -0.0363,-0.5564202 -0.13962,-0.7585302 -0.62729,-1.2271002 -0.5733,-0.55082 -1.69094,-2.69264 -2.07639,-3.97918 -0.14878,-0.49658 -0.13623,-0.60965 0.0962,-0.86653 0.2654,-0.29325 0.2719,-0.29066 0.89007,0.3545 0.56681,0.59156 1.47869,1.98073 1.71977,2.61996 0.0532,0.14115 0.33023,0.62158 0.61555,1.06762 0.28532,0.44601 0.51878,0.90071 0.51878,1.01042 0,0.10969 0.0912,0.27512 0.20259,0.36759 0.11143,0.0925 0.24436,0.3770302 0.29542,0.6323302 0.0755,0.37748 0.0188,0.54146 -0.3035,0.87787 -0.47364,0.49439 -0.49428,0.49683 -0.93897,0.11117 z m -49.45663,6.27766 c -0.62514,-0.66543 -0.35187,-2.66445 0.54179,-3.96334 0.25335,-0.36824 0.46064,-0.76303 0.46064,-0.87732 0,-0.35786 0.51529,-0.69389 1.06408,-0.69389 0.28981,0 0.55285,-0.0778 0.58455,-0.17288 0.0317,-0.0951 0.13656,-0.12407 0.23306,-0.0644 0.24616,0.15213 0.0706,0.77149 -0.43366,1.5297 -0.231,0.34734 -0.42083,0.67777 -0.42186,0.73431 -0.002,0.0566 -0.19671,0.487 -0.43487,0.9566 -0.23816,0.46963 -0.50111,1.22218 -0.58432,1.67235 -0.14331,0.7752 -0.35689,1.21881 -0.5868,1.21881 -0.0568,0 -0.24698,-0.15296 -0.42261,-0.33992 z m 50.42794,8.95428 c -0.20759,-0.15179 -0.24499,-0.29585 -0.16209,-0.62417 0.11467,-0.45414 0.27532,-1.7117 0.52357,-4.09836 0.2293,-2.20467998 0.24489,-2.33771998 0.29241,-2.49664998 0.0242,-0.0807 0.0507,-0.27904 0.0589,-0.44059 0.0104,-0.20386002 0.1344,-0.30754002 0.40532,-0.33888002 0.3276,-0.0379 0.40172,0.0211 0.46117,0.36715002 0.15488,0.90148 0.17557,1.37777 0.15196,3.49640998 -0.0242,2.17186 -0.25819,3.65649 -0.65082,4.12959 -0.21404,0.2579 -0.73162,0.26053 -1.0804,0.005 z m -52.04753,6.5329998 c -0.32514,-0.0913 -1.04952,-1.13919 -1.04952,-1.51823 0,-0.0924 -0.0978,-0.2761 -0.21722,-0.40811 -0.31846,-0.35187 -0.38588,-2.2916098 -0.12683,-3.6482598 0.53688,-2.81163 0.49055,-2.67018 0.87466,-2.67018 0.195,0 0.48282,-0.0801 0.6396,-0.17801 0.15677,-0.0979 0.31905,-0.14402 0.36062,-0.10247 0.22293,0.22295 0.002,1.86551 -0.37395,2.77713 -0.13605,0.33004 -0.20921,1.01338 -0.20447,1.9092 l 0.008,1.3951898 0.63929,0.92626 0.6393,0.92625 -0.33706,0.35879 c -0.18539,0.19732 -0.37512,0.35218 -0.42161,0.34413 -0.0465,-0.008 -0.2401,-0.0583 -0.43022,-0.11169 z m 45.30809,7.4946 c -0.28808,-0.31832 -0.31641,-0.61151 -0.0595,-0.61535 0.10097,-0.002 0.51402,-0.40537 0.91789,-0.89748 0.40387,-0.49208 0.94909,-1.14321 1.21161,-1.44693 0.26251,-0.30374 0.4773,-0.6684 0.4773,-0.81039 0,-0.30357 1.1914,-2.2152 1.86179,-2.98728 l 0.46661,-0.53738 0.16861,0.44059 c 0.14093,0.36825 0.11858,0.5616 -0.13617,1.17772 -0.16762,0.40544 -0.30478,0.79573 -0.30478,0.86731 0,0.0716 -0.16522,0.34678 -0.36716,0.61153 -0.20193,0.26475 -0.36715,0.54237 -0.36715,0.61691 0,0.0745 -0.2313,0.43846 -0.51401,0.80872 -0.28271,0.37025 -0.51402,0.7125 -0.51402,0.76054 0,0.27788 -1.47238,1.88823 -1.89042,2.06759 -0.62746,0.2692 -0.65785,0.26741 -0.95062,-0.0561 z m -38.20679,4.56965 c -0.16155,-0.0388 -0.45894,-0.2215 -0.66088,-0.40584 -0.20193,-0.18434 -0.63423,-0.50047 -0.96068,-0.70253 -0.7039,-0.43569 -2.74142,-2.27043 -2.88411,-2.59707 -0.0549,-0.12569 -0.10447,-0.54011 -0.11015,-0.92094 -0.008,-0.54092 0.0519,-0.7257 0.27379,-0.84449 0.45093,-0.24132 0.98055,0.0399 1.08811,0.57761 0.0993,0.49663 1.81089,2.34599 2.56752,2.77422 1.6799,0.95079 2.38691,1.63559 2.07575,2.01051 -0.17119,0.20628 -0.78409,0.25416 -1.38935,0.10853 z m 22.76325,4.65699 c -0.1142,-0.18478 0.15453,-0.43384 0.47244,-0.43785 0.0981,-0.002 0.24903,-0.1342 0.33536,-0.29549 0.20585,-0.38465 1.19362,-0.88165 1.75227,-0.88165 0.44074,0 1.05681,-0.29002 2.05068,-0.96536 0.28845,-0.19602 0.63741,-0.3564 0.77543,-0.3564 0.13804,0 0.29181,-0.0661 0.34174,-0.14686 0.0499,-0.0807 0.34315,-0.14686 0.65162,-0.14686 0.38996,0 0.62227,-0.0875 0.76236,-0.28711 0.15452,-0.22021 0.40687,-0.29722 1.08266,-0.33045 l 0.88117,-0.0434 0.0442,0.4531 c 0.0516,0.52881 -0.0246,0.59656 -1.29255,1.14916 -0.52502,0.22883 -1.06935,0.47409 -1.2096,0.54506 -0.14027,0.071 -0.33854,0.12963 -0.44059,0.13037 -0.10206,0.002 -0.51601,0.1639 -0.91988,0.36257 -0.40387,0.19866 -0.81995,0.36328 -0.92461,0.3658 -0.10467,0.003 -0.49886,0.16885 -0.87597,0.36961 -0.44382,0.23626 -0.73601,0.31467 -0.82839,0.22229 -0.0924,-0.0924 -0.23959,-0.055 -0.41737,0.10588 -0.34554,0.31268 -2.07421,0.45734 -2.24099,0.18751 z m -11.01714,0.93481 c -0.12712,-0.0929 -0.35693,-0.13609 -0.51069,-0.0959 -0.15414,0.0403 -0.48011,-0.0697 -0.72649,-0.24511 -0.2458,-0.17503 -0.5064,-0.28146 -0.57913,-0.23651 -0.13816,0.0854 -1.07207,-0.20517 -1.88912,-0.58774 -0.49964,-0.23397 -0.59516,-0.4737 -0.30454,-0.76433 0.13244,-0.13244 0.11246,-0.23938 -0.0856,-0.45826 -0.24751,-0.27351 -0.24564,-0.29231 0.0445,-0.44761 0.352,-0.18838 0.96064,-0.0716 1.48382,0.28476 0.37163,0.25312 1.78098,0.808 3.19807,1.25909 0.80893,0.25752 1.81388,0.20587 2.19804,-0.11296 0.14521,-0.12053 0.24182,-0.11883 0.3671,0.007 0.0935,0.0935 0.29059,0.17002 0.43799,0.17002 0.15253,0 0.32969,0.16229 0.41121,0.37671 0.18479,0.48606 0.20454,0.43021 -0.26064,0.73726 -0.32453,0.21421 -0.71322,0.26821 -1.97864,0.27485 -0.96845,0.005 -1.66374,-0.0568 -1.80587,-0.16072 z"
         style="fill:#000000;stroke:#000000;stroke-opacity:1"
         id="path3316-2-9-9" />
      <path
         inkscape:connector-curvature="0"
         id="path3304-9-8-2"
         d="m -470.02135,144.15425 c 9.71032,-0.67241 18.89458,-7.16025 22.8523,-16.00151 2.65782,-7.36665 4.98914,-15.84407 1.16764,-23.26996 -2.92226,-6.562264 -9.69688,-9.852344 -16.25394,-11.640964 -5.14736,-1.83139 -10.8802,-2.7992 -16.1191,-0.71183 -5.83729,2.46852 -10.93569,6.77178 -14.53433,11.985744 -5.35607,7.8616 -7.42797,19.19403 -1.84837,27.4785 3.68573,5.31281 9.0998,9.37889 15.3506,11.12422 3.00131,0.91349 6.25225,1.58393 9.3852,1.0358 z m -4.92022,2.22044 c -9.86581,-1.78117 -19.82736,-7.46674 -23.59976,-17.19263 -4.58585,-12.60109 1.94154,-26.94678 12.61539,-34.255684 5.61492,-4.11002 12.7661,-6.49964 19.70105,-4.84055 5.40503,1.14035 10.69157,3.18692 15.42451,6.00461 6.37309,5.018164 10.21239,13.368094 8.79912,21.503164 -1.10696,8.21638 -4.57707,16.42215 -11.2491,21.64606 -5.9451,5.14979 -13.84331,7.8031 -21.69121,7.13503 z"
         style="fill:#000000" />
      <path
         inkscape:connector-curvature="0"
         d="m -459.30467,91.044806 c 0.45626,-1.03864 0.58874,-2.23118 1.12888,-3.2393 0.17972,-0.33544 0.46948,-0.59328 0.66558,-0.91908 0.64866,-1.39542 1.37176,-2.75392 2.01041,-4.15415 1.00279,-2.44526 1.77372,-4.97762 2.65297,-7.46889 1.17664,-3.20111 2.65365,-6.28096 4.1654,-9.33442 1.55284,-3.00559 3.36122,-5.86825 5.02099,-8.81462 1.40458,-2.46142 2.80138,-4.92651 4.09896,-7.44631 1.14698,-2.31833 2.2399,-4.66313 3.33651,-7.00566 0.8632,-1.90127 1.74506,-3.79135 2.8183,-5.58437 0.63051,-0.96949 1.2663,-1.91889 1.71444,-2.9876 0.29569,-0.65394 0.62361,-1.27147 0.80393,-1.9689 0.15947,-0.79532 0.46909,-1.54625 0.79576,-2.28472 0.1927,-0.42349 0.67365,-0.83275 1.13343,-0.52872 0.138,0.21451 0.0958,0.10807 0.14704,0.31039 0.0459,0.009 0.0328,0.0743 -0.0132,0.065 l 0,0 c -0.0501,0.1776 -0.0257,0.0804 -0.0699,0.29247 5.2e-4,0.36152 0.47681,-0.0995 0.17836,0.45157 -0.29212,0.66618 -0.56212,1.34597 -0.69234,2.06516 -0.20051,0.77217 -0.51355,1.48032 -0.8511,2.20051 -0.49634,1.12001 -1.14886,2.13855 -1.84391,3.14593 -1.04685,1.74856 -1.90733,3.5903 -2.72509,5.45573 -1.092,2.36716 -2.17157,4.74126 -3.34575,7.06918 -1.30618,2.54091 -2.70647,5.03011 -4.13578,7.50366 -1.68418,2.9019 -3.49868,5.72898 -5.06469,8.69798 -1.5086,2.99026 -2.98338,6.00692 -4.12383,9.16084 -0.89531,2.53134 -1.65229,5.11374 -2.6759,7.59745 -0.66882,1.45382 -1.43425,2.85815 -2.12686,4.30019 -0.17112,0.26765 -0.43456,0.50393 -0.59785,0.75659 -0.58871,0.91093 -0.71951,2.06259 -1.11325,3.04817 -0.27156,0.91326 -1.56311,0.52922 -1.29155,-0.38405 z"
         id="path5231-0"
         style="fill:#000000;fill-opacity:1;stroke:#000000;stroke-width:1;stroke-miterlimit:4;stroke-opacity:1;stroke-dasharray:none;stroke-dashoffset:0" />
      <path
         inkscape:connector-curvature="0"
         d="m -430.29019,32.534056 c -1.81255,2.01312 -3.31097,4.27352 -5.0039,6.3805 -1.17259,1.31476 -2.19733,2.75475 -3.37002,4.0681 -0.28462,0.31197 -0.60176,0.57638 -0.99865,0.72417 10e-4,0.0469 -0.0649,0.0488 -0.0663,0.002 l 0,0 c -0.34544,-0.44894 -0.14284,-0.95968 0.0832,-1.42955 0.92004,-1.52795 2.16732,-2.81589 3.28038,-4.20125 1.6911,-2.12139 3.32263,-4.29011 5.07088,-6.36645 0.58164,-0.71019 1.58599,0.11237 1.00435,0.82256 z"
         id="path5233-4"
         style="fill:#000000;fill-opacity:1;stroke:#000000;stroke-width:1;stroke-miterlimit:4;stroke-opacity:1;stroke-dasharray:none;stroke-dashoffset:0" />
      <path
         inkscape:connector-curvature="0"
         d="m -428.49193,31.845946 c -0.91753,2.54416 -0.91665,5.17463 -0.97732,7.82537 0.033,1.58446 -0.22708,3.1121 -0.66735,4.6226 10e-4,0.0469 -0.0651,0.0485 -0.0663,0.002 l 0,0 c -0.50309,-1.5146 -0.59617,-3.04907 -0.46235,-4.64326 0.021,-1.0604 -0.0237,-2.13457 0.082,-3.19133 0.16686,-1.66832 0.59363,-3.29451 1.00189,-4.91551 0.21249,-0.77031 1.30187,-0.46981 1.08938,0.3005 z"
         id="path5235-3"
         style="fill:#000000;fill-opacity:1;stroke:#000000;stroke-width:1;stroke-miterlimit:4;stroke-opacity:1;stroke-dasharray:none;stroke-dashoffset:0" />
      <path
         inkscape:connector-curvature="0"
         d="m -490.1427,95.812576 c 0.0467,-0.0828 -1.63355,-2.36875 -1.56774,-2.49732 0.16385,-0.32007 0.70952,-0.40782 0.762,-0.76354 0.0444,-0.30111 -0.48024,0.48178 -0.78428,0.46764 -0.49464,-0.82938 -0.79448,-1.74734 -1.10047,-2.65724 -0.40656,-1.2344 -0.8204,-2.46535 -1.27433,-3.68338 -0.40096,-1.10802 -0.93778,-2.15734 -1.42479,-3.22816 -0.50096,-1.21865 -1.09413,-2.39559 -1.63447,-3.59661 -0.60876,-1.29391 -1.15298,-2.61135 -1.61646,-3.96381 -0.44194,-1.3391 -0.92433,-2.66439 -1.38436,-3.9973 -0.3806,-1.25151 -0.82854,-2.47916 -1.27634,-3.70779 -0.42605,-1.253 -0.93642,-2.4763 -1.33403,-3.7386 -0.25764,-0.9558 -0.53333,-1.90295 -0.86995,-2.83393 -0.35046,-0.81 -0.56303,-1.66718 -0.8363,-2.50382 -0.33933,-1.0093 -0.60993,-2.03985 -0.92828,-3.05612 -0.27543,-1.02884 -0.46137,-2.07373 -0.73809,-3.1026 -0.23505,-0.73063 -0.31682,-1.49385 -0.5483,-2.22551 -0.32615,-0.80615 -0.65755,-1.6107 -0.98551,-2.41656 -0.30427,-0.73278 -0.73688,-1.39548 -0.98866,-2.14975 -0.26204,-0.76159 -0.41637,-1.55154 -0.51639,-2.34882 -0.0282,-0.52433 -0.18822,-1.01427 -0.33767,-1.51147 -0.15538,-0.48382 -0.36027,-0.92466 -0.64031,-1.34613 -0.33258,-0.54166 -0.46706,-1.18421 -0.65723,-1.78721 -0.17279,-0.49894 -0.24664,-1.03163 -0.47422,-1.51094 -0.15964,-0.36946 -0.36149,-0.71663 -0.55577,-1.06842 -0.13356,-0.34099 -0.26604,-0.68438 -0.38796,-1.0303 -0.14725,-0.48601 -0.15577,-0.99591 -0.25952,-1.49092 3.77851,0.45017 -0.10334,-0.22202 0.60733,-0.25013 0.0134,-0.0449 0.077,-0.0259 0.0635,0.019 l 0,0 c 0.26818,0.22918 0.34642,0.258 -0.72434,0.1539 -0.37274,-0.0362 1.31558,-1.0401 1.34439,-0.17419 0.0768,0.4356 0.10477,0.87809 0.20603,1.3086 0.0961,0.28075 0.22581,0.54968 0.3063,0.8355 0.2064,0.38632 0.41013,0.77335 0.58847,1.17333 0.22312,0.53245 0.33461,1.09822 0.50529,1.6483 0.15377,0.49094 0.26975,1.01381 0.51674,1.46395 0.34532,0.52864 0.59419,1.09009 0.77922,1.69451 0.16199,0.56569 0.33316,1.12748 0.35773,1.72127 0.0792,0.71953 0.21973,1.42665 0.45437,2.11337 0.23008,0.72972 0.69977,1.35271 0.96196,2.07133 0.33364,0.83527 0.67103,1.66929 0.99437,2.50826 0.24209,0.74909 0.33819,1.5246 0.5511,2.28122 0.27658,1.0133 0.45321,2.04282 0.71923,3.05806 0.32094,1.01421 0.59397,2.04285 0.93281,3.05072 0.25785,0.83011 0.47913,1.6718 0.80023,2.48054 0.32231,0.95067 0.56502,1.92226 0.83414,2.88879 0.38121,1.24892 0.89987,2.45035 1.31336,3.68883 0.44907,1.23425 0.89496,2.46877 1.27104,3.72767 0.46455,1.33224 0.93671,2.66195 1.38727,3.99899 0.45675,1.32011 1.02964,2.5881 1.62583,3.85058 0.53651,1.19794 1.13249,2.36873 1.63288,3.58287 0.51332,1.0905 1.05864,2.16819 1.47358,3.30178 0.46351,1.22844 0.88257,2.47172 1.30108,3.71588 0.29059,0.85952 0.58357,1.72141 1.03193,2.51436 0.0652,0.17495 0.26935,0.35339 0.1955,0.52486 -0.13139,0.30507 -0.43683,0.86574 -0.71879,0.69015 -0.27332,-0.1702 0.29722,-0.58316 0.52473,-0.811 0.057,-0.0571 0.0142,0.16401 0.0484,0.23702 0.31239,0.6663 0.92569,1.59701 1.27843,2.16515 0.36424,0.56902 -0.44047,1.08414 -0.80472,0.51512 z"
         id="path5241-6"
         style="fill:#000000;fill-opacity:1;stroke:#000000;stroke-width:1;stroke-miterlimit:4;stroke-opacity:1;stroke-dasharray:none;stroke-dashoffset:0" />
      <path
         inkscape:connector-curvature="0"
         d="m -512.29098,33.766966 c -0.23745,1.06217 -0.80004,2.1704 -0.69507,3.29615 0.0311,0.33335 0.21787,0.78258 0.2732,1.11172 0.13695,1.88837 0.16721,3.78502 0.21884,5.67785 -0.0185,1.28328 0.10792,2.60387 -0.1825,3.86609 -0.11016,0.24108 -0.0315,0.14924 -0.21773,0.29006 0.003,0.41671 -0.58659,0.42058 -0.58932,0.004 l 0,0 c -0.18286,-0.17769 -0.11004,-0.0697 -0.20436,-0.33304 -0.18431,-1.25499 0.0512,-2.52684 -0.0258,-3.78888 -0.0463,-1.83412 -0.0957,-3.67033 -0.23085,-5.5002 -0.0802,-0.45532 -0.28206,-0.93336 -0.28733,-1.39733 -0.0139,-1.22462 0.55148,-2.40138 0.79969,-3.57261 0.24488,-0.807 1.38615,-0.46068 1.14126,0.34632 z"
         id="path5243-1"
         style="fill:#000000;fill-opacity:1;stroke:#000000;stroke-width:1;stroke-miterlimit:4;stroke-opacity:1;stroke-dasharray:none;stroke-dashoffset:0" />
      <path
         inkscape:connector-curvature="0"
         d="m -511.19735,31.530616 c 0.93799,0.81709 1.98183,1.54642 2.7672,2.52544 0.36451,0.45438 0.64653,0.98719 0.99335,1.45708 0.91016,1.23284 1.89225,2.40282 3.00906,3.45227 0.81103,0.71127 1.62878,1.41516 2.12553,2.38661 0.045,0.13849 0.09,0.27698 0.13503,0.41546 0.0371,0.0287 -0.004,0.0811 -0.0406,0.0524 l 0,0 c -0.14445,-0.007 -0.2889,-0.0139 -0.43334,-0.0209 -1.11974,-0.26997 -1.91828,-1.06572 -2.73813,-1.8375 -1.16494,-1.11724 -2.19012,-2.35674 -3.16459,-3.64263 -0.33034,-0.45737 -0.57948,-0.94846 -0.89586,-1.40788 -0.66252,-0.96205 -1.6397,-1.64946 -2.52376,-2.3859 -0.70321,-0.5417 0.0629,-1.53619 0.76608,-0.9945 z"
         id="path5245-8"
         style="fill:#000000;fill-opacity:1;stroke:#000000;stroke-width:1;stroke-miterlimit:4;stroke-opacity:1;stroke-dasharray:none;stroke-dashoffset:0" />
    </g>
  </g>
</svg>
