<?xml version="1.0" encoding="UTF-8" standalone="no"?>
<!-- Created with Inkscape (http://www.inkscape.org/) -->

<svg
   xmlns:dc="http://purl.org/dc/elements/1.1/"
   xmlns:cc="http://creativecommons.org/ns#"
   xmlns:rdf="http://www.w3.org/1999/02/22-rdf-syntax-ns#"
   xmlns:svg="http://www.w3.org/2000/svg"
   xmlns="http://www.w3.org/2000/svg"
   xmlns:sodipodi="http://sodipodi.sourceforge.net/DTD/sodipodi-0.dtd"
   xmlns:inkscape="http://www.inkscape.org/namespaces/inkscape"
   width="467.89771"
   height="133.6044"
   id="svg2"
   version="1.1"
   inkscape:version="0.48.3.1 r9886"
   sodipodi:docname="guides.svg">
  <defs
     id="defs4" />
  <sodipodi:namedview
     id="base"
     pagecolor="#ffffff"
     bordercolor="#666666"
     borderopacity="1.0"
     inkscape:pageopacity="1"
     inkscape:pageshadow="2"
     inkscape:zoom="0.49497476"
     inkscape:cx="-364.18498"
     inkscape:cy="157.28035"
     inkscape:document-units="px"
     inkscape:current-layer="layer1"
     showgrid="false"
     inkscape:window-width="975"
     inkscape:window-height="744"
     inkscape:window-x="49"
     inkscape:window-y="24"
     inkscape:window-maximized="1"
     fit-margin-top="0"
     fit-margin-left="0"
     fit-margin-right="0"
     fit-margin-bottom="0" />
  <metadata
     id="metadata7">
    <rdf:RDF>
      <cc:Work
         rdf:about="">
        <dc:format>image/svg+xml</dc:format>
        <dc:type
           rdf:resource="http://purl.org/dc/dcmitype/StillImage" />
        <dc:title />
      </cc:Work>
    </rdf:RDF>
  </metadata>
  <g
     inkscape:label="Layer 1"
     inkscape:groupmode="layer"
     id="layer1"
     transform="translate(-522.01,-848.57183)">
    <path
       id="path3415"
       style="fill:#000000"
       d="m 816.88986,916.08107 c -0.55991,-0.4405 -0.71355,-1.0904 -0.31588,-1.3362 0.12483,-0.077 0.17607,-0.3928 0.11411,-0.7028 -0.0627,-0.3134 0.008,-0.7358 0.15849,-0.953 0.49032,-0.706 0.83702,-6.53175 0.46022,-7.73415 -0.14661,-0.468 -0.0885,-0.6044 0.39108,-0.9187 l 0.56321,-0.369 0.70897,0.8157 c 0.66051,0.76 0.69825,0.8788 0.55249,1.7422 -0.086,0.5095 -0.17536,1.3897 -0.19862,1.9559 -0.0233,0.56625 -0.14065,1.66265 -0.26096,2.43645 -0.12037,0.7739 -0.16786,1.5397 -0.10564,1.702 0.24643,0.642 -0.16824,2.5558 -0.68739,3.1727 -0.61554,0.7316 -0.67912,0.7403 -1.38008,0.1889 z m 35.07629,1.4562 c -0.48483,-0.4849 -0.51326,-1.03 -0.11345,-2.1771 0.21218,-0.6088 0.25088,-1.2298 0.14123,-2.2648 -0.16159,-1.5255 0.26071,-3.6876 0.94732,-4.84995 0.40976,-0.6937 2.05429,-1.615 3.44548,-1.9302 1.41671,-0.3209 3.5747,-0.1069 4.19826,0.4165 1.11259,0.9338 1.10031,0.8946 0.51837,1.6577 -0.63241,0.82915 -0.92212,0.86855 -1.78932,0.243 -1.44263,-1.0403 -2.26499,-1.0506 -3.85234,-0.048 -0.91837,0.57975 -1.7353,1.83615 -1.37058,2.10785 0.77811,0.5795 6.3777,0.7752 7.3466,0.2567 0.21101,-0.113 0.41305,-0.4595 0.44884,-0.7703 0.0504,-0.4358 0.27693,-0.6706 0.99171,-1.0274 0.50958,-0.25445 1.12945,-0.46345 1.37756,-0.46465 0.2481,0 0.51029,-0.098 0.58259,-0.2148 0.0723,-0.117 0.65683,-0.2041 1.29893,-0.1935 1.01832,0.017 3.66018,0.046 4.56466,0.05 0.16986,0 1.25493,-0.071 2.41126,-0.1589 1.79546,-0.137 2.17873,-0.1104 2.62506,0.1821 0.66251,0.4341 0.66406,0.95195 0.006,1.57145 -0.45389,0.4263 -0.68972,0.4801 -1.90452,0.4338 -3.31264,-0.126 -5.91547,-0.015 -6.10213,0.2592 -0.15345,0.2259 -0.34018,0.2276 -1.06414,0.01 -0.96418,-0.2901 -1.5206,-0.2093 -2.45571,0.3566 -0.33972,0.2055 -0.83935,0.4703 -1.11027,0.5882 -0.27091,0.118 -0.82882,0.5824 -1.2398,1.0321 l -0.74729,0.8175 -2.26026,-0.01 c -1.24317,-0.01 -2.81618,-0.1416 -3.49562,-0.3056 -0.67945,-0.1641 -1.31676,-0.2998 -1.41626,-0.3016 -0.10164,0 -0.11746,0.8924 -0.0362,2.0395 0.12301,1.735 0.0924,2.1227 -0.20308,2.5736 -0.42216,0.6443 -1.16563,0.6952 -1.7417,0.1192 z m -42.36163,-7.4072 c 0.18375,-0.01 0.20934,-3.12235 0.0291,-3.59115 -0.0687,-0.1791 -0.1928,-0.3256 -0.27576,-0.3256 -0.19596,0 -0.62872,0.952 -0.62872,1.3832 0,0.1839 -0.14719,0.4971 -0.32706,0.6958 -0.33759,0.373 -0.7458,1.80185 -0.58789,2.05745 0.0491,0.079 0.43715,0.063 0.86242,-0.035 0.42526,-0.099 0.84265,-0.1817 0.92761,-0.1844 z m -7.48318,7.889 c -0.5886,-0.1577 -0.33358,-1.6557 0.60437,-3.5503 0.47107,-0.9517 0.85654,-1.887 0.85654,-2.0785 0,-0.1915 0.37061,-0.9216 0.82352,-1.6224 0.45299,-0.7008 0.82418,-1.4332 0.82495,-1.6276 0,-0.19435 0.1886,-0.63135 0.41745,-0.97105 0.48962,-0.7269 1.22818,-2.3205 1.22863,-2.6512 0,-0.4139 2.60658,-3.0108 3.02138,-3.0108 1.25531,0 1.98832,2.4928 1.76858,6.0144 -0.12593,2.01875 -0.1822,1.94105 1.75727,2.43095 1.60531,0.4055 1.36832,1.2131 -0.47715,1.6261 -1.58069,0.3537 -1.85897,0.8823 -2.03012,3.8561 -0.0368,0.6415 -0.72654,1.3094 -1.34415,1.3019 -0.71679,-0.01 -1.6667,-0.8711 -1.6667,-1.5129 0,-0.2857 0.20799,-0.6745 0.47341,-0.8849 0.42617,-0.3378 1.17371,-1.8252 1.17371,-2.3353 0,-0.2814 -1.965,-0.2532 -2.52491,0.036 -0.25328,0.1309 -0.58641,0.2949 -0.74031,0.3644 -0.1539,0.07 -0.50952,0.5417 -0.79031,1.049 -0.2808,0.5073 -0.66446,1.154 -0.8526,1.4371 -0.18815,0.2831 -0.39232,0.6989 -0.4537,0.9241 -0.10234,0.3753 -1.32742,1.3726 -1.61739,1.3167 -0.0682,-0.013 -0.27182,-0.063 -0.45247,-0.1119 z m 64.93412,0.5887 c -0.33694,-0.2141 -0.80478,-1.3903 -0.98272,-2.4704 -0.11249,-0.6832 -0.042,-1.1407 0.30877,-2.005 0.24998,-0.616 0.40304,-1.254 0.34018,-1.4178 -0.16069,-0.4188 0.72706,-1.6629 1.18657,-1.6629 0.62924,0 0.8714,0.6071 0.55235,1.3846 -0.15216,0.3709 -0.3036,0.9358 -0.33643,1.2554 -0.0329,0.3195 -0.1099,0.6311 -0.17121,0.6924 -0.14725,0.1473 0.45279,1.6706 0.93019,2.3614 0.5039,0.7292 0.47638,1.3169 -0.0799,1.7066 -0.48749,0.3414 -1.33653,0.4171 -1.74778,0.1557 z m -30.42802,0.2819 c -0.82191,-0.4008 -1.54263,-1.0447 -1.55071,-1.3854 -0.006,-0.1517 -0.13433,-0.4444 -0.29042,-0.6503 -0.1972,-0.2602 -0.23183,-0.556 -0.11333,-0.9691 0.0937,-0.327 0.12631,-0.7635 0.0724,-0.9699 -0.0543,-0.2064 0.0129,-0.6506 0.14899,-0.9869 0.13594,-0.3364 0.27272,-0.7505 0.304,-0.9204 0.031,-0.1699 0.12379,-0.6794 0.20578,-1.1324 0.0819,-0.453 0.27414,-1.0722 0.42707,-1.3762 0.1886,-0.3749 0.23913,-0.9376 0.15714,-1.75005 -0.10474,-1.0379 -0.062,-1.2592 0.31859,-1.6607 0.53485,-0.5638 0.85047,-0.5807 1.47047,-0.079 0.47172,0.3821 0.47321,0.3984 0.21909,2.41925 -0.2501,1.9891 -0.52082,3.2656 -0.8681,4.0935 -0.095,0.2265 -0.26549,0.771 -0.37888,1.2099 -0.18478,0.7152 -0.14989,0.872 0.33533,1.5082 l 0.54157,0.71 1.76528,-0.1429 c 0.9709,-0.079 1.85794,-0.2116 1.9712,-0.2957 0.1132,-0.084 0.53013,-0.2034 0.92651,-0.2651 0.39632,-0.062 1.27651,-0.4237 1.95589,-0.8043 1.65338,-0.9262 1.91712,-1.4996 2.1764,-4.7331 0.23447,-2.92415 0.38534,-3.40415 1.12829,-3.59065 0.90526,-0.2271 1.25254,0.3134 0.96974,1.5096 -0.23124,0.97795 -0.33184,2.86195 -0.28887,5.40875 0.0123,0.7361 0.0239,1.5617 0.0252,1.8348 0.006,0.8267 -0.66523,1.76 -1.31818,1.8359 -0.31963,0.037 -0.68106,-0.032 -0.80318,-0.1544 -0.312,-0.312 -1.3134,-0.2761 -1.96086,0.07 -2.06753,1.1064 -6.38771,1.831 -7.54669,1.2659 z m -5.45609,0.049 c -0.28312,-0.1316 -1.27256,-0.5878 -2.19882,-1.0137 -1.88953,-0.869 -3.19673,-1.9369 -3.78688,-3.0936 -0.78541,-1.5396 -0.54925,-1.9348 1.69182,-2.8307 0.63919,-0.2555 1.37252,-0.6885 1.62961,-0.9621 0.39419,-0.4196 0.43179,-0.5758 0.24015,-0.9965 -0.35238,-0.7734 -0.94079,-0.8369 -2.17188,-0.2347 -1.10942,0.5429 -2.61013,2.1815 -2.61013,2.8501 0,0.1792 -0.0901,0.3815 -0.20035,0.4497 -0.11023,0.068 -0.34897,0.4673 -0.53058,0.8871 -0.18162,0.4199 -0.54532,1.2266 -0.80815,1.7928 -0.26284,0.5662 -0.54428,1.261 -0.62543,1.5442 -0.19467,0.6789 -0.90674,1.4412 -1.34629,1.4412 -0.19286,0 -0.46674,-0.1399 -0.60856,-0.3108 -0.35659,-0.4296 -0.13317,-1.8843 0.37428,-2.4375 0.22356,-0.2437 0.46804,-0.7345 0.54325,-1.0908 0.0753,-0.3563 0.31691,-0.8107 0.53698,-1.0099 0.22006,-0.1991 0.40013,-0.4589 0.40013,-0.5773 0,-0.1183 0.55746,-1.0606 1.23877,-2.094 0.91909,-1.3937 1.46388,-2.0036 2.11037,-2.36265 0.47935,-0.2661 0.91786,-0.5389 0.97452,-0.6063 0.58634,-0.6977 2.87736,-0.8398 3.50008,-0.217 0.22646,0.2264 0.41176,0.3191 0.41176,0.2059 0,-0.6574 1.21532,0.4 1.2285,1.06875 0.006,0.1915 0.0995,0.4054 0.21277,0.4754 0.87321,0.5397 -1.41465,3.0559 -3.34573,3.6797 -0.8513,0.275 -0.01,2.0516 1.08578,2.2922 0.33934,0.074 0.90765,0.2805 1.26294,0.4577 0.35536,0.1773 1.39675,0.3782 2.31422,0.4465 1.46187,0.1088 1.67541,0.1751 1.72678,0.5359 0.0323,0.2265 -0.19933,0.7191 -0.51469,1.0949 -0.64565,0.7691 -1.83093,1.0359 -2.73522,0.6155 z m 12.2504,15.3766 c 0.22646,-0.092 0.65773,-0.3384 0.9583,-0.5464 0.30057,-0.2081 0.68913,-0.3783 0.86352,-0.3783 0.17438,0 0.55655,-0.2085 0.84937,-0.4632 l 0.53226,-0.4633 -0.45299,-0.6319 c -0.62433,-0.871 -1.99711,-1.3537 -3.01718,-1.0607 -0.91895,0.2639 -2.21109,1.4304 -2.4988,2.2558 -0.41461,1.1892 1.18431,1.934 2.76552,1.288 z m -3.32292,1.6831 c -0.58304,-0.3797 -1.15136,-0.9598 -1.3616,-1.3895 -0.33009,-0.675 -0.33468,-0.8238 -0.0536,-1.7501 0.16895,-0.5568 0.30812,-1.3455 0.30935,-1.7525 0.006,-1.2088 1.20841,-1.9616 3.38875,-2.1178 2.43097,-0.174 4.44656,0.3634 5.97091,1.5921 0.59041,0.4759 0.6001,0.513 0.35077,1.3451 -0.14098,0.4706 -0.20856,0.9331 -0.15015,1.0276 0.15803,0.2557 -1.26275,1.8334 -1.79146,1.9893 -0.25166,0.074 -1.10606,0.436 -1.89877,0.8042 -0.81958,0.3806 -1.94199,0.7198 -2.60225,0.7864 -1.05651,0.1066 -1.25124,0.058 -2.16186,-0.5348 z m -8.27427,0.6202 c -0.35923,-0.3707 -0.65321,-0.7801 -0.65321,-0.9098 0,-0.1297 0.27828,-1.0665 0.61845,-2.0818 0.34011,-1.0152 0.56916,-1.9741 0.509,-2.1309 -0.0711,-0.1855 -0.4617,-0.2912 -1.11769,-0.3027 -2.71668,-0.047 -4.88171,-3.9119 -3.67511,-6.5601 0.2348,-0.5154 0.6976,-0.7906 1.00734,-0.5992 0.31188,0.1928 0.20986,0.8803 -0.14111,0.9514 -0.28299,0.057 -0.26871,0.1424 0.10293,0.6138 0.23731,0.301 0.4314,0.6804 0.4314,0.8434 0,0.9279 1.21636,2.4054 2.01546,2.4483 1.60131,0.086 1.98929,-0.064 3.62652,-1.4 1.81736,-1.4831 2.5335,-1.6484 2.87755,-0.664 0.1541,0.441 0.0689,0.7418 -0.46629,1.6471 -0.99364,1.6807 -1.11724,1.8779 -1.62915,2.6002 -0.84937,1.1984 -1.72691,3.153 -1.53179,3.4119 0.28313,0.3757 0.27731,2.131 -0.008,2.3553 -0.67524,0.5313 -1.30461,0.4599 -1.96655,-0.2229 z m 21.84563,0.6725 c -1.99601,-0.789 -3.1453,-2.768 -3.1453,-5.416 0,-1.4499 0.28092,-2.3736 1.09237,-3.5919 0.83431,-1.2526 1.29227,-1.1158 1.22404,0.3656 -0.0284,0.6128 -0.1225,1.1661 -0.2094,1.2295 -0.0869,0.063 -0.15184,0.8563 -0.14428,1.7622 0.0123,1.4293 0.0883,1.764 0.5773,2.5302 0.64306,1.0075 1.19225,1.2788 2.589,1.2788 1.54161,0 2.2319,-0.4623 2.93564,-1.9661 0.77423,-1.6544 0.81848,-2.9912 0.13904,-4.1978 l -0.48283,-0.8574 0.48606,-0.4013 c 0.2673,-0.2207 0.65638,-0.4012 0.86455,-0.4012 0.53039,0 1.38564,1.2138 1.37814,1.956 -0.006,0.3397 0.0142,1.3588 0.0388,2.2647 0.0549,2.0048 -0.0671,2.3451 -1.41277,3.9364 -1.14302,1.3517 -1.69654,1.6226 -3.72272,1.822 -0.85803,0.084 -1.393,0.01 -2.20787,-0.3137 z m -39.69057,-1.8416 c 0.07,-0.1133 0.28306,-0.2059 0.47353,-0.2059 0.1904,0 0.87986,-0.5642 1.53204,-1.2539 1.06937,-1.1308 1.18573,-1.3416 1.18573,-2.1484 0,-1.4853 -0.25075,-1.861 -1.57204,-2.3553 -1.48552,-0.5558 -2.05577,-0.4396 -2.23565,0.4558 -0.1842,0.9166 -0.82979,2.8093 -1.20039,3.5191 -0.28952,0.5546 -0.22278,1.3536 0.16553,1.9819 0.1685,0.2726 1.48365,0.2779 1.65125,0.01 z m -2.85546,1.7088 c -1.10271,-1.0403 -1.34047,-1.622 -1.1615,-2.8412 0.0832,-0.5662 0.30813,-1.3864 0.50002,-1.8226 0.42837,-0.9741 0.36653,-1.7017 -0.13756,-1.617 -0.51113,0.086 -0.47521,-0.8193 0.0517,-1.2958 0.22653,-0.205 0.41183,-0.4477 0.41183,-0.5394 0,-0.546 -3.26011,-1.1527 -3.95015,-0.7352 -0.53194,0.3219 -1.2309,1.7701 -1.08152,2.2409 0.0647,0.2037 0,0.6987 -0.14634,1.1 -0.2094,0.5792 -0.21166,0.8133 -0.011,1.1347 0.23466,0.3758 0.21793,0.8441 -0.0828,2.3135 -0.0646,0.3152 -0.34082,0.7196 -0.61412,0.8987 -0.45531,0.2983 -0.54124,0.2964 -1.02873,-0.023 -0.29256,-0.1917 -0.66439,-0.6656 -0.8263,-1.0531 -0.25063,-0.5999 -0.25263,-0.8046 -0.0136,-1.3772 0.15455,-0.3699 0.34702,-1.1342 0.42772,-1.6985 0.15881,-1.1107 0.42914,-2.1016 0.84666,-3.1035 0.42597,-1.0224 0.14698,-1.2245 -1.27309,-0.9223 -1.80463,0.3841 -2.98797,1.0279 -3.46706,1.8862 -0.36905,0.661 -0.46965,0.7203 -0.94919,0.5589 -0.52787,-0.1776 -1.00773,-0.9079 -1.00773,-1.5336 0,-0.5711 0.80692,-1.47 1.71353,-1.9089 0.48794,-0.2363 0.9826,-0.4295 1.09935,-0.4295 0.11669,0 0.50273,-0.1449 0.8579,-0.3222 0.50648,-0.2526 1.1018,-0.3005 2.7597,-0.2222 2.95819,0.1397 5.6739,0.4594 5.97614,0.7033 0.14053,0.1135 0.64398,0.2704 1.11867,0.3487 0.47476,0.078 0.97671,0.279 1.1155,0.4462 0.46978,0.5661 0.97639,0.7241 1.47001,0.4586 1.02098,-0.5491 1.99369,-0.5675 2.91077,-0.055 0.95772,0.5353 1.47757,1.3331 2.1815,3.3476 0.40582,1.1613 0.42863,1.4091 0.20366,2.2125 -0.2998,1.0708 -2.53383,3.5824 -3.18756,3.5835 -0.22542,0 -0.72641,0.1939 -1.11337,0.4297 -0.41395,0.2524 -1.14328,0.4534 -1.77181,0.4884 -0.97322,0.054 -1.1352,-0.01 -1.8213,-0.6512 z m 55.91321,-5.2237 c 1.27845,-0.2585 3.84019,-1.4337 4.30687,-1.9759 0.45524,-0.5288 0.58498,-0.9835 0.37674,-1.3205 -0.14195,-0.2297 -0.23027,-0.2364 -0.43392,-0.033 -0.14059,0.1406 -0.53821,0.2556 -0.88355,0.2557 -0.99093,2e-4 -3.9194,1.9252 -4.46309,2.9338 -0.22924,0.4253 -0.28216,0.4186 1.09695,0.1397 z m 9.43222,7.481 c -0.28157,-0.052 -0.74483,-0.2518 -1.02944,-0.4426 -0.28454,-0.1909 -0.74903,-0.4496 -1.03215,-0.5749 -3.20397,-1.4179 -6.46414,-3.1814 -7.46709,-4.039 -0.65308,-0.5586 -1.17488,-1.1208 -1.15944,-1.2494 0.15009,-1.2525 -0.78249,0.2612 -1.36263,2.2118 -0.36815,1.2378 -0.70761,1.7085 -0.95307,1.3216 -0.13051,-0.2058 -0.17018,-0.208 -0.17257,-0.01 0,0.1415 -0.12056,0.2574 -0.26406,0.2574 -0.19009,0 -0.2587,-0.4607 -0.25289,-1.6986 0.006,-1.3956 0.10441,-1.9028 0.54893,-2.8432 0.66788,-1.4129 2.42502,-3.3691 3.53503,-3.9354 0.45686,-0.2331 0.95888,-0.552 1.11556,-0.7088 0.15675,-0.1567 0.4683,-0.2849 0.6923,-0.2849 0.22401,0 0.69476,-0.1487 1.04605,-0.3303 0.95849,-0.4957 3.15473,-0.3259 4.05243,0.3133 0.62439,0.4446 0.67763,0.5633 0.57994,1.2918 -0.16308,1.2157 -1.45826,2.5234 -4.12053,4.1603 -0.3184,0.1958 -0.54441,0.4596 -0.50222,0.5862 0.0951,0.2852 2.40416,1.5735 2.84422,1.5868 0.17697,0.01 0.57846,0.2777 0.8922,0.6051 0.31369,0.3275 0.85067,0.6514 1.19317,0.7199 0.90409,0.1809 3.51248,1.4408 3.86577,1.8673 0.27207,0.3284 0.24532,0.4136 -0.26885,0.8559 -0.56424,0.4853 -0.77952,0.5264 -1.78066,0.3394 z m 31.23978,6.891 c -0.2503,-0.3821 -0.27847,-0.9083 -0.15525,-2.898 0.17399,-2.8088 0.35128,-3.1526 1.51311,-2.9346 l 0.72331,0.1357 -0.0667,2.6111 c -0.0647,2.5337 -0.083,2.6251 -0.61393,3.0818 -0.68888,0.5926 -1.01419,0.5935 -1.4005,0.01 z m -54.35946,3.8905 c -0.35206,-0.1312 -0.53084,-0.3209 -0.46468,-0.4932 0.0588,-0.154 -0.031,-0.5477 -0.20009,-0.8747 -0.24481,-0.4734 -0.25877,-0.7016 -0.0684,-1.1193 0.19539,-0.4289 0.38256,-0.5248 1.02427,-0.5248 0.89479,0 1.25577,0.476 1.50659,1.9864 0.19015,1.1445 -0.46901,1.5206 -1.79766,1.0256 z m -51.17707,-3.2514 c 2.14028,-1.1408 4.10037,-3.2132 3.79399,-4.0116 -0.33888,-0.8832 -2.84732,0.6127 -4.40101,2.6246 -1.03331,1.338 -1.32302,2.0382 -0.84336,2.0382 0.12567,0 0.77837,-0.293 1.45038,-0.6512 z m 12.69446,4.5551 c 0.24785,-0.2309 0.45059,-0.4883 0.45059,-0.5719 0,-0.6171 -2.13944,-2.3026 -2.92271,-2.3026 -0.51547,0 -0.46404,0.3038 0.11578,0.6838 0.666,0.4363 0.78947,1.0611 0.32615,1.6501 -0.28848,0.3667 -0.32396,0.544 -0.14479,0.7231 0.39096,0.3909 1.67515,0.2832 2.17498,-0.1825 z m -3.22878,2.4785 c -0.96799,-0.2286 -1.52015,-0.8589 -1.6599,-1.8949 l -0.11921,-0.8844 -0.92528,-0.012 c -0.50888,-0.01 -1.14309,-0.085 -1.40922,-0.1749 -0.29424,-0.099 -0.57277,-0.074 -0.71033,0.063 -0.13484,0.1348 -1.07234,0.2263 -2.31893,0.2263 -2.12523,0 -4.14877,0.2706 -4.47679,0.5987 -0.10377,0.1037 -0.0779,0.3728 0.0607,0.6317 0.19758,0.3692 0.17658,0.5226 -0.11578,0.8457 -0.19642,0.217 -0.5205,0.3946 -0.72021,0.3946 -0.46236,0 -1.3072,-1.353 -1.34991,-2.1617 -0.0181,-0.3398 -0.10118,-1.1923 -0.18504,-1.8945 -0.14221,-1.1913 -0.10403,-1.3785 0.57219,-2.8024 0.47695,-1.0043 0.97891,-1.7197 1.46885,-2.0934 0.40944,-0.3123 0.74438,-0.7354 0.74438,-0.9402 0,-0.3636 0.89685,-1.2258 1.27515,-1.2258 0.1046,0 0.53458,-0.2768 0.95559,-0.6151 0.88122,-0.7082 2.69095,-1.3183 3.74003,-1.261 0.9249,0.05 1.71573,0.8077 1.71573,1.6426 0,0.6094 -1.25305,3.3218 -1.53456,3.3218 -0.0804,0 -0.40892,0.2786 -0.7299,0.6191 -0.32105,0.3405 -1.20906,1.0505 -1.9734,1.5778 -0.7644,0.5272 -1.38977,1.026 -1.38977,1.1084 0,0.241 1.17927,0.305 3.58666,0.1948 2.17084,-0.099 2.2496,-0.1194 2.28281,-0.5795 0.11533,-1.5965 2.94242,-2.3015 5.66033,-1.4116 0.8482,0.2777 3.43572,2.2821 3.58794,2.7794 0.19422,0.6345 -0.25579,1.9325 -0.90073,2.5978 -0.7009,0.7233 -2.81598,1.5739 -3.81964,1.5363 -0.33972,-0.013 -0.92994,-0.097 -1.31166,-0.1871 z m 11.19434,-1.973 c 0.56618,-0.2715 1.37678,-0.7956 1.80127,-1.1647 l 0.77191,-0.6711 -0.43309,-0.875 c -0.25392,-0.5131 -0.5769,-0.875 -0.78082,-0.875 -0.34657,0 -2.90346,2.3354 -2.90346,2.652 0,0.092 -0.1853,0.3343 -0.41176,0.5392 -0.22646,0.205 -0.41176,0.551 -0.41176,0.7689 0,0.3382 0.098,0.376 0.6691,0.2577 0.36802,-0.076 1.13243,-0.3606 1.69861,-0.632 z m -3.90964,2.1439 c -0.74812,-0.6856 -0.76809,-0.7402 -0.63137,-1.7262 0.11151,-0.8038 0.33306,-1.2349 1.05244,-2.0475 0.50111,-0.5663 0.91204,-1.1862 0.91307,-1.3777 0,-0.1915 0.0983,-0.4077 0.21619,-0.4805 0.11778,-0.073 0.16359,-0.2921 0.10163,-0.4872 -0.12832,-0.4044 0.74127,-1.3363 1.51221,-1.6206 0.84755,-0.3125 2.39045,0.2413 3.63524,1.3047 0.93232,0.7965 1.17791,0.9177 1.43215,0.7067 0.18324,-0.152 0.55636,-0.2036 0.92632,-0.128 0.34082,0.07 0.90157,0.184 1.24621,0.2542 0.34463,0.07 0.5917,0.2323 0.54899,0.3603 -0.0772,0.2317 -0.72112,0.2692 -1.89625,0.1103 -0.53956,-0.073 -0.62045,-0.019 -0.63997,0.4312 -0.0123,0.2831 -0.0355,0.7179 -0.0517,0.9663 -0.0452,0.704 -2.12911,2.8004 -3.52043,3.5419 -0.91521,0.4878 -1.61746,0.6943 -2.65814,0.7816 -1.39268,0.1167 -1.42621,0.1077 -2.18687,-0.5895 z m 33.99671,0.6293 c -0.32712,-0.467 -0.21754,-0.9288 0.32176,-1.3551 0.45279,-0.3578 1.91337,-0.4943 2.28863,-0.2138 0.39729,0.297 0.29462,0.4782 -0.68177,1.2037 -1.09217,0.8114 -1.55472,0.899 -1.92862,0.3652 z m -9.61403,0.1478 c -0.93698,-0.6367 -2.20586,-2.1884 -2.49538,-3.0516 -0.27563,-0.8219 -0.74722,-1.3963 -1.14639,-1.3963 -0.2994,0 -1.27974,0.6261 -1.9701,1.2583 -0.20598,0.1886 -0.65767,0.3996 -1.00366,0.4688 -1.2829,0.2566 -1.7952,0.1409 -2.60173,-0.5878 -0.84303,-0.7616 -1.27017,-0.6911 -1.27017,0.2097 0,0.6529 -0.86953,1.832 -1.40819,1.9095 -1.42311,0.2049 -1.51841,-1.8095 -0.21858,-4.6193 0.21529,-0.4654 0.39141,-0.9185 0.39141,-1.0068 0,-0.3285 0.74218,-0.7079 1.39701,-0.7142 0.89608,-0.01 1.63452,0.5015 1.79708,1.2414 0.12553,0.5716 0.95752,1.4286 1.38699,1.4286 0.111,0 0.49879,-0.3243 0.86184,-0.7207 0.36304,-0.3963 0.74689,-0.7206 0.85298,-0.7206 0.10609,0 0.60908,-0.2181 1.11776,-0.4847 1.03196,-0.541 2.07568,-0.7964 2.38057,-0.5826 0.36395,0.2552 0.93143,1.2811 0.8139,1.4714 -0.1077,0.1742 0.22407,0.9597 1.13366,2.6843 0.25107,0.4761 0.55177,0.742 0.88619,0.7837 0.27841,0.035 0.66911,0.2432 0.86824,0.4632 0.19926,0.2202 0.51455,0.4002 0.70089,0.4002 0.97122,0 1.13579,1.274 0.22536,1.7448 -0.8776,0.4538 -1.8644,0.3883 -2.69968,-0.1793 z m 43.04366,-5.8891 c 0,-0.1133 -0.0927,-0.2059 -0.20585,-0.2059 -0.11326,0 -0.20592,0.093 -0.20592,0.2059 0,0.1132 0.0927,0.2058 0.20592,0.2058 0.11319,0 0.20585,-0.093 0.20585,-0.2058 z m 2.58642,4.5216 c 0.39528,-0.2443 0.84898,-0.5744 1.00818,-0.7336 0.15913,-0.1592 0.64306,-0.4049 1.07544,-0.5461 0.77532,-0.253 0.78857,-0.2751 0.96954,-1.6194 0.19732,-1.4659 0.1121,-2.1063 -0.3666,-2.755 -0.24358,-0.33 -0.35568,-0.3607 -0.56482,-0.1544 -0.1435,0.1416 -0.52037,0.2574 -0.83742,0.2574 -0.63887,0 -0.73753,0.2277 -0.26768,0.6176 0.16986,0.141 0.30884,0.4336 0.30884,0.6502 0,0.8197 -0.69838,1.4479 -2.60839,2.3464 -1.63077,0.7671 -1.92112,0.9776 -1.92112,1.3924 0,0.4922 0.45834,1.033 1.02943,1.2145 0.42495,0.135 1.31657,-0.1397 2.1746,-0.67 z m -20.60168,3.0954 c -1.18438,-0.4548 -2.02037,-2.0371 -1.23535,-2.3384 0.16986,-0.065 0.30883,-0.2994 0.30883,-0.5204 0,-0.4892 -0.61722,-0.6447 -2.41449,-0.6083 -1.29621,0.026 -1.7406,-0.156 -2.12329,-0.8711 -0.27505,-0.5139 0.38482,-1.2472 1.37013,-1.5226 1.00786,-0.2817 1.12357,-0.8256 0.42985,-2.0209 -0.59848,-1.0313 -0.91824,-3.1082 -0.54738,-3.5552 0.13601,-0.1639 0.53704,-0.2983 0.89124,-0.2986 0.35413,0 1.70881,-0.2696 3.01039,-0.5981 1.70126,-0.4294 2.47225,-0.5407 2.74265,-0.396 0.20695,0.1108 0.89964,0.3377 1.53941,0.5044 0.63977,0.1666 1.30487,0.4237 1.47803,0.5713 0.17315,0.1475 0.47701,0.3258 0.67517,0.396 0.41958,0.1489 0.47334,0.6213 0.10293,0.9053 -0.45234,0.3469 -2.61026,0.9249 -3.29843,0.8836 -0.36569,-0.022 -1.59142,-0.054 -2.72378,-0.072 l -2.05894,-0.032 0.0669,0.6176 c 0.0368,0.3398 0.19893,0.764 0.36033,0.9428 0.16133,0.1788 0.29339,0.4192 0.29339,0.5342 0,0.1151 0.17684,0.3694 0.39297,0.5649 0.30993,0.2805 0.73423,0.3487 2.00744,0.3226 0.88794,-0.018 1.94277,0.029 2.34407,0.1057 0.67124,0.1275 0.79529,0.067 1.54994,-0.754 0.45117,-0.4909 0.95662,-1.0817 1.12331,-1.3128 0.93698,-1.2991 2.34743,-1.6304 3.97354,-0.9333 0.75291,0.3227 1.02434,0.5941 1.45826,1.4581 0.68558,1.3649 0.69204,2.248 0.0213,2.8784 -0.60572,0.569 -0.44516,0.8844 0.69237,1.3597 0.94344,0.3942 1.76522,0.2038 2.28766,-0.5298 0.3319,-0.4661 0.4146,-0.9086 0.4146,-2.2182 0,-1.4884 0.0549,-1.7122 0.61355,-2.4829 0.80562,-1.1121 1.26481,-1.3869 2.97524,-1.7803 0.78482,-0.1805 1.52603,-0.4054 1.64711,-0.4997 0.12108,-0.094 0.86288,-0.102 1.64847,-0.017 1.28582,0.1392 1.50149,0.1076 2.1618,-0.3158 0.73211,-0.4695 1.84935,-0.7118 5.16606,-1.1199 1.69215,-0.2083 2.39814,-0.1281 3.4942,0.3971 0.53678,0.2573 0.47533,0.9526 -0.12599,1.4256 -0.47108,0.3706 -0.75956,0.4262 -1.81278,0.3499 -0.68888,-0.05 -1.6694,0 -2.17899,0.113 -0.50958,0.112 -1.34241,0.2663 -1.8507,0.3429 -1.05205,0.1587 -1.22792,0.4999 -0.64507,1.252 l 0.38353,0.495 1.88243,-0.4475 c 1.73304,-0.4118 1.93114,-0.4221 2.49732,-0.1293 0.75484,0.3903 0.76137,0.6323 0.0407,1.5009 -0.50215,0.6051 -0.73035,0.7012 -2.10488,0.8864 -0.84788,0.1142 -1.70248,0.2952 -1.89916,0.4022 -0.1966,0.107 -0.49775,0.1945 -0.6691,0.1945 -0.4953,0 -0.36227,0.7808 0.19525,1.1461 0.64591,0.4233 2.08485,0.6218 2.43006,0.3353 0.37462,-0.3109 1.92242,-0.06 2.31648,0.3752 0.25218,0.2787 0.28739,0.5248 0.15093,1.055 -0.19945,0.7749 -0.99073,1.28 -2.00719,1.2812 -1.21273,0 -4.54017,-0.5484 -5.13232,-0.848 -0.63435,-0.3209 -0.64378,-0.3161 -1.3158,0.67 -0.17935,0.2631 -2.18402,1.3383 -2.49525,1.3383 -0.12948,0 -0.50338,0.1981 -0.83089,0.4403 -0.80517,0.5952 -2.0289,0.399 -3.41382,-0.5474 -0.91889,-0.6279 -1.23193,-0.7225 -2.67655,-0.8083 -2.298,-0.1364 -3.65689,-0.5934 -4.74383,-1.5953 -1.26171,-1.163 -1.25699,-1.8816 0.0194,-3.0053 0.50959,-0.4485 0.92652,-0.8692 0.92652,-0.9347 0,-0.065 -0.33236,-0.1815 -0.7385,-0.2576 -0.51042,-0.096 -0.82307,-0.051 -1.01238,0.1451 -0.26813,0.2776 -0.74011,2.4581 -0.75155,3.4719 -0.008,0.7363 -0.30405,1.1884 -1.01949,1.5584 -0.54718,0.2829 -0.68441,0.2869 -1.07485,0.031 -0.24611,-0.1613 -0.57646,-0.6504 -0.73411,-1.0868 -0.43922,-1.2161 -0.65728,-1.3489 -1.96157,-1.1956 -1.32658,0.1559 -1.52229,0.4511 -1.04947,1.5827 0.39749,0.9513 0.39542,1.5795 -0.007,2.1543 -0.43425,0.6199 -0.93744,0.8535 -1.43067,0.6642 z m 37.26587,0.9902 c -0.84866,-0.4813 -0.92406,-1.0567 -0.30574,-2.3339 0.53278,-1.1007 1.28387,-1.4805 2.00002,-1.0112 0.47042,0.3082 0.50157,0.4242 0.3896,1.4508 -0.20217,1.8544 -0.9521,2.5361 -2.08388,1.8943 z M 734.38598,866.76872 c 0.0472,-0.047 0.0355,-0.137 -0.0265,-0.1992 -0.17645,-0.1764 -1.19096,0.1333 -1.19096,0.3635 0,0.1877 1.00082,0.052 1.21771,-0.1643 z m -1.85258,0.1948 c 0.0472,-0.041 0.0297,-0.1309 -0.0381,-0.1992 -0.18982,-0.1898 -2.20935,0.136 -2.20935,0.3564 0,0.175 2.03019,0.033 2.2476,-0.1572 z m -2.77935,0.3259 c 0.31013,-0.2983 -0.51313,-0.4904 -0.94512,-0.2206 -0.21612,0.1349 -0.48257,0.1899 -0.59222,0.1221 -0.2744,-0.1696 -1.01923,0.088 -1.01923,0.3528 0,0.2548 2.26085,0.03 2.55657,-0.2543 z m -153.25722,31.7144 c 2.23509,-0.7184 2.45749,-0.8721 1.99817,-1.3817 -0.40809,-0.4526 -0.97173,-2.0383 -0.97575,-2.7449 -0.006,-1.0057 -0.42225,-1.2907 -1.72804,-1.1824 -0.7348,0.061 -1.38325,0.2536 -1.73214,0.5147 -0.54802,0.4101 -0.55658,0.4518 -0.49615,2.4145 0.0658,2.1361 0.27397,3.0007 0.72258,3.0007 0.15374,0 1.14884,-0.2794 2.21133,-0.6209 z m -8.36823,2.4792 c 1.01246,-0.3473 1.04662,-0.3842 0.97664,-1.0576 -0.0399,-0.3837 -0.13251,-1.3 -0.2059,-2.036 l -0.13337,-1.3383 -1.20192,-0.1804 c -0.93414,-0.1403 -1.26436,-0.1174 -1.48215,0.1029 -0.49829,0.5039 -0.75358,3.7173 -0.38773,4.8808 0.0974,0.3099 0.72873,0.2136 2.43443,-0.3714 z m 3.09239,14.87025 c -0.0755,-0.4247 -0.21866,-0.8601 -0.31816,-0.9677 -0.0995,-0.1076 -0.18495,-0.5708 -0.18989,-1.0295 -0.005,-0.4586 -0.0983,-1.2507 -0.20748,-1.7603 -0.10918,-0.5096 -0.24752,-1.2508 -0.30739,-1.6471 -0.0599,-0.3963 -0.21272,-1.401 -0.33965,-2.23255 l -0.23078,-1.512 -0.61454,0.1229 c -1.05916,0.2119 -1.53342,1.2762 -0.80583,1.80845 0.20227,0.1479 0.48833,0.686 0.63568,1.1955 0.14736,0.5096 0.40811,1.2179 0.57945,1.574 0.17604,0.3658 0.25171,0.8361 0.17396,1.0811 -0.0884,0.2784 0.005,0.636 0.25957,0.9996 0.21842,0.3113 0.46238,0.9234 0.54208,1.3601 0.20255,1.1099 0.481,1.7795 0.73992,1.7795 0.14172,0 0.17134,-0.2753 0.0831,-0.772 z m 372.37043,35.3099 c 0,-0.3102 -0.41771,-0.8442 -1.27412,-1.6166 l -1.27883,-1.1533 0.27517,-1.4584 c 0.28707,-1.5215 0.14744,-2.3352 -0.54034,-3.1484 -0.15125,-0.1787 -0.27491,-0.4424 -0.27491,-0.5859 0,-0.1435 -0.1667,-0.5068 -0.37041,-0.8073 -0.47489,-0.7008 -1.89438,-3.7805 -1.89438,-4.1101 0,-0.138 -0.09,-0.4118 -0.20004,-0.6085 -0.10996,-0.1966 -0.43095,-1.284 -0.71323,-2.4164 -0.71808,-2.8804 -1.07854,-4.1224 -1.33576,-4.603 -0.12192,-0.2278 -0.22167,-0.6108 -0.22167,-0.851 0,-0.4336 -1.08494,-2.8079 -1.45445,-3.183 -0.10596,-0.1076 -0.19267,-0.6017 -0.19267,-1.0979 0,-0.5525 -0.23938,-1.4478 -0.61767,-2.3096 -0.33966,-0.774 -0.61761,-1.5583 -0.61761,-1.743 0,-0.1847 -0.19022,-0.7251 -0.42269,-1.2008 -0.23246,-0.4758 -0.68577,-1.7916 -1.00734,-2.924 -0.32156,-1.1324 -0.79231,-2.7538 -1.0461,-3.6031 -0.25386,-0.8493 -0.58479,-2.1464 -0.73546,-2.8824 -0.59862,-2.92445 -0.95101,-3.80725 -1.21235,-3.03695 -0.0478,0.1416 -0.23538,1.32285 -0.41635,2.62515 -0.48419,3.4837 -0.53071,3.7793 -0.64843,4.1178 -0.0588,0.1698 -0.14512,0.8135 -0.19125,1.4304 -0.0459,0.6168 -0.17671,1.2144 -0.2903,1.3279 -0.11352,0.1136 -0.20643,0.6921 -0.20643,1.2856 0,0.5934 -0.0927,1.1363 -0.20591,1.2062 -0.1132,0.07 -0.20772,0.5619 -0.20998,1.0931 -0.006,1.0874 -0.0906,1.6825 -1.12022,7.7602 -0.40284,2.378 -0.8241,4.509 -0.93614,4.7354 -0.11203,0.2265 -0.24965,0.8287 -0.30593,1.3383 -0.0562,0.5096 -0.19538,1.4129 -0.30916,2.0074 -0.11378,0.5945 -0.2817,1.521 -0.37313,2.0589 -0.0914,0.5379 -0.27672,1.1803 -0.41176,1.4277 -0.13503,0.2473 -0.24552,0.6298 -0.24552,0.8499 0,0.2201 -0.2085,0.5456 -0.46325,0.7234 -0.38896,0.2712 -0.40543,0.3248 -0.10299,0.3339 0.19816,0.01 0.36033,0.052 0.36033,0.1036 0,0.2912 -0.463,2.3392 -0.6074,2.6867 -0.28313,0.6814 -1.04398,4.459 -0.93395,4.637 0.1238,0.2003 1.15453,0.3728 3.08554,0.5163 0.79264,0.059 1.67283,0.1508 1.95588,0.2042 2.84642,0.5369 11.00523,1.0654 11.21469,0.7264 0.25728,-0.4163 2.42367,-0.2139 4.43293,0.4141 0.28305,0.088 0.86216,0.1682 1.28678,0.1771 0.6669,0.014 0.77274,-0.046 0.77681,-0.447 z m -231.86261,5.9519 c 0.12613,-0.152 0.17474,-0.3309 0.10803,-0.3976 -0.19895,-0.199 -0.6987,0.078 -0.6987,0.387 0,0.3639 0.29308,0.3692 0.59067,0.01 z m -36.0775,-32.4091 c -0.02,-0.5376 -0.0944,-1.0701 -0.16567,-1.1834 -0.0713,-0.1132 -0.0882,-0.7154 -0.0377,-1.3382 0.0505,-0.6228 0.0929,-1.297 0.094,-1.4981 0.003,-0.4189 2.56288,-2.3957 3.11716,-2.4067 0.19816,-0.01 0.3603,-0.099 0.3603,-0.2115 0,-0.1124 -0.34743,-0.196 -0.77208,-0.1856 -1.0594,0.026 -2.40456,-0.6821 -2.71349,-1.4279 -0.15238,-0.3679 -0.19245,-0.9101 -0.10336,-1.3988 0.16183,-0.8879 1.34578,-3.2318 1.97909,-3.9183 0.59615,-0.646 2.72329,-1.6157 4.44306,-2.0253 l 1.49494,-0.3561 1.84443,1.9272 c 1.01446,1.06 1.8473,2.0862 1.85076,2.2806 0.0113,0.6313 -0.67499,1.8859 -1.68572,3.0817 -0.54404,0.6436 -0.90315,1.2234 -0.79802,1.2884 0.10513,0.065 0.63891,0.1759 1.18618,0.2466 1.13474,0.1465 1.8039,0.656 2.25653,1.7183 0.16959,0.398 0.48814,1.0943 0.70786,1.5472 0.21975,0.453 0.39926,0.9019 0.39895,0.9976 0,0.096 0.19103,0.4433 0.42523,0.7721 0.37756,0.5303 0.54845,0.598 1.50828,0.598 0.88722,0 1.16933,0.092 1.56401,0.5126 0.46432,0.4942 0.4684,0.527 0.11386,0.9188 -0.43811,0.4841 -0.2767,1.1138 0.24746,0.9653 0.63282,-0.1791 3.01797,-0.4285 3.57153,-0.3734 0.2943,0.029 0.65604,-0.094 0.80651,-0.2755 0.23138,-0.2788 0.17453,-0.5382 -0.37421,-1.7074 -0.7093,-1.5114 -0.71507,-1.5426 -0.68085,-3.6877 0.0214,-1.343 0.0835,-1.5537 0.64651,-2.1949 l 0.6228,-0.7094 -0.82759,-0.9561 c -0.45516,-0.526 -0.88205,-1.206 -0.94864,-1.5112 -0.0666,-0.3052 -0.20502,-0.8206 -0.30764,-1.1453 -0.15806,-0.5001 -0.0727,-0.7749 0.55854,-1.7975 0.73881,-1.197 1.40684,-1.8219 3.11448,-2.91385 0.84756,-0.5418 2.0599,-0.75 2.39836,-0.4117 0.085,0.085 0.63317,0.1744 1.21818,0.1988 3.59556,0.1501 3.62466,0.1548 3.95692,0.62925 0.17676,0.2523 0.43193,0.4605 0.56706,0.4627 0.13512,0 0.67861,0.2758 1.20774,0.6081 0.93494,0.5872 0.96033,0.6301 0.90027,1.5209 -0.034,0.5042 -0.19018,1.1 -0.34706,1.324 -0.40081,0.5722 -2.2662,2.209 -2.69912,2.3683 -0.54955,0.2023 -0.42953,0.7016 0.20588,0.8568 0.31141,0.076 0.91497,0.3776 1.34126,0.6701 0.6258,0.4294 0.83633,0.754 1.09309,1.6856 0.17488,0.6346 0.49782,1.4907 0.7176,1.9024 0.2459,0.4606 0.39964,1.1537 0.39964,1.8016 0,0.771 0.0781,1.0529 0.29168,1.0529 0.16041,0 0.32254,0.084 0.3603,0.1874 0.0397,0.1085 0.79027,0.071 1.78108,-0.089 0.94184,-0.1518 2.22216,-0.2296 2.8452,-0.1728 0.95682,0.087 1.33046,0.01 2.40532,-0.5016 0.69992,-0.3326 1.52739,-0.6652 1.83875,-0.7391 0.36647,-0.087 0.56624,-0.2695 0.56624,-0.5172 0,-0.2105 0.18556,-0.5098 0.41247,-0.6652 0.52916,-0.3623 0.85079,-2.0171 0.58156,-2.9922 -0.10796,-0.3908 -0.16288,-0.8675 -0.12218,-1.0593 0.0407,-0.1918 -0.13871,-0.7563 -0.3989,-1.2545 -0.26012,-0.4981 -0.47295,-1.0285 -0.47295,-1.1788 0,-0.1503 -0.18498,-0.5766 -0.41105,-0.9473 -0.22601,-0.3708 -0.41131,-0.8376 -0.41176,-1.0374 0,-0.1997 -0.39451,-0.8651 -0.8758,-1.4785 -0.48128,-0.6134 -1.19929,-1.5519 -1.59562,-2.08545 -0.39632,-0.5335 -0.88277,-1.1422 -1.08093,-1.3525 -0.19816,-0.2102 -0.36033,-0.473 -0.36033,-0.5838 0,-0.3942 -4.8269,-4.9457 -5.24497,-4.9457 -0.0746,0 -0.43927,-0.2317 -0.81042,-0.5147 -0.37837,-0.2886 -0.95026,-0.5148 -1.30173,-0.5148 -0.3448,0 -0.82949,-0.164 -1.07711,-0.3646 -0.38977,-0.3155 -0.69,-0.3442 -2.23612,-0.2134 -0.98226,0.083 -2.01753,0.1093 -2.30062,0.058 -1.97861,-0.3562 -8.15382,-0.1667 -8.97554,0.2755 -0.89214,0.4801 -3.21586,1.1361 -5.64257,1.5932 -0.70863,0.1334 -0.92652,0.2127 -2.98539,1.0863 -0.5662,0.2403 -1.40004,0.4976 -1.853,0.572 -0.45296,0.074 -0.91621,0.1924 -1.02945,0.2625 -0.11324,0.07 -0.48384,0.1416 -0.82355,0.159 -1.03991,0.053 -4.10386,0.6956 -4.31243,0.9042 -0.10809,0.1081 -0.41915,0.1966 -0.69121,0.1966 -0.27208,0 -0.92526,0.2262 -1.45151,0.5026 -0.52628,0.2765 -1.58224,0.8019 -2.3466,1.1676 -0.76436,0.3656 -1.39873,0.7649 -1.4097,0.887 -0.0109,0.1223 -0.004,0.5687 0.0156,0.99215 0.0231,0.5017 -0.11791,0.9855 -0.40484,1.3884 -0.25376,0.3564 -0.37364,0.7265 -0.28291,0.8733 0.0866,0.1401 0.17049,1.2294 0.18641,2.4206 0.0224,1.6747 0.13239,2.4459 0.48518,3.4011 0.25096,0.6794 0.54011,1.5596 0.6426,1.9559 0.10247,0.3963 0.37502,1.0877 0.60568,1.5363 0.23064,0.4486 0.41936,0.9607 0.41936,1.138 0,0.8714 2.47532,4.6805 2.87929,4.4309 0.0942,-0.058 0.15497,-0.5457 0.13511,-1.0834 z m -0.94655,3.8793 c -1.71258,-1.7418 -2.40108,-2.6161 -3.0648,-3.8919 -0.47083,-0.905 -0.85604,-1.7902 -0.85604,-1.9673 0,-0.321 -0.12216,-0.6315 -1.11951,-2.8452 -0.29018,-0.6441 -0.52761,-1.4244 -0.52761,-1.7339 0,-0.3095 -0.13018,-0.709 -0.28929,-0.8878 -0.20453,-0.2298 -0.3257,-1.1696 -0.41353,-3.2074 -0.0683,-1.5854 -0.23045,-3.6491 -0.36026,-4.5861 l -0.23608,-1.70375 0.6165,-0.767 c 0.33908,-0.4219 0.89152,-0.906 1.22767,-1.0759 0.33616,-0.1698 0.93509,-0.5607 1.33097,-0.8686 0.92351,-0.7183 1.98209,-1.1564 3.4438,-1.4255 0.64116,-0.118 1.26961,-0.3001 1.39661,-0.4046 0.12697,-0.1046 1.2609,-0.3783 2.51985,-0.6083 1.25893,-0.2299 2.59111,-0.5424 2.96039,-0.6943 0.36929,-0.1519 1.0647,-0.341 1.54539,-0.4201 0.48066,-0.079 0.92621,-0.2285 0.99011,-0.3319 0.0639,-0.1034 0.31187,-0.188 0.55107,-0.188 0.23918,0 0.59086,-0.1412 0.78149,-0.3137 0.19063,-0.1725 1.03177,-0.453 1.8692,-0.6233 0.83744,-0.1704 1.98586,-0.4775 2.55205,-0.6827 2.3429,-0.8489 3.96481,-1.3527 4.83839,-1.5029 3.33582,-0.5736 4.93992,-0.7506 5.95069,-0.6569 1.51242,0.1403 4.19311,0.2699 5.44185,0.2629 0.54732,-0.01 1.10321,0.077 1.23533,0.1789 0.1321,0.1014 0.88874,0.3911 1.68141,0.6439 0.79267,0.2528 1.73453,0.6149 2.09303,0.8047 0.90509,0.479 3.5689,2.5247 3.5689,2.7407 0,0.098 0.50448,0.7102 1.12105,1.3615 1.12881,1.1923 2.87995,3.4244 3.3569,4.2788 0.14144,0.2534 0.48665,0.6111 0.76706,0.7949 0.45725,0.2996 1.7552,2.54795 1.7552,3.04035 0,0.108 0.27796,0.7566 0.61768,1.4412 0.33972,0.6848 0.61768,1.4617 0.61768,1.7264 0,0.2648 0.0926,0.5387 0.20591,0.6087 0.1132,0.07 0.20585,0.3103 0.20585,0.5341 0,0.2238 0.13865,0.6184 0.30806,0.877 0.55862,0.8526 0.42682,4.1703 -0.19286,4.855 -0.17658,0.1952 -0.32105,0.4982 -0.32105,0.6737 0,0.4376 -0.49143,0.8074 -1.28807,0.9693 -0.47825,0.097 -0.68649,0.2647 -0.73346,0.5896 -0.0872,0.6038 -0.79749,1.0752 -1.62017,1.0752 -0.36718,0 -1.06459,0.1325 -1.54981,0.2945 -0.54926,0.1834 -1.76025,0.2977 -3.2083,0.3028 -1.27935,0.01 -2.39873,0.053 -2.48753,0.108 -0.0888,0.055 -0.98256,0.1566 -1.98614,0.2261 -1.00359,0.07 -1.97926,0.2091 -2.16812,0.3101 -0.18889,0.1011 -0.87317,0.2328 -1.52066,0.2928 -0.64749,0.06 -1.26652,0.164 -1.37564,0.2315 -0.1091,0.067 -0.3288,0.014 -0.48822,-0.1179 -0.22455,-0.1864 -0.55893,-0.1477 -1.48368,0.1716 -0.6566,0.2266 -1.47178,0.4043 -1.81149,0.3947 -0.33972,-0.01 -1.9611,0.1448 -3.60306,0.343 -1.64197,0.1983 -3.77291,0.4368 -4.73544,0.5302 -1.88922,0.1831 -3.3968,0.432 -5.66195,0.9344 -0.79267,0.1758 -1.90447,0.403 -2.47066,0.505 -1.66091,0.299 -2.23937,0.4343 -2.67656,0.6262 -0.99461,0.4363 -3.41263,1.0236 -4.21498,1.0236 -0.8427,0 -0.96115,-0.086 -3.08512,-2.2464 z m -29.3005,0.044 c -0.85316,-0.2223 -1.2853,-2.7219 -0.61382,-3.5505 0.45197,-0.5577 1.69859,-0.8065 1.69859,-0.339 0,0.174 0.18495,0.6196 0.41101,0.9904 0.52471,0.8606 0.52049,1.4803 -0.0161,2.3484 -0.41005,0.6635 -0.67246,0.7611 -1.47974,0.5507 z m 25.86763,13.7918 c -0.0494,-1.1661 -0.19794,-2.1738 -0.35668,-2.4192 -0.14962,-0.2314 -0.32936,-0.6538 -0.3994,-0.9388 -0.0701,-0.285 -0.5088,-1.0262 -0.97499,-1.6471 -0.46617,-0.6209 -1.01454,-1.4533 -1.21859,-1.8496 -1.72537,-3.3515 -2.06215,-4.0436 -2.0648,-4.2438 -0.002,-0.1258 -0.26927,-0.8207 -0.59463,-1.5441 -0.32537,-0.7234 -0.97756,-2.6124 -1.44932,-4.1977 -0.47175,-1.5854 -0.96452,-3.2068 -1.09505,-3.6031 -0.55321,-1.6799 -1.0522,-6.6036 -1.04702,-10.3313 0.005,-3.47815 0.1129,-3.31755 -2.09666,-3.11635 -1.37025,0.12475 -1.64236,0.12855 -4.37172,0.06 -1.50569,-0.038 -2.013,0.026 -2.43925,0.3052 -0.43434,0.2846 -0.78262,0.3246 -1.80495,0.2074 -0.69671,-0.08 -1.59102,-0.2653 -1.98736,-0.4121 -0.39634,-0.14685 -1.2424,-0.32075 -1.88013,-0.38645 -1.37697,-0.1418 -1.35181,-0.1622 -2.60213,2.11545 -0.2571,0.4683 -0.41808,0.8514 -0.35774,0.8514 0.0603,0 -0.12449,0.3711 -0.41076,0.8246 -0.72527,1.1488 -1.20392,3.5453 -1.41852,7.1021 -0.0136,0.2266 -0.096,0.5226 -0.18307,0.6579 -0.24913,0.3875 0.0423,4.105 0.47408,6.0484 0.21569,0.9707 0.40722,2.1751 0.42565,2.6766 0.0474,1.2894 0.60388,3.7011 0.99214,4.2997 0.18038,0.2781 0.33846,0.7414 0.35129,1.0294 0.0128,0.2881 0.14529,0.8481 0.29437,1.2444 0.14911,0.3964 0.46289,1.2617 0.69731,1.9229 0.27299,0.7701 0.82524,1.6583 1.53608,2.4707 1.31754,1.5057 1.81448,1.8091 2.16916,1.324 0.1356,-0.1855 0.4889,-0.398 0.78511,-0.4723 0.45603,-0.1144 0.58854,-0.039 0.86445,0.495 0.38635,0.747 0.8923,1.0541 1.73713,1.0541 0.34047,0 0.67477,0.09 0.74291,0.2003 0.0693,0.1122 1.13953,0.1937 2.43134,0.1851 5.022,-0.034 13.56803,1.0339 14.34465,1.7912 0.1658,0.1618 0.45678,0.294 0.64659,0.294 0.305,0 0.33529,-0.2323 0.26051,-1.9985 z m 0.57863,4.5493 c -0.60237,-0.1365 -1.25092,-0.3801 -1.44122,-0.5414 -0.70962,-0.6015 -1.84746,-0.9412 -3.94906,-1.179 -1.189,-0.1344 -2.4861,-0.3454 -2.88243,-0.4686 -0.39634,-0.1233 -1.78609,-0.2119 -3.08834,-0.197 -1.30225,0.015 -3.57217,-0.1095 -5.04427,-0.2764 -1.47211,-0.1668 -3.04716,-0.3347 -3.50012,-0.3729 -1.09508,-0.093 -1.72679,-0.3041 -2.46774,-0.8264 -0.61653,-0.4347 -1.23229,-0.4696 -1.68835,-0.096 -0.33972,0.2784 -1.01823,-0.1185 -1.38916,-0.8125 -0.16464,-0.3081 -0.58464,-0.8584 -0.93331,-1.2231 -0.9461,-0.9894 -2.27172,-4.151 -2.27172,-5.4182 0,-0.4035 -0.081,-0.8218 -0.18007,-0.9293 -0.0991,-0.1076 -0.42913,-1.0295 -0.73354,-2.0486 -0.30441,-1.0192 -0.63277,-2.0847 -0.72969,-2.3677 -0.0969,-0.2832 -0.226,-1.3023 -0.2868,-2.2648 -0.0608,-0.9626 -0.26581,-2.2597 -0.45553,-2.8825 -0.28996,-0.9518 -0.32454,-1.6871 -0.21701,-4.6123 0.11528,-3.1357 0.28339,-4.3238 0.7461,-5.2729 0.0835,-0.1712 0.0738,-0.5222 -0.0216,-0.7799 -0.11334,-0.3064 -0.0636,-0.7688 0.14363,-1.3358 0.17434,-0.4769 0.45931,-1.2609 0.63329,-1.7422 0.17398,-0.4812 0.40651,-0.875 0.51674,-0.875 0.11023,0 0.13968,-0.1913 0.0655,-0.4251 -0.17457,-0.5501 1.54778,-4.06205 2.47345,-5.04355 0.81184,-0.8608 1.21938,-0.8796 2.62257,-0.1204 1.53076,0.8282 2.01139,0.9603 2.01139,0.5529 0,-0.2841 0.18788,-0.3068 1.38975,-0.1683 1.25368,0.1444 5.80635,0.1594 7.69215,0.025 0.56231,-0.04 0.90991,0.087 1.42702,0.5223 0.749,0.6303 1.27604,0.6507 3.11788,0.1207 0.74196,-0.2134 1.08394,-0.2231 1.48157,-0.042 0.71096,0.324 0.90542,1.408 0.41973,2.3399 -0.35178,0.67495 -0.55384,1.40685 -0.88948,3.22215 -0.36288,1.9625 0.1742,9.3448 0.76269,10.4833 0.10563,0.2043 0.25885,0.7421 0.34052,1.1951 0.0817,0.4529 0.21763,0.9162 0.30215,1.0295 0.19777,0.2649 0.77189,2.2497 0.93197,3.222 0.0681,0.4133 0.26025,0.8647 0.42712,1.0032 0.16685,0.1385 0.30337,0.427 0.30337,0.6411 0,0.2142 0.0819,0.5503 0.18187,0.7469 0.10004,0.1967 0.27333,0.5891 0.38514,0.8722 1.07138,2.7131 4.36157,7.6699 6.43942,9.7012 0.72365,0.7075 0.75699,0.7983 0.66063,1.8012 l -0.10148,1.056 0.76922,0.3214 c 0.42308,0.1768 0.81625,0.5012 0.87373,0.721 0.0574,0.2198 0.18635,0.3997 0.28637,0.3997 0.3057,0 0.2055,0.3825 -0.31697,1.2102 -0.39499,0.6257 -0.66289,0.8168 -1.2868,0.9181 -0.43338,0.07 -1.15856,0.2036 -1.61151,0.2962 -0.51686,0.1057 -1.23142,0.076 -1.91878,-0.08 z m 11.27047,11.121 c 2.42569,-0.041 5.29784,-0.1877 6.38255,-0.3247 1.08472,-0.137 3.03768,-0.2583 4.33993,-0.2694 1.30224,-0.011 3.06259,-0.1305 3.91189,-0.2655 0.84929,-0.1349 2.41248,-0.2949 3.47374,-0.3555 1.06127,-0.061 2.02356,-0.1682 2.13842,-0.2392 0.11486,-0.071 0.77527,-0.1971 1.46759,-0.2803 0.6923,-0.083 1.5367,-0.2525 1.87641,-0.3764 0.33972,-0.1238 0.85734,-0.2721 1.15029,-0.3295 0.29294,-0.058 0.87861,-0.4306 1.30146,-0.8294 0.42287,-0.3988 0.84884,-0.7251 0.94659,-0.7251 0.0978,0 0.88125,-0.5591 1.74111,-1.2424 0.85985,-0.6833 1.79242,-1.3467 2.07237,-1.4742 0.27997,-0.1276 0.509,-0.2982 0.509,-0.3791 0,-0.081 0.73268,-0.7139 1.62818,-1.4066 1.68672,-1.3049 3.17289,-3.0144 4.31927,-4.9686 0.36537,-0.6228 0.93543,-1.5493 1.26675,-2.0589 0.56987,-0.8763 1.00683,-1.7144 1.50297,-2.8825 0.12024,-0.283 0.46791,-0.7926 0.77268,-1.1324 0.95804,-1.0679 2.57543,-3.6521 3.15725,-5.0442 0.30755,-0.7361 0.69418,-1.6051 0.85913,-1.9313 0.16495,-0.3261 0.39367,-1.2669 0.50822,-2.0905 0.21057,-1.514 0.15733,-4.7287 -0.0823,-4.9684 -0.12418,-0.1241 -0.006,-3.081 0.16883,-4.2079 0.0459,-0.2948 -0.0601,-1.1286 -0.23421,-1.853 -0.17445,-0.7245 -0.35064,-1.7343 -0.39154,-2.2442 -0.0981,-1.2221 -0.77481,-4.0087 -1.22495,-5.0437 -0.197,-0.4529 -0.58783,-1.3794 -0.86843,-2.0589 -0.89027,-2.15555 -1.34564,-2.99075 -2.04931,-3.75905 -0.37688,-0.4114 -0.68526,-0.8262 -0.68526,-0.9217 0,-0.095 -0.3781,-0.5638 -0.8402,-1.0407 -0.46215,-0.4769 -0.97057,-1.0987 -1.1299,-1.3817 -0.15933,-0.2831 -0.63344,-0.7927 -1.0536,-1.1324 -0.42017,-0.3398 -1.24214,-1.1133 -1.82674,-1.7192 -0.58459,-0.6059 -1.39396,-1.3007 -1.79868,-1.5442 -0.40472,-0.2434 -1.29887,-0.8827 -1.98697,-1.4206 -0.68815,-0.5379 -1.3481,-0.978 -1.46659,-0.978 -0.24004,0 -2.03762,-0.9622 -2.34328,-1.2543 -0.10758,-0.1028 -0.39766,-0.1869 -0.64462,-0.1869 -0.24698,0 -1.0644,-0.2316 -1.81654,-0.5147 -0.75211,-0.2831 -1.5275,-0.5153 -1.72308,-0.516 -0.1956,0 -0.58724,-0.1219 -0.87034,-0.2693 -1.03337,-0.5382 -5.8752,-1.8717 -6.15898,-1.6963 -0.0897,0.056 -0.75569,0 -1.48009,-0.1156 -0.7244,-0.119 -1.59504,-0.2443 -1.93476,-0.2786 -0.33971,-0.034 -0.75664,-0.116 -0.9265,-0.1817 -0.16986,-0.066 -1.00303,-0.1628 -1.85152,-0.2158 -1.40568,-0.088 -1.6023,-0.051 -2.21449,0.4159 -0.39828,0.3038 -0.77616,0.448 -0.92801,0.3541 -0.14086,-0.087 -1.13632,-0.181 -2.21209,-0.2088 -1.07577,-0.028 -2.14124,-0.058 -2.36772,-0.067 -0.22647,-0.01 -1.61623,0.026 -3.08834,0.079 -2.65263,0.094 -3.52823,0.2027 -4.32366,0.5365 -0.73974,0.3104 -2.25351,0.6635 -2.7795,0.6484 -0.2831,-0.01 -1.01267,0.2306 -1.62127,0.5305 l -1.10655,0.5453 -0.89846,-0.4766 c -0.98366,-0.5218 -2.10872,-0.4933 -2.73033,0.069 -0.18413,0.1666 -0.42743,0.3221 -0.54067,0.3455 -0.11324,0.023 -0.4015,0.1316 -0.6406,0.2406 -0.30791,0.1402 -0.60818,0.1102 -1.02944,-0.1032 -0.91153,-0.4615 -4.12532,-0.2777 -6.3343,0.3625 -0.97989,0.284 -1.94234,0.516 -2.13879,0.5155 -0.63544,0 -4.0498,1.2811 -4.50473,1.6919 -0.28798,0.2601 -0.48911,0.3218 -0.57834,0.1774 -0.20079,-0.3249 -0.53009,-0.2702 -0.40085,0.067 0.13799,0.3597 -0.24202,0.6157 -0.5867,0.3953 -0.45157,-0.2888 -2.602,-0.2386 -2.85531,0.067 -0.12759,0.1537 -0.40156,0.2795 -0.60885,0.2795 -0.20729,0 -0.58971,0.089 -0.84981,0.1988 -0.26011,0.1094 -0.86609,0.2981 -1.34659,0.4194 -0.64194,0.162 -0.95724,0.3821 -1.18879,0.8298 -0.17331,0.3352 -0.62577,0.7392 -1.00543,0.8978 -1.35306,0.5654 -4.20736,2.8263 -4.55208,3.6058 -0.61594,1.3927 -0.89541,1.7692 -1.36614,1.8408 -0.25913,0.039 -0.69516,0.2479 -0.96899,0.4633 -0.27381,0.2154 -0.62467,0.3916 -0.77967,0.3916 -0.15498,0 -0.62754,0.1853 -1.05009,0.4118 -0.42256,0.2265 -0.90863,0.4129 -1.08018,0.4142 -0.17152,0 -0.71478,0.2328 -1.2072,0.5143 -0.49245,0.2815 -0.97833,0.4606 -1.07975,0.3979 -0.10141,-0.063 -0.65579,0.1228 -1.23195,0.4122 -0.57614,0.2894 -1.16453,0.5261 -1.30754,0.5261 -0.14299,0 -0.42769,0.1853 -0.63266,0.4118 -0.20495,0.2265 -0.52143,0.41185 -0.70329,0.41185 -0.18186,0 -0.70023,0.3226 -1.15195,0.7168 -1.02275,0.8925 -2.01232,1.1274 -2.58123,0.6125 -0.31861,-0.2883 -0.81178,-0.3753 -2.30802,-0.4071 -2.38042,-0.051 -6.18296,0.2894 -6.35821,0.5687 -0.0891,0.142 -0.55545,0.1362 -1.44123,-0.018 -2.46609,-0.4294 -4.49358,-0.678 -4.66519,-0.5719 -0.0944,0.058 -2.15747,0.012 -4.58463,-0.1041 -2.42717,-0.1156 -4.94199,-0.2293 -5.58853,-0.2527 -0.80776,-0.029 -1.35524,-0.1741 -1.75005,-0.4632 -1.05916,-0.77575 -4.13474,-2.17335 -5.03584,-2.28845 -0.49051,-0.063 -1.14202,-0.2402 -1.44779,-0.3945 -0.30578,-0.1542 -0.9302,-0.2804 -1.38759,-0.2804 -0.70858,0 -0.99897,-0.1516 -1.96319,-1.0248 -0.62236,-0.5636 -1.38771,-1.0796 -1.70074,-1.1467 -0.31306,-0.067 -0.94287,-0.2544 -1.39962,-0.4164 -0.45674,-0.162 -1.22534,-0.2945 -1.70799,-0.2945 -0.86599,0 -4.0717,0.9071 -4.4515,1.2596 -0.10757,0.1 -0.4133,0.1816 -0.67939,0.1816 -0.26609,0 -1.0902,0.2547 -1.83138,0.5661 l -1.34757,0.5662 0.12683,1.5442 c 0.23869,2.90635 0.79304,5.36315 1.39555,6.18505 0.31672,0.4322 0.35912,0.7301 0.24364,1.7127 -0.28105,2.3913 -1.37349,3.1159 -3.85744,2.5586 -0.75328,-0.1689 -1.36959,-0.2708 -1.36959,-0.2263 0,0.4292 1.08691,2.0497 2.02531,3.0197 2.44283,2.525 2.9671,3.0155 3.22292,3.0155 0.14503,0 0.52907,0.1384 0.85343,0.3076 0.32436,0.1692 0.78761,0.3082 1.02945,0.3088 0.24184,0 0.70509,0.1397 1.02944,0.3089 0.32436,0.1692 0.82135,0.3113 1.10445,0.3158 0.28309,0.01 1.25592,0.1963 2.16184,0.4261 2.56166,0.6496 3.10968,0.7527 5.97077,1.1232 1.47211,0.1906 2.76921,0.417 2.88244,0.503 0.11325,0.086 0.71547,0.2054 1.33829,0.2652 0.62281,0.06 1.91991,0.2649 2.88244,0.4558 0.96253,0.1908 2.3986,0.4215 3.19128,0.5126 1.58742,0.1825 4.34536,0.7692 4.83499,1.0285 0.17173,0.091 1.33138,0.2267 2.57701,0.3015 2.42263,0.1454 4.4195,0.3851 6.89727,0.8276 0.8493,0.1517 2.19272,0.3847 2.98539,0.5176 0.79268,0.1331 1.5802,0.2919 1.75006,0.353 0.16985,0.061 0.8341,0.094 1.47606,0.073 0.72376,-0.024 1.40327,0.084 1.78849,0.2832 0.34169,0.1766 0.75961,0.2681 0.92872,0.2032 0.1691,-0.065 0.61506,0.021 0.99101,0.19 0.79339,0.3576 1.86313,0.5777 2.74244,0.5645 0.5928,-0.01 2.82482,0.4081 4.11778,0.7694 0.42277,0.1181 0.61983,0.3045 0.62452,0.5906 0.007,0.4212 1.48864,2.536 1.77682,2.536 0.0852,0 0.40762,0.44 0.71649,0.9779 0.30888,0.5379 0.82237,1.3653 1.14108,1.8386 0.31872,0.4734 0.58154,1.0293 0.58405,1.2354 0.003,0.206 0.18577,0.6063 0.40721,0.8894 0.22143,0.2831 0.40467,0.6772 0.4072,0.8758 0.003,0.1986 0.18987,0.7067 0.41635,1.1293 0.22648,0.4225 0.41178,0.8917 0.41178,1.0424 0,0.1508 0.22056,0.5691 0.49014,0.9296 0.26957,0.3605 0.83314,1.3039 1.25237,2.0966 0.41924,0.7927 1.01208,1.7655 1.31743,2.1618 0.30535,0.3963 0.72228,0.9839 0.92652,1.3057 0.23397,0.3686 0.87912,0.8125 1.74402,1.2001 0.75498,0.3382 1.60431,0.7339 1.88741,0.8792 1.06187,0.5449 6.83594,2.38 7.48881,2.38 0.1922,0 0.55465,0.1307 0.80546,0.2905 0.25079,0.1599 1.10456,0.3954 1.89723,0.5234 0.79267,0.1281 2.32139,0.3761 3.39716,0.5511 6.26837,1.0198 10.67561,1.5422 11.56818,1.3712 0.30422,-0.058 1.32337,0 2.26478,0.1286 0.9414,0.1289 2.52156,0.2621 3.51143,0.2958 0.98987,0.034 1.86954,0.1312 1.95477,0.2164 0.0853,0.085 0.43348,0.091 0.77383,0.012 0.34036,-0.078 2.60351,-0.1765 5.0292,-0.2181 z m 42.01762,1.9757 c 0,-0.1132 -0.27796,-0.2059 -0.61768,-0.2059 -0.33972,0 -0.61767,0.093 -0.61767,0.2059 0,0.1132 0.27795,0.2059 0.61767,0.2059 0.33972,0 0.61768,-0.093 0.61768,-0.2059 z m 4.52951,0.218 c 0,-0.3046 -0.30102,-0.4142 -0.78779,-0.287 -0.65541,0.1714 -0.5459,0.4808 0.17012,0.4808 0.33972,0 0.61767,-0.087 0.61767,-0.1938 z m -2.26479,-0.012 c 0,-0.1132 -0.0927,-0.2059 -0.20585,-0.2059 -0.11326,0 -0.20591,0.093 -0.20591,0.2059 0,0.1132 0.0927,0.2059 0.20591,0.2059 0.1132,0 0.20585,-0.093 0.20585,-0.2059 z m -40.90194,0.9952 c 0.42183,-0.6729 -0.10091,-0.8978 -1.91662,-0.8247 -1.37975,0.055 -1.66616,0.1239 -1.61394,0.3852 0.15392,0.7704 3.09372,1.1364 3.53056,0.4395 z m -7.27603,9.0852 c 0,-0.1178 -0.18034,-0.5676 -0.40074,-0.9997 -0.4454,-0.873 -0.53789,-2.1435 -0.25296,-3.4747 0.21758,-1.0164 0.11763,-1.1285 -0.9497,-1.0646 -1.38376,0.083 -1.79169,-0.01 -2.33272,-0.5077 -0.4573,-0.424 -0.51627,-0.6104 -0.40715,-1.2868 0.11795,-0.7312 0.20525,-0.817 1.15452,-1.1348 0.5648,-0.189 1.56264,-0.3512 2.21741,-0.3602 1.03418,-0.014 1.21495,-0.077 1.37669,-0.4798 0.10243,-0.2548 0.19209,-0.3289 0.19926,-0.1647 0.01,0.2192 0.0739,0.2376 0.24219,0.069 0.33799,-0.338 0.0281,-0.7188 -0.39897,-0.4902 -0.1929,0.1032 -1.27592,0.1386 -2.4067,0.078 -1.13078,-0.06 -2.73697,-0.094 -3.56927,-0.076 -0.83232,0.018 -1.6326,-0.066 -1.77836,-0.1869 -0.15403,-0.1278 -1.71932,-0.259 -3.73686,-0.3131 -3.14441,-0.084 -4.23796,-0.2188 -7.89842,-0.9709 -0.62281,-0.1279 -1.41034,-0.251 -1.75005,-0.2732 -1.89964,-0.125 -5.78225,-0.8378 -6.17667,-1.1341 -0.11324,-0.085 -0.6454,-0.2202 -1.18259,-0.3001 l -0.97671,-0.1454 -0.51399,1.1041 c -0.28268,0.6073 -0.51488,1.2084 -0.51597,1.3358 -0.002,0.1275 -0.23714,0.7634 -0.52453,1.4133 -0.2874,0.6498 -0.55153,1.5237 -0.58698,1.942 -0.0355,0.4182 -0.23103,1.0146 -0.43462,1.3253 -0.21986,0.3356 -0.29472,0.6403 -0.18443,0.7506 0.10212,0.102 1.36078,0.281 2.79704,0.3977 1.43625,0.1166 3.00479,0.3475 3.48564,0.5132 0.48083,0.1657 0.92681,0.269 0.99102,0.2297 0.0642,-0.039 0.81166,0.1145 1.66095,0.3418 0.8493,0.2273 2.70229,0.5892 4.11778,0.8043 1.41549,0.2151 2.84223,0.4832 3.17053,0.5959 0.3283,0.1126 0.96495,0.2048 1.4148,0.2048 0.44983,0 1.75628,0.1349 2.9032,0.2998 1.1469,0.1648 2.8265,0.3407 3.73242,0.3907 0.90591,0.05 2.29566,0.2901 3.08833,0.5336 0.79267,0.2434 1.81182,0.5406 2.26478,0.6606 0.45295,0.1198 1.00885,0.2945 1.23533,0.3879 0.5805,0.2399 0.9265,0.2338 0.9265,-0.016 z m 20.69183,11.1261 c -0.22647,-0.097 -0.93745,-0.1834 -1.57993,-0.1913 -0.6425,-0.01 -1.61532,-0.1023 -2.16183,-0.2094 -0.54653,-0.1072 -1.78121,-0.3473 -2.74374,-0.5335 -0.96253,-0.1861 -2.2133,-0.444 -2.7795,-0.573 -0.56619,-0.129 -1.16842,-0.2422 -1.33828,-0.2514 -0.16985,-0.01 -0.4478,-0.075 -0.61766,-0.1462 -0.16986,-0.071 -1.05003,-0.1834 -1.95594,-0.2495 -0.90592,-0.066 -2.01772,-0.1567 -2.47067,-0.2012 -0.45296,-0.045 -1.98168,-0.1337 -3.39717,-0.1981 -1.41548,-0.065 -3.03686,-0.2063 -3.60306,-0.3151 -1.6189,-0.3112 -3.14289,-0.7203 -3.31151,-0.8889 -0.0849,-0.085 -0.35306,-0.1543 -0.59601,-0.1543 -0.24297,0 -0.82526,-0.1853 -1.29403,-0.4117 -0.46875,-0.2265 -1.01889,-0.4124 -1.22253,-0.4131 -0.20364,0 -0.61812,-0.1306 -0.92104,-0.2886 -0.33062,-0.1725 -1.48294,-0.3289 -2.88245,-0.3911 -1.28242,-0.057 -2.74857,-0.2414 -3.25815,-0.4097 -0.50957,-0.1682 -1.45653,-0.3553 -2.10437,-0.4156 -0.64783,-0.06 -1.48168,-0.2069 -1.853,-0.3256 -0.37132,-0.1187 -1.64796,-0.4124 -2.83696,-0.6528 -1.18901,-0.2403 -2.53243,-0.5265 -2.98539,-0.6361 -0.45296,-0.1096 -1.24048,-0.2784 -1.75006,-0.3751 -0.50957,-0.097 -1.2971,-0.2795 -1.75005,-0.4064 -0.45296,-0.1269 -1.28681,-0.3159 -1.853,-0.42 -0.56619,-0.1042 -1.63167,-0.3304 -2.36773,-0.5028 -0.73604,-0.1724 -1.98682,-0.316 -2.77949,-0.3191 -1.34452,-0.01 -2.58125,-0.171 -4.83839,-0.6492 -5.38848,-1.1416 -8.97513,-1.4916 -15.43302,-1.5062 l -4.21206,-0.01 -0.3175,-0.5662 c -0.47379,-0.845 0.007,-1.5755 1.40413,-2.1339 0.65285,-0.261 1.33107,-0.7288 1.69304,-1.168 0.36937,-0.4481 0.86298,-0.7853 1.27115,-0.8682 0.36702,-0.075 1.77912,-0.4637 3.13798,-0.8646 1.35886,-0.4008 2.77081,-0.7561 3.13765,-0.7895 0.36685,-0.034 1.13456,-0.2159 1.70605,-0.4058 1.07904,-0.3584 1.6418,-0.2121 1.6418,0.4267 0,0.4398 0.2833,0.5152 3.11174,0.8283 1.48125,0.164 3.35589,0.4062 4.16586,0.5382 0.80996,0.132 1.81519,0.2419 2.23381,0.2441 0.81853,0.01 1.60659,-0.5308 1.60659,-1.091 0,-0.1816 0.24109,-0.783 0.53576,-1.3366 0.29467,-0.5535 0.71697,-1.5719 0.93842,-2.2631 0.22146,-0.6912 0.5411,-1.5588 0.71032,-1.9281 0.1692,-0.3693 0.24851,-0.7671 0.17624,-0.884 -0.0723,-0.117 -0.0204,-0.3464 0.11524,-0.5099 0.3245,-0.3909 0.10809,-0.92 -0.3763,-0.92 -0.21116,0 -0.44079,-0.057 -0.51026,-0.1264 -0.0695,-0.07 -0.72382,-0.3351 -1.45409,-0.5902 -2.1913,-0.7657 -4.9634,-2.5521 -5.58169,-3.5969 -0.11857,-0.2004 -0.45763,-0.7247 -0.75347,-1.1652 -1.04865,-1.5615 -2.68426,-4.4397 -2.94851,-5.1886 -0.22685,-0.6429 -1.02249,-2.4291 -2.0349,-4.5685 -0.68242,-1.4421 -1.85937,-2.8602 -3.24664,-3.9119 -0.84936,-0.644 -1.43277,-0.8946 -2.86479,-1.2308 -0.62281,-0.1462 -1.78094,-0.5683 -2.57361,-0.9381 -0.85011,-0.3965 -1.94789,-0.7258 -2.67655,-0.8028 -2.32531,-0.2457 -2.83775,-0.3514 -3.13252,-0.6462 -0.20292,-0.2029 -0.56296,-0.2614 -1.1529,-0.1873 -0.47179,0.059 -1.32196,0.013 -1.88925,-0.1022 -2.82237,-0.5748 -7.19934,-1.1932 -9.16406,-1.2949 -0.50957,-0.026 -1.01914,-0.1009 -1.13239,-0.1656 -0.11323,-0.065 -0.46608,-0.1336 -0.78412,-0.1531 -0.31802,-0.019 -1.32473,-0.226 -2.23715,-0.459 -0.9124,-0.233 -1.69914,-0.3833 -1.74833,-0.3341 -0.0492,0.049 -0.4322,0.01 -0.85118,-0.09 -0.41897,-0.099 -1.31666,-0.2341 -1.99486,-0.3008 -0.6782,-0.067 -1.29323,-0.2187 -1.36673,-0.3376 -0.0735,-0.119 -0.2161,-0.1654 -0.31688,-0.1031 -0.28687,0.1773 -3.58017,-0.2721 -4.4953,-0.6134 -0.50577,-0.1887 -1.43258,-0.2949 -2.4019,-0.2755 -1.43037,0.029 -3.03445,-0.2507 -3.56888,-0.622 -0.11324,-0.079 -0.80811,-0.2069 -1.54416,-0.285 -1.27439,-0.1352 -4.43335,-0.891 -7.10317,-1.6994 -1.62994,-0.4936 -5.03285,-0.5117 -6.18978,-0.033 -1.03161,0.427 -3.44703,0.8744 -4.51645,0.8366 -0.9562,-0.034 -4.31724,0.4784 -4.68868,0.7144 -0.13895,0.088 -1.00492,0.1722 -1.92436,0.1863 -0.91944,0.014 -1.7817,0.094 -1.91613,0.1769 -0.36641,0.2265 -5.5368,0.1469 -5.98333,-0.092 -0.49426,-0.2645 -0.82329,-0.2656 -0.41443,0 0.22192,0.1434 0.0191,0.1996 -0.72062,0.1996 -0.61532,0 -0.92232,-0.068 -0.76312,-0.1689 0.14762,-0.094 -0.26529,-0.1269 -0.9265,-0.075 -0.65605,0.052 -1.30864,0.1869 -1.45019,0.3002 -0.17167,0.1374 -0.34304,0.137 -0.51471,0 -0.17396,-0.1398 -0.79115,-0.1151 -1.90448,0.076 -3.23608,0.5564 -4.44376,0.6765 -7.82377,0.7781 -1.24563,0.038 -3.23761,0.141 -4.42662,0.23 -1.189,0.089 -2.46441,0.1547 -2.83423,0.146 -0.36979,-0.01 -0.63287,0.048 -0.58462,0.1262 0.0483,0.078 -1.14622,0.139 -2.6544,0.1353 l -2.74213,-0.01 -0.76296,-0.6342 c -0.67286,-0.5593 -0.73503,-0.6864 -0.52639,-1.0762 0.17996,-0.3363 0.42892,-0.4421 1.04072,-0.4421 0.44229,0 0.86873,0.1045 0.94762,0.2322 0.15873,0.2568 4.59817,0.087 6.26339,-0.2401 0.50958,-0.1 2.31625,-0.2255 4.01483,-0.279 3.71926,-0.1172 8.12049,-0.4704 9.3047,-0.7468 0.4748,-0.1109 1.27285,-0.2016 1.77343,-0.2016 0.50059,0 1.4042,-0.094 2.00799,-0.2082 0.74165,-0.1406 1.63585,-0.1401 2.75613,0 3.75984,0.4754 8.10982,0.3338 10.15842,-0.3307 0.48523,-0.1573 1.31908,-0.2883 1.853,-0.291 0.53392,0 1.34138,-0.1037 1.79434,-0.2244 0.45295,-0.1207 1.1015,-0.249 1.44122,-0.285 2.10049,-0.2229 3.63649,-0.5259 4.58864,-0.9052 0.59871,-0.2384 1.31965,-0.4335 1.60211,-0.4335 0.86751,0 0.82222,-0.548 -0.13218,-1.5988 -0.48689,-0.5362 -1.03491,-1.0503 -1.21782,-1.1425 -0.29604,-0.1492 -1.85536,-3.0969 -1.85536,-3.5073 0,-0.3525 -1.27244,-1.987 -1.54682,-1.987 -0.60346,0 -0.89097,-1.2624 -1.04995,-4.6103 -0.0532,-1.1203 -0.18739,-2.20625 -0.29819,-2.41335 -0.22212,-0.415 -0.82061,-0.371 -2.35521,0.1732 -0.73894,0.26215 -1.7488,0.48625 -3.45928,0.76785 -0.31726,0.052 -1.3611,0.2508 -2.31963,0.4411 -1.68271,0.3342 -1.7578,0.3328 -2.1779,-0.043 -1.01661,-0.90925 -1.41076,-1.86395 -1.54173,-3.73425 -0.17179,-2.4536 -0.15378,-2.4679 3.90291,-3.1014 3.52581,-0.5505 4.8841,-0.6686 5.18386,-0.4507 0.11323,0.082 0.37677,0.1468 0.58562,0.1434 0.33976,-0.01 0.36523,-0.1273 0.24194,-1.1558 -0.0758,-0.6322 -0.27696,-1.6378 -0.447,-2.2345 -0.17006,-0.5968 -0.26786,-1.199 -0.21734,-1.3383 0.0505,-0.1393 -0.0461,-0.4118 -0.21468,-0.6055 -0.22518,-0.2587 -0.27002,-0.5959 -0.16891,-1.2701 0.19514,-1.3014 1.08425,-1.9519 2.89947,-2.1215 0.74194,-0.069 1.40149,-0.2108 1.46564,-0.3147 0.0642,-0.1038 0.14389,-1.1788 0.17719,-2.3888 0.077,-2.8006 0.84462,-6.2738 1.49864,-6.7811 0.45973,-0.3565 1.61018,-0.322 2.20252,0.066 0.38228,0.2505 0.58929,0.2724 0.9174,0.097 0.32835,-0.1757 0.57476,-0.1493 1.09473,0.1171 0.36904,0.1891 0.73906,0.4467 0.82226,0.5724 0.24974,0.3775 0.18067,3.1086 -0.0853,3.3746 -0.17867,0.1787 -0.18394,0.3665 -0.02,0.7103 0.12258,0.2571 0.20315,0.7454 0.17901,1.0851 -0.0241,0.3397 -0.0148,0.6787 0.0206,0.7533 0.0921,0.1938 1.84555,-0.3042 3.0046,-0.8534 0.72051,-0.3414 1.20684,-0.4372 1.8096,-0.3563 1.36422,0.183 1.42428,0.3105 1.28835,2.7359 -0.0992,1.7712 -0.0622,2.2289 0.21464,2.6514 0.18402,0.2808 0.33459,0.693 0.33459,0.9158 0,0.6596 0.68779,0.6932 2.92795,0.1429 3.69072,-0.9064 5.25766,-0.7113 5.75556,0.717 0.1155,0.3313 0.29146,0.6025 0.391,0.6025 0.0996,0 0.33554,0.2358 0.52442,0.5241 0.30141,0.46 0.31011,0.6301 0.0711,1.3897 -0.14978,0.4761 -0.40251,1.0204 -0.56166,1.2096 -0.25407,0.3019 -0.23337,0.3738 0.16967,0.5895 0.25246,0.1351 0.88446,0.351 1.40443,0.4797 0.67824,0.1678 0.96694,0.3504 1.02148,0.6457 0.12769,0.6917 0.45784,0.9265 1.30248,0.9265 0.85583,0 1.77406,0.378 2.21808,0.913 0.14717,0.1773 0.5022,0.3224 0.78896,0.3224 0.34159,0 0.79512,0.2877 1.31516,0.8344 0.43657,0.4589 0.88952,0.7752 1.00657,0.7029 0.11706,-0.072 0.32458,-0.043 0.46117,0.065 0.56846,0.4497 10.65009,0.9972 11.48713,0.6239 0.45661,-0.2037 2.59059,0.3249 3.07253,0.7611 0.33022,0.2989 0.62279,0.3383 1.69131,0.2277 8.10943,-0.8388 11.22892,-1.7222 17.74017,-5.0238 2.43938,-1.2369 4.05521,-2.4755 5.75476,-4.4112 0.77445,-0.882 1.52817,-1.6037 1.67491,-1.6037 0.14673,0 0.41363,-0.2241 0.59308,-0.498 0.31423,-0.4796 3.48243,-2.1772 4.06802,-2.1798 0.15705,0 0.52437,-0.1259 0.81628,-0.2783 0.29191,-0.1523 1.12484,-0.3442 1.85096,-0.4263 0.72613,-0.082 1.4138,-0.2228 1.52816,-0.3125 0.29585,-0.2321 2.8175,-0.9694 4.63453,-1.355 0.84929,-0.1803 1.72947,-0.4086 1.95595,-0.5073 0.22648,-0.099 0.86862,-0.2403 1.42697,-0.3147 0.55837,-0.074 1.57752,-0.3024 2.26478,-0.5067 0.68728,-0.2043 1.99078,-0.5286 2.89669,-0.7208 0.90592,-0.1922 1.85994,-0.4338 2.12006,-0.5369 0.2601,-0.1031 0.91759,-0.1875 1.46105,-0.1875 0.54346,0 1.26731,-0.1393 1.60851,-0.3095 0.65456,-0.3265 0.69185,-0.3335 3.76655,-0.7101 2.54231,-0.3114 4.73917,-0.7548 4.99189,-1.0075 0.11039,-0.1104 0.22971,-0.631 0.26517,-1.1571 0.0355,-0.5259 0.15117,-1.067 0.25709,-1.2023 0.16439,-0.2099 0.44674,-3.1434 0.75195,-7.8123 0.0426,-0.6511 -0.005,-1.2345 -0.10473,-1.2964 -0.19129,-0.1182 -0.87635,0.039 -3.58776,0.8242 -0.90591,0.2622 -2.24934,0.6393 -2.98539,0.8379 -0.73605,0.1987 -1.73527,0.4872 -2.22049,0.6411 -0.48524,0.154 -1.00056,0.2799 -1.14519,0.2799 -0.14464,0 -0.62782,0.1754 -1.07374,0.3898 -0.44591,0.2144 -1.22767,0.5041 -1.73724,0.6437 -0.50958,0.1397 -1.31074,0.4235 -1.78035,0.6308 -0.46959,0.2072 -1.67404,0.577 -2.67655,0.8218 -1.0025,0.2449 -1.91537,0.5007 -2.02861,0.5687 -0.47017,0.2822 -2.9516,1.0987 -3.84672,1.2657 -0.53035,0.099 -1.1648,0.2873 -1.40987,0.4184 -0.49267,0.2637 -2.56282,1.0103 -3.1423,1.1333 -0.55081,0.1169 -1.53228,0.4111 -3.02794,0.9076 -0.73605,0.2444 -1.89589,0.5699 -2.5774,0.7234 -1.57865,0.3556 -6.03378,1.998 -7.51115,2.769 -0.62282,0.3251 -1.43244,0.6555 -1.79917,0.7343 -0.36672,0.079 -0.71964,0.2287 -0.78422,0.3332 -0.0646,0.1046 -0.34473,0.1901 -0.62247,0.1901 -0.47375,0 -0.49687,0.051 -0.3735,0.8224 0.23393,1.4629 0.10339,1.5075 -3.92735,1.3403 -2.15854,-0.09 -3.74599,-0.2506 -4.12602,-0.4187 -0.67431,-0.2983 -2.53647,-0.5509 -4.6325,-0.6284 -1.44126,-0.053 -2.43762,-0.2405 -2.80161,-0.5264 -0.12539,-0.099 -1.23719,-0.1614 -2.47067,-0.1398 -1.23346,0.022 -2.54454,-0.032 -2.91351,-0.1188 -1.38384,-0.3263 -1.25757,-1.5988 0.1967,-1.9825 0.48726,-0.1286 1.2102,-0.3229 1.60653,-0.4319 0.39634,-0.1089 1.32284,-0.2812 2.05889,-0.3828 0.73606,-0.1015 1.70888,-0.2744 2.16184,-0.3841 0.45295,-0.1097 1.79638,-0.4333 2.98538,-0.719 1.18902,-0.2857 2.81039,-0.6955 3.60306,-0.9105 2.42805,-0.6588 3.38226,-0.8729 3.88896,-0.8729 0.26724,0 0.89129,-0.1443 1.3868,-0.3207 0.49549,-0.1763 1.50314,-0.4469 2.23918,-0.6015 0.73606,-0.1545 2.03316,-0.4838 2.88245,-0.7318 0.84929,-0.248 2.00742,-0.5291 2.57361,-0.6245 0.5662,-0.095 1.58535,-0.3221 2.26478,-0.5036 0.67944,-0.1815 1.46696,-0.3834 1.75006,-0.4487 0.28309,-0.065 0.60737,-0.1851 0.72061,-0.2663 0.24923,-0.1786 4.68115,-1.3511 9.36794,-2.4783 0.39634,-0.095 1.26774,-0.3649 1.93643,-0.599 0.6687,-0.2342 1.36904,-0.4259 1.55629,-0.4259 0.18726,0 0.5203,-0.1335 0.74013,-0.2967 0.21981,-0.1632 1.27983,-0.4969 2.35559,-0.7415 1.07577,-0.2446 2.14125,-0.5157 2.36773,-0.6024 0.22648,-0.087 0.8287,-0.2667 1.33828,-0.4003 0.50957,-0.1335 1.25077,-0.3376 1.64711,-0.4535 0.39633,-0.1159 0.95223,-0.2576 1.23533,-0.3149 0.2831,-0.058 0.70002,-0.1865 0.9265,-0.2873 0.42613,-0.1895 2.60876,-0.9744 3.24275,-1.1661 0.72277,-0.2185 0.32222,-0.3977 -1.44122,-0.6444 -1.95358,-0.2735 -2.51401,-0.325 -5.88875,-0.5412 -2.15323,-0.138 -2.25276,-0.1258 -2.74518,0.3363 -0.46877,0.44 -0.68384,0.4782 -2.60416,0.4629 -1.15128,-0.01 -3.48296,-0.1684 -5.18155,-0.354 -4.59762,-0.5023 -4.76726,-0.5176 -7.057,-0.6353 -1.16365,-0.059 -2.22565,-0.1767 -2.36003,-0.2597 -0.1344,-0.083 -0.71106,-0.1691 -1.28149,-0.1912 -2.51247,-0.097 -4.91898,-0.3173 -5.22952,-0.4784 -0.18547,-0.096 -1.44898,-0.2816 -2.80785,-0.412 -1.35886,-0.1303 -3.11921,-0.3216 -3.91189,-0.4253 -0.79267,-0.1036 -1.87628,-0.2451 -2.40803,-0.3144 -0.53173,-0.069 -2.24576,-0.1711 -3.80895,-0.226 -1.56317,-0.055 -3.3517,-0.1324 -3.97452,-0.1724 -0.62281,-0.04 -2.61697,-0.1288 -4.43147,-0.1975 -1.8145,-0.069 -4.31605,-0.2709 -5.559,-0.4495 -1.24295,-0.1786 -2.86214,-0.4066 -3.5982,-0.5068 -0.73604,-0.1002 -1.66255,-0.2698 -2.05889,-0.3769 -0.66184,-0.1788 -1.6492,-0.3885 -4.11777,-0.8745 -0.50958,-0.1003 -1.4502,-0.2344 -2.09029,-0.298 -2.15594,-0.2143 -3.35214,-1.8559 -2.33496,-3.2044 0.64435,-0.8542 4.03704,-3.3176 4.81763,-3.4981 0.59782,-0.1382 0.9378,-0.074 1.76945,0.3332 0.56619,0.2773 1.30095,0.724 1.6328,0.9926 l 0.60336,0.4883 0.57357,-0.5867 c 0.67651,-0.692 0.73988,-0.6999 1.411,-0.175 0.28309,0.2215 0.66627,0.4047 0.85149,0.4072 0.18521,0 0.60214,0.143 0.9265,0.3122 0.32436,0.1692 0.91946,0.3081 1.32246,0.3088 0.40299,0 0.91257,0.1373 1.1324,0.3036 0.2198,0.1662 0.6484,0.3052 0.95244,0.3088 0.30403,0.01 0.8136,0.1086 1.13239,0.2333 0.31877,0.1248 1.06419,0.2509 1.6565,0.2803 0.59227,0.029 1.21484,0.168 1.38349,0.308 0.17375,0.1442 1.12751,0.2923 2.20148,0.3417 1.04219,0.048 1.99467,0.167 2.11663,0.2644 0.2633,0.2104 1.35448,0.3825 3.25504,0.5135 0.7624,0.052 1.4936,0.1619 1.62485,0.2431 0.13125,0.081 0.89722,0.221 1.70212,0.3109 0.80493,0.09 2.11203,0.273 2.90471,0.4068 0.79266,0.1338 1.95079,0.276 2.57361,0.3159 0.62281,0.04 2.01256,0.1586 3.08833,0.2638 6.99283,0.6836 9.92119,0.8778 14.2528,0.9449 2.68667,0.041 5.79044,0.1301 6.89728,0.1964 1.9978,0.1198 7.2883,0.3683 7.88025,0.3702 0.16986,0 0.86474,-0.015 1.54417,-0.034 0.67943,-0.019 1.79123,0.063 2.47067,0.1816 0.67943,0.1191 1.91246,0.2171 2.74005,0.2177 0.82761,0 2.35633,0.1056 3.39716,0.2332 l 1.89245,0.232 1.1885,-0.6437 c 0.65367,-0.3541 1.33,-0.6438 1.50292,-0.6438 0.17293,0 0.60188,-0.1487 0.95322,-0.3304 0.38939,-0.2013 1.49081,-0.3883 2.82077,-0.4791 2.26414,-0.1542 2.60647,-0.2833 4.37435,-1.6486 0.29992,-0.2316 0.94847,-0.6061 1.44122,-0.8321 0.90561,-0.4156 1.52095,-0.7579 2.87615,-1.6001 0.40972,-0.2545 0.87297,-0.4631 1.02944,-0.4636 0.1565,0 0.60262,-0.2089 0.9914,-0.4633 1.435,-0.9388 2.62581,-1.6144 4.13153,-2.344 1.7781,-0.8615 1.73113,-0.8364 3.50012,-1.866 0.73604,-0.4284 1.56989,-0.888 1.85299,-1.0214 2.45589,-1.157 4.99845,-2.4413 5.76489,-2.9119 0.92786,-0.5696 1.71399,-0.9205 4.00616,-1.7883 0.93485,-0.3539 1.26956,-0.5931 1.40691,-1.0052 0.0991,-0.2974 0.32102,-0.5407 0.49306,-0.5407 0.17204,0 1.0728,-0.3561 2.00171,-0.7914 1.83674,-0.8607 2.09738,-0.8567 3.06647,0.047 0.5112,0.4769 0.56987,0.6605 0.51476,1.6104 -0.0575,0.9916 -0.12412,1.1145 -0.88581,1.637 -0.45292,0.3107 -1.06252,0.6196 -1.35456,0.6864 -0.29204,0.067 -1.16557,0.6273 -1.94116,1.2453 -0.77563,0.6181 -1.47804,1.1238 -1.56089,1.1238 -0.0829,0 -0.59908,0.3517 -1.14713,0.7816 -0.54806,0.4299 -1.32074,0.9093 -1.71707,1.0654 -0.39634,0.1561 -1.19346,0.5918 -1.77137,0.9684 -0.57791,0.3766 -1.14262,0.6847 -1.25489,0.6847 -0.11227,0 -0.37256,0.1861 -0.5784,0.4136 -0.20585,0.2274 -0.75294,0.5211 -1.21578,0.6526 -0.46283,0.1315 -1.02681,0.3929 -1.25329,0.5808 -0.22647,0.188 -1.15297,0.6988 -2.05888,1.1351 -0.90591,0.4363 -1.97139,1.003 -2.36772,1.2592 -0.39634,0.2563 -1.4155,0.7215 -2.26479,1.034 -1.47811,0.5437 -2.03319,0.8446 -3.76016,2.0378 -0.87153,0.6022 -0.83149,1.0082 0.0797,0.808 0.93405,-0.2051 7.01162,-0.9199 9.65124,-1.135 1.30225,-0.1062 2.73833,-0.2796 3.19128,-0.3855 0.45296,-0.1058 1.51843,-0.2973 2.36772,-0.4255 0.8493,-0.1282 2.00742,-0.3176 2.57361,-0.421 0.5662,-0.1033 1.63167,-0.2357 2.36771,-0.2942 0.73604,-0.059 2.03316,-0.2545 2.88246,-0.4357 0.84931,-0.1812 1.96455,-0.3562 2.47833,-0.3889 0.51385,-0.033 1.76464,-0.2672 2.77954,-0.5213 1.0149,-0.2541 2.18739,-0.4767 2.60555,-0.4947 0.41809,-0.018 0.82733,-0.1 0.90932,-0.1819 0.082,-0.082 0.49453,-0.149 0.91663,-0.149 0.42216,0 1.35643,-0.1755 2.07606,-0.39 1.52545,-0.4546 3.07727,-0.7083 4.06897,-0.6652 0.38586,0.017 0.91534,-0.1095 1.17662,-0.2807 0.26129,-0.1712 0.8727,-0.3112 1.3587,-0.3112 0.486,0 1.20724,-0.096 1.60285,-0.214 0.39561,-0.1176 2.57227,-0.4465 4.83706,-0.7308 4.30861,-0.5409 6.38726,-0.8373 9.98561,-1.4237 2.7575,-0.4494 4.77703,-0.6798 5.06022,-0.5775 0.12205,0.044 0.45402,-0.01 0.73779,-0.1159 0.28506,-0.1083 0.641,-0.1189 0.79541,-0.023 0.16508,0.102 0.4986,0.059 0.81487,-0.1041 0.29443,-0.1523 1.13378,-0.3896 1.86517,-0.5274 0.73139,-0.1378 1.86292,-0.4234 2.51451,-0.6346 0.65153,-0.2113 1.33085,-0.3841 1.50956,-0.3841 0.40265,0 3.18032,-0.95 3.94686,-1.3499 0.31077,-0.1621 0.75575,-0.2953 0.98886,-0.296 0.56683,0 1.16525,0.4569 1.08332,0.8302 -0.0839,0.3828 0.98996,0.3816 2.30692,0 1.79313,-0.5232 3.32104,0.043 4.20284,1.5561 0.36537,0.6272 0.36331,0.6454 -0.1716,1.4927 -0.38289,0.6065 -0.68216,0.8578 -1.02169,0.8578 -0.26413,0 -0.65308,0.191 -0.86436,0.4244 -0.21916,0.2421 -0.5435,0.3828 -0.75523,0.3274 -0.22071,-0.057 -0.4513,0.053 -0.56896,0.2727 -0.1088,0.2034 -0.5477,0.5864 -0.97529,0.8513 -0.65489,0.4057 -1.08559,0.488 -2.73335,0.5223 -1.07576,0.023 -1.95595,0.053 -1.95595,0.068 0,0.015 -0.41693,0.066 -0.92645,0.1135 -1.1352,0.1051 -2.10862,0.3777 -4.1213,1.1542 -0.85118,0.3284 -2.3336,0.7387 -3.29423,0.9119 -3.67077,0.6618 -5.57407,0.9688 -8.02616,1.2949 -0.84931,0.113 -1.79242,0.3001 -2.0959,0.4158 -0.30347,0.1158 -0.87075,0.1587 -1.26061,0.095 -0.41926,-0.068 -0.76667,-0.022 -0.85021,0.1135 -0.0777,0.1258 -0.57587,0.229 -1.10704,0.2295 -0.53122,0 -1.61442,0.2391 -2.40706,0.5303 -0.7927,0.2911 -1.67289,0.5757 -1.95595,0.6323 -0.28312,0.057 -0.71692,0.2008 -0.96405,0.3206 -0.2472,0.1197 -0.59313,0.1626 -0.76887,0.095 -0.17574,-0.067 -0.57574,0.01 -0.88891,0.158 -0.82488,0.4063 -1.96234,0.7335 -2.5503,0.7335 -0.28073,0 -0.61212,0.1017 -0.73643,0.226 -0.12437,0.1243 -0.53665,0.2527 -0.91624,0.2853 -1.67664,0.1437 -4.31397,0.5362 -4.77096,0.71 -0.27466,0.1044 -1.9241,0.2514 -3.66535,0.3266 -1.74132,0.075 -3.8608,0.1671 -4.7101,0.2042 -0.8493,0.038 -3.05362,0.1201 -4.89844,0.1845 -1.84482,0.065 -3.52353,0.2075 -3.7304,0.3183 -0.20688,0.1106 -0.41584,0.1616 -0.46435,0.1131 -0.15626,-0.1563 -4.71808,0.2821 -5.45031,0.5238 -0.54223,0.179 -0.77916,0.1748 -1.01085,-0.017 -0.19467,-0.1615 -0.57735,-0.2014 -1.07295,-0.1117 -3.0487,0.5519 -4.59214,0.7648 -6.84405,0.9443 -1.41549,0.1128 -2.88373,0.3069 -3.26272,0.4314 -0.37903,0.1245 -1.02757,0.2499 -1.44122,0.2788 -0.41368,0.028 -1.03007,0.17 -1.36978,0.3139 -0.89501,0.3791 -3.1463,0.8829 -4.22073,0.9445 -4.56979,0.2618 -4.74633,0.3143 -4.70971,1.3997 0.012,0.3551 -0.04,1.3405 -0.11548,2.1898 -0.35954,4.0443 -0.3783,6.1048 -0.0602,6.6094 0.17123,0.2715 0.2744,0.71 0.22925,0.9743 -0.11056,0.6475 0.49723,1.6263 1.10444,1.7787 0.27105,0.068 1.57142,0.1275 2.8897,0.1323 1.31829,0.01 2.55527,0.093 2.74887,0.197 0.19358,0.1036 0.93817,0.2406 1.65467,0.3045 2.06344,0.184 5.53139,0.6906 5.78039,0.8445 0.19883,0.1229 1.84184,0.3201 4.85871,0.5832 0.49222,0.043 1.0554,0.2233 1.25154,0.4008 0.19613,0.1775 0.53922,0.3227 0.76244,0.3227 0.22323,0 0.49389,0.074 0.60147,0.1638 0.10758,0.09 0.56619,0.2881 1.01914,0.4398 0.45296,0.1517 1.06949,0.4485 1.37008,0.6596 0.30057,0.2112 0.77067,0.3839 1.04467,0.3839 0.63466,0 3.45136,1.4518 4.56067,2.3506 0.46659,0.3781 1.08001,0.7558 1.36306,0.8392 0.28313,0.083 0.70006,0.3178 0.92652,0.5208 0.22646,0.203 1.10664,0.8293 1.95595,1.3918 0.8493,0.5624 1.82214,1.3979 2.16186,1.8566 0.33966,0.4586 0.87263,0.9852 1.18425,1.1701 0.31161,0.1848 0.95507,0.9098 1.42989,1.611 0.47489,0.7012 1.29738,1.7382 1.82783,2.3044 0.53045,0.5662 1.15827,1.4586 1.39513,1.9831 0.23686,0.5245 0.57226,1.008 0.74541,1.0745 0.17309,0.066 0.31769,0.3321 0.32131,0.5905 0.006,0.2583 0.14253,0.6495 0.30884,0.8693 0.16624,0.2199 0.30225,0.5408 0.30225,0.7134 0,0.1725 0.36375,1.05835 0.80834,1.96835 0.77338,1.583 1.32684,3.8558 1.57584,6.4713 0.0472,0.4978 0.17103,1.0074 0.27466,1.1323 0.10364,0.125 0.21826,1.7881 0.25476,3.6957 l 0.0663,3.4686 0.54286,0.2807 c 0.29856,0.1544 0.59933,0.2242 0.66839,0.1551 0.21128,-0.2112 3.89026,-0.071 4.16712,0.1584 0.16178,0.1343 1.71831,0.2099 4.13474,0.201 3.75684,-0.014 4.51427,-0.01 6.03701,0.042 0.78618,0.027 4.65027,-0.1934 8.5444,-0.4857 3.57431,-0.2683 7.43556,-0.2971 10.50029,-0.078 3.11558,0.2225 2.50702,0.2208 9.87829,0.028 3.81105,-0.099 6.24977,-0.2549 7.20613,-0.4597 1.26507,-0.271 3.86506,-0.5273 5.76926,-0.5689 0.33972,-0.01 1.05069,0.061 1.57992,0.1517 l 0.96218,0.1652 0.14505,-0.9989 c 0.0797,-0.5495 0.22264,-1.1492 0.31756,-1.3326 0.0948,-0.1835 0.27297,-0.8784 0.3958,-1.5442 0.12276,-0.6658 0.30083,-1.6275 0.39567,-2.137 0.35413,-1.9031 1.07079,-4.8311 1.23283,-5.037 0.22866,-0.2906 0.78793,-3.369 0.95508,-5.25755 0.0752,-0.8493 0.23014,-1.7215 0.34437,-1.9383 0.11423,-0.2167 0.24843,-0.8591 0.29824,-1.4274 0.0498,-0.5683 0.16812,-1.1785 0.26297,-1.3559 0.0948,-0.1775 0.28971,-1.7228 0.43321,-3.434 0.2565,-3.0598 0.25347,-3.1234 -0.1853,-3.8333 -0.59933,-0.9697 -0.56257,-1.4112 0.17645,-2.1192 0.58576,-0.5612 0.66193,-0.5805 1.28684,-0.3267 1.0171,0.4133 10.3389,0.4886 14.45872,0.1168 1.8118,-0.1635 4.08176,-0.363 5.04426,-0.4432 1.57339,-0.1312 5.37546,-0.157 11.22096,-0.076 1.13236,0.015 3.62245,0.027 5.53356,0.024 1.91111,0 3.54898,0.042 3.63983,0.098 0.0908,0.056 1.12137,0.1419 2.29018,0.1904 1.1688,0.049 3.42215,0.1463 5.0075,0.2169 1.58534,0.071 4.13326,0.1718 5.662,0.225 1.52869,0.053 3.79864,0.1357 5.04427,0.1833 1.24562,0.048 6.10975,0.1354 10.80913,0.1954 4.69944,0.06 9.19212,0.1868 9.98379,0.2819 1.6382,0.1969 6.50201,0.1883 14.72291,-0.026 8.06474,-0.2104 11.71154,-0.204 12.69666,0.022 0.50829,0.1167 1.51556,0.1281 2.4707,0.028 0.88691,-0.093 2.79996,-0.1741 4.25117,-0.1802 1.45128,-0.01 2.79466,-0.088 2.98539,-0.1817 0.19073,-0.094 1.18063,-0.094 2.19979,0 1.01917,0.093 2.40887,0.2107 3.08832,0.2612 0.67944,0.05 1.60595,0.2229 2.05887,0.3829 0.49317,0.1743 1.44308,0.2722 2.36778,0.2441 5.32971,-0.1622 5.26969,-0.167 6.02221,0.4793 0.19816,0.1702 0.36033,0.5582 0.36033,0.8622 0,0.3897 0.15177,0.6219 0.51469,0.7872 0.46545,0.212 0.51682,0.3582 0.5362,1.5258 0.0246,1.4836 0.0751,2.1013 0.35749,4.3758 0.11223,0.9039 0.16295,1.7098 0.11281,1.791 -0.0848,0.1371 0.0981,1.1076 0.53594,2.8452 0.0999,0.3963 0.28875,1.18395 0.41965,1.75015 0.13083,0.5661 0.31258,1.2147 0.40388,1.4412 0.0912,0.2265 0.34934,1.0603 0.57354,1.853 0.2242,0.7926 0.53032,1.8581 0.68029,2.3677 0.14996,0.5096 0.27704,1.1118 0.28241,1.3383 0.006,0.2264 0.21728,0.8002 0.47107,1.2749 0.25373,0.4747 0.40685,1.005 0.34031,1.1786 -0.0666,0.1735 0.087,0.6524 0.34146,1.0641 0.25444,0.4116 0.49085,0.9467 0.52541,1.1891 0.0943,0.6618 0.55636,1.8105 0.98551,2.4498 0.35051,0.5225 0.48276,0.5664 1.6431,0.545 1.22437,-0.023 2.2814,0.1405 2.70305,0.417 0.11326,0.074 0.66917,0.159 1.23535,0.1886 0.56618,0.03 1.40004,0.1538 1.85296,0.2762 0.8986,0.2428 1.60311,0.3141 4.78382,0.4838 1.1772,0.063 2.45016,0.02 2.88408,-0.097 0.57264,-0.1542 1.0558,-0.1355 1.83849,0.071 0.76266,0.2012 1.34202,0.2268 2.05726,0.091 0.54757,-0.1039 1.31986,-0.1384 1.71625,-0.077 0.39632,0.062 1.69337,0.1551 2.8824,0.2071 1.18902,0.052 3.04205,0.1577 4.11781,0.2345 1.07576,0.077 2.23384,0.1186 2.57356,0.093 0.33973,-0.026 0.89563,-0.035 1.23535,-0.021 2.79085,0.1179 10.93898,-0.041 11.94063,-0.2327 0.70897,-0.1358 2.94313,-0.2242 5.2381,-0.2074 l 4.00184,0.029 0.57917,0.5549 c 0.71969,0.6895 0.77047,1.5461 0.11597,1.956 -0.54861,0.3435 -1.51221,0.215 -3.34572,-0.4462 -1.18405,-0.427 -1.36347,-0.4358 -4.32367,-0.214 -3.50653,0.2627 -6.28484,0.4499 -6.58842,0.4437 -0.11327,0 -0.57646,-0.012 -1.02944,-0.021 -0.45298,-0.01 -1.28678,0.036 -1.85303,0.099 -0.56618,0.063 -1.16841,0.1067 -1.33827,0.096 -0.16986,-0.01 -2.14197,-0.037 -4.3824,-0.059 -3.08793,-0.03 -4.11374,-0.1043 -4.23941,-0.3073 -0.13387,-0.2164 -0.27395,-0.2186 -0.72855,-0.012 -0.38055,0.1734 -0.67453,0.1915 -0.90784,0.056 -0.41318,-0.24 -9.41884,-0.3459 -10.74245,-0.1262 -0.50958,0.085 -1.4361,0.091 -2.05888,0.014 -0.62284,-0.077 -2.15152,-0.2547 -3.39715,-0.3947 -1.24562,-0.1401 -2.54274,-0.2862 -2.88246,-0.3247 -0.33973,-0.039 -0.84931,-0.1307 -1.13243,-0.2049 -1.08339,-0.284 -3.29416,-0.023 -3.29416,0.3886 0,0.2617 0.38656,1.5104 0.65224,2.1069 0.23706,0.5323 0.79703,2.4999 0.93737,3.2942 0.0601,0.3398 0.18717,0.7162 0.28247,0.8366 0.15785,0.1993 0.39671,1.3853 0.43276,2.1488 0.008,0.1699 0.13407,0.4478 0.28003,0.6177 0.14602,0.1699 0.32602,0.5867 0.40006,0.9265 0.22272,1.0224 2.01908,4.8162 2.59469,5.4798 0.21516,0.2481 0.39116,0.6739 0.39116,0.9463 0,0.2724 0.26748,0.8373 0.59441,1.2553 0.41622,0.5322 0.63551,1.0994 0.73152,1.8924 0.15843,1.3087 1.6254,4.5296 2.06308,4.5296 0.15887,0 0.48121,0.2701 0.71627,0.6001 0.50402,0.7078 0.33377,1.4446 -0.45286,1.9601 -0.6609,0.433 -6.66217,0.5822 -7.75183,0.1927 -0.40646,-0.1453 -1.40527,-0.2683 -2.21956,-0.2732 -0.81428,-0.01 -1.53805,-0.1021 -1.60835,-0.2158 -0.0703,-0.1138 -0.46945,-0.1896 -0.88716,-0.1686 -0.98227,0.049 -3.41221,-0.2187 -4.46536,-0.4926 -1.11905,-0.2911 -2.15185,-0.3443 -2.2916,-0.1182 -0.0633,0.1027 -0.37719,0.1292 -0.69721,0.059 -0.32002,-0.07 -1.06032,0.014 -1.64524,0.188 -0.81403,0.2418 -1.58896,0.2858 -3.30495,0.1875 -2.08175,-0.119 -2.25096,-0.1003 -2.37334,0.2633 -0.0724,0.2152 -0.39922,1.1065 -0.72609,1.9804 -0.32686,0.8739 -0.59435,1.8574 -0.59435,2.1855 0,0.3282 -0.18692,0.8342 -0.41538,1.1247 -0.25444,0.3235 -0.33423,0.5783 -0.20585,0.6576 0.44316,0.2739 0.22814,1.6401 -0.35936,2.2833 -0.97672,1.0694 -1.68788,1.1061 -2.19159,0.1132 -0.38385,-0.7566 -0.22588,-1.4051 0.60023,-2.4656 0.51146,-0.6564 0.67893,-1.046 0.59448,-1.3826 -0.11184,-0.4455 0.61154,-3.0193 0.98809,-3.5156 0.0977,-0.1287 0.30412,-0.8981 0.45873,-1.7097 0.15468,-0.8117 0.42999,-1.6402 0.61187,-1.8411 0.18181,-0.201 0.33061,-0.5605 0.33061,-0.799 0,-0.2385 0.10331,-0.6944 0.22962,-1.0132 0.12632,-0.3188 0.40537,-1.5724 0.62013,-2.7859 0.21477,-1.2136 0.48994,-2.4643 0.61154,-2.7795 0.12166,-0.3153 0.29882,-0.9901 0.3938,-1.4997 0.0949,-0.5096 0.35639,-1.714 0.58104,-2.6765 0.22472,-0.9626 0.56845,-2.6766 0.76389,-3.809 0.19545,-1.1324 0.47993,-2.5222 0.63221,-3.0883 0.15229,-0.5662 0.36757,-1.8428 0.47851,-2.8368 0.11087,-0.994 0.25644,-1.8959 0.32344,-2.0044 0.21858,-0.3536 0.53904,-2.5324 0.63551,-4.3209 0.0517,-0.9625 0.22155,-2.167 0.37687,-2.6766 0.15532,-0.5095 0.34011,-1.4823 0.41066,-2.1618 0.15022,-1.4479 0.39645,-3.0561 0.82456,-5.3863 0.1698,-0.9242 0.36447,-2.1675 0.4325,-2.763 0.0681,-0.5955 0.26536,-1.4607 0.43832,-1.92275 0.22704,-0.6065 0.34521,-2.004 0.42501,-5.0248 0.10674,-4.0445 0.12709,-4.2044 0.60734,-4.7751 0.46467,-0.5523 0.47294,-0.6033 0.12812,-0.7878 -0.56411,-0.302 -2.21291,-0.5072 -4.48648,-0.5585 -2.8125,-0.063 -3.92942,-0.1837 -5.2089,-0.5611 -1.12364,-0.3315 -3.51022,-0.4373 -6.21791,-0.2758 -0.8493,0.05 -1.54419,0.111 -1.54419,0.1341 0,0.071 -1.93153,0.177 -5.01499,0.274 -2.48983,0.079 -3.18342,0.03 -4.39726,-0.3063 -1.09308,-0.3029 -1.50943,-0.3427 -1.72381,-0.1648 -0.41544,0.3449 -22.21616,0.66 -23.55625,0.3406 -1.19529,-0.2849 -2.42812,-0.3599 -5.55895,-0.3382 -4.40636,0.03 -4.78349,0.026 -7.92673,-0.09 -2.84873,-0.105 -3.22974,-0.1101 -5.04426,-0.067 -1.3992,0.033 -9.52926,-0.2785 -9.88268,-0.3787 -0.16986,-0.048 -2.02289,-0.1488 -4.11782,-0.2238 -4.8607,-0.174 -5.67648,-0.2224 -6.73299,-0.3997 -0.47592,-0.08 -1.03182,-0.072 -1.23535,0.018 -0.20358,0.09 -1.11136,0.1841 -2.01726,0.2096 -0.90591,0.025 -1.83242,0.06 -2.05888,0.077 -0.72939,0.054 -7.36623,-0.1622 -8.81286,-0.2874 -0.77048,-0.067 -1.50316,-0.058 -1.62818,0.019 -0.12509,0.077 -1.39404,0.1758 -2.81992,0.2189 -4.61823,0.1398 -5.95437,0.2355 -6.36652,0.4561 -0.58059,0.3107 -7.89468,0.3432 -9.31786,0.041 -0.8148,-0.1728 -1.31417,-0.1817 -1.71198,-0.03 -0.3089,0.1174 -0.78179,0.2136 -1.05082,0.2136 -0.65696,0 -0.75575,0.2111 -1.0569,2.2575 -0.14227,0.9665 -0.4075,2.4522 -0.58944,3.3014 -0.61102,2.8526 -0.74289,3.5977 -0.83787,4.7355 -0.0523,0.6228 -0.18582,1.642 -0.2974,2.26485 -0.11158,0.6228 -0.29346,1.7002 -0.4042,2.3943 -0.11075,0.6941 -0.29599,1.5108 -0.41164,1.8149 -0.11565,0.3042 -0.21024,0.7833 -0.21024,1.0646 0,0.2813 -0.14395,0.7898 -0.31982,1.13 -0.17594,0.3402 -0.37397,1.0999 -0.44006,1.6884 -0.0662,0.5884 -0.19054,1.1625 -0.27647,1.2757 -0.0859,0.1132 -0.20436,0.5302 -0.26322,0.9265 -0.0588,0.3964 -0.25683,1.205 -0.43981,1.7971 -0.31788,1.0282 -0.40562,1.5361 -0.66755,3.8649 -0.064,0.5662 -0.19254,1.1265 -0.28629,1.2451 -0.21645,0.2738 -0.5833,2.5761 -0.46125,2.8944 0.0504,0.1314 -0.0523,0.584 -0.22853,1.0055 -0.17613,0.4216 -0.27143,0.8456 -0.21173,0.9422 0.0594,0.097 0.0168,0.3415 -0.0952,0.5443 -0.11204,0.2028 -0.26277,1.2719 -0.33501,2.3758 -0.0722,1.1039 -0.21528,2.0591 -0.31794,2.1225 -0.10267,0.063 -0.18673,0.6688 -0.18673,1.3452 0,0.6764 -0.14046,1.5661 -0.31213,1.977 -0.17174,0.4109 -0.26381,0.8996 -0.20469,1.0859 0.0588,0.1863 0.0129,0.7968 -0.10305,1.3566 -0.11578,0.5598 -0.38618,1.9443 -0.60088,3.0767 -0.40963,2.1608 -1.58793,6.7807 -1.86414,7.3091 -0.0888,0.1698 -0.22516,0.7257 -0.30296,1.2353 -0.0779,0.5095 -0.26671,1.575 -0.41977,2.3677 -0.15306,0.7927 -0.34211,2.2751 -0.42023,3.2942 -0.0863,1.1276 -0.287,2.1351 -0.51249,2.5736 -0.57923,1.1264 -0.68131,1.4797 -0.70509,2.4417 -0.0181,0.7341 0.0569,0.9274 0.41086,1.0621 0.68228,0.2594 3.9287,0.2785 5.96108,0.035 3.08095,-0.369 5.90023,-0.5017 11.8754,-0.5592 3.13425,-0.03 5.79187,-0.1123 5.90572,-0.1826 0.1139,-0.07 1.16285,-0.1781 2.33101,-0.2394 1.16816,-0.061 2.65006,-0.1922 3.29313,-0.2912 0.64307,-0.099 1.66223,-0.1542 2.26479,-0.1228 0.60256,0.032 1.57417,-0.064 2.15908,-0.2125 1.4436,-0.3661 11.72285,-0.5822 24.85822,-0.5227 2.25367,0.01 4.16181,-0.021 4.24038,-0.07 0.0786,-0.049 1.46504,-0.1398 3.08095,-0.2027 1.6159,-0.063 3.78429,-0.2017 4.81864,-0.3083 1.03442,-0.1067 3.82636,-0.2075 6.20435,-0.2241 2.37805,-0.017 4.69427,-0.033 5.14725,-0.037 0.45292,-0.01 1.61106,0.053 2.57363,0.1262 1.11059,0.084 2.72798,0.018 4.42659,-0.1807 1.47208,-0.1725 3.78837,-0.3488 5.14719,-0.3917 1.35888,-0.043 3.44354,-0.19 4.6325,-0.3268 1.56919,-0.1806 3.2061,-0.1962 5.97078,-0.057 2.09493,0.1055 4.08112,0.1167 4.41379,0.025 0.35982,-0.099 0.91508,-0.074 1.37097,0.063 0.55837,0.1673 1.33989,0.1693 2.88079,0.01 1.16305,-0.1221 2.17356,-0.1857 2.2456,-0.1412 0.072,0.045 1.19032,0.1384 2.48517,0.2086 1.2948,0.07 2.95645,0.2337 3.69249,0.3634 1.47951,0.2606 2.92711,0.3008 4.29905,0.1191 0.49608,-0.066 1.32994,-0.011 1.85302,0.1221 0.78418,0.1991 0.96192,0.3324 1.01284,0.7599 0.0336,0.2852 -0.11178,0.7327 -0.32377,0.9945 -0.34928,0.4313 -0.58711,0.4834 -2.5324,0.5546 -1.98425,0.073 -3.22393,-0.058 -7.17441,-0.7555 -0.67111,-0.1185 -1.20556,-0.1224 -1.34131,-0.01 -0.13252,0.11 -1.04178,0.1173 -2.20283,0.018 -1.10522,-0.095 -2.40745,-0.089 -2.95289,0.013 -0.5687,0.1062 -1.11246,0.1058 -1.30325,0 -0.18007,-0.1008 -0.5176,-0.1122 -0.75007,-0.025 -0.2324,0.087 -0.88587,0.1265 -1.45205,0.088 -1.88947,-0.1284 -10.68941,-0.1477 -11.94156,-0.026 -0.67944,0.066 -2.43975,0.1773 -3.9119,0.2473 -1.47208,0.07 -2.95451,0.2127 -3.29423,0.3171 -0.69747,0.2144 -1.15523,0.2279 -7.27061,0.2138 -2.45074,-0.01 -4.55225,0.078 -4.75985,0.1887 -0.20443,0.1094 -0.41783,0.1528 -0.47424,0.096 -0.0562,-0.056 -1.05851,-0.2449 -2.22693,-0.419 -1.48235,-0.2208 -2.2529,-0.2539 -2.54959,-0.1094 -0.60611,0.2951 -2.71835,0.4659 -6.58942,0.5331 -1.84889,0.032 -3.4586,0.1182 -3.57709,0.1915 -0.1185,0.073 -5.8968,0.1723 -12.84061,0.2199 -11.74392,0.081 -15.29161,0.2167 -18.69878,0.7164 -1.19994,0.176 -3.09406,0.3597 -5.45609,0.5293 -5.50351,0.3953 -5.83548,0.4096 -8.13258,0.3511 -0.50958,-0.013 -1.25079,-0.01 -1.64711,0.01 -0.39638,0.016 -1.27651,0.01 -1.95595,-0.014 -1.22579,-0.042 -3.29617,0.05 -5.86785,0.2623 -0.73605,0.061 -1.98684,0.1616 -2.77948,0.2244 -0.7927,0.063 -1.67399,0.1901 -1.95847,0.2833 -0.84233,0.2757 -3.61205,0 -4.99419,-0.4972 -1.67722,-0.6034 -1.91383,-1.0267 -1.37142,-2.4538 0.21844,-0.5747 0.39716,-1.1874 0.39722,-1.3616 7e-5,-0.1743 0.17897,-0.6676 0.39761,-1.0965 0.52781,-1.0352 0.9585,-2.5691 1.25067,-4.4546 0.37409,-2.4138 1.0505,-5.6408 1.22992,-5.8679 0.0895,-0.1132 0.27137,-0.6691 0.40421,-1.2352 0.13283,-0.5663 0.41466,-1.7707 0.62626,-2.6766 0.21167,-0.906 0.5386,-2.2957 0.72661,-3.0884 0.18802,-0.7926 0.45925,-2.414 0.60275,-3.603 0.1435,-1.189 0.36105,-2.4067 0.48342,-2.7059 0.12237,-0.2993 0.17374,-0.7306 0.1141,-0.9585 -0.0594,-0.2279 0.0381,-0.7243 0.21664,-1.103 0.17871,-0.3788 0.32421,-0.9666 0.32331,-1.3063 -0.006,-1.4207 0.17244,-2.8054 0.62969,-4.9489 0.26659,-1.2497 0.42546,-2.4267 0.3531,-2.6153 -0.28842,-0.7516 -1.64363,-1.14 -3.81118,-1.0923 -1.11989,0.025 -2.13912,0.1084 -2.26498,0.1862 -0.43521,0.2689 -2.03129,0.3509 -8.69398,0.4466 -3.68027,0.053 -6.69144,0.1038 -6.69144,0.1133 0,0.01 -0.26284,0.06 -0.58414,0.113 -0.3741,0.061 -0.53633,0.018 -0.45111,-0.1199 0.17755,-0.2872 -0.0123,-0.2718 -0.51643,0.042 -0.34231,0.2129 -0.52212,0.1953 -1.04178,-0.1021 -0.49376,-0.2825 -0.71963,-0.3104 -1.05587,-0.1305 -0.3151,0.1687 -1.00223,0.1647 -2.60993,-0.015 -1.53347,-0.1715 -2.69691,-0.1843 -3.91378,-0.043 -0.95242,0.1106 -1.85749,0.1528 -2.01113,0.094 -0.15371,-0.059 -0.53258,-0.01 -0.842,0.1143 -0.30936,0.122 -1.81323,0.2659 -3.34198,0.3201 -1.52874,0.054 -3.26043,0.1931 -3.84826,0.3089 -0.69256,0.1364 -1.65066,0.1442 -2.72158,0.022 -1.00553,-0.1146 -2.11031,-0.114 -2.82076,0 -0.65147,0.1061 -1.30675,0.1125 -1.48184,0.014 -0.17264,-0.096 -0.64591,-0.1323 -1.0518,-0.079 -0.40588,0.053 -1.98871,-0.05 -3.51739,-0.2298 -3.50337,-0.411 -4.92829,-0.4158 -5.49557,-0.019 -0.36097,0.2529 -0.46332,0.5949 -0.57005,1.9045 -0.0715,0.878 -0.20669,1.7383 -0.30031,1.9119 -0.0936,0.1736 -0.239,0.6369 -0.32306,1.0294 -0.0841,0.3927 -0.27614,0.9455 -0.42675,1.2287 -0.64759,1.217 -0.98337,2.1481 -1.00553,2.788 -0.0149,0.4356 -0.26135,0.9808 -0.67589,1.4966 -0.61431,0.7645 -1.21216,1.7204 -1.83823,2.9396 -0.15054,0.2931 -0.4597,0.7013 -0.687,0.907 -0.2273,0.2057 -0.41332,0.4766 -0.41332,0.602 0,0.1254 -0.46325,0.9114 -1.02943,1.7467 -0.56618,0.8352 -1.02976,1.6679 -1.03009,1.8504 0,0.1825 -0.32208,0.9701 -0.71504,1.7502 -0.39296,0.7801 -0.66801,1.4935 -0.61128,1.5853 0.0569,0.092 -0.0847,0.2675 -0.31439,0.3904 -0.22963,0.1229 -0.41752,0.3497 -0.41752,0.5041 0,0.3469 -3.05949,3.475 -4.33393,4.431 -0.51521,0.3865 -1.10523,0.9262 -1.31127,1.1992 -0.33527,0.4446 -0.34166,0.5293 -0.0614,0.8099 0.24926,0.2493 0.77035,0.3027 2.54662,0.2609 2.77547,-0.065 2.60864,-0.068 6.43274,0.087 1.78279,0.072 4.35074,0.029 5.86785,-0.098 1.48372,-0.1242 3.25359,-0.2674 3.93303,-0.318 2.17673,-0.1623 2.45378,-0.2225 3.39715,-0.7384 0.7259,-0.397 1.21132,-0.503 2.24173,-0.4899 1.17423,0.015 1.35914,0.075 1.72477,0.5642 0.33533,0.4482 0.3834,0.722 0.2651,1.5108 -0.11759,0.7843 -0.32344,1.1362 -1.1071,1.893 -0.52942,0.5114 -1.42589,1.2316 -1.99207,1.6006 -0.56618,0.369 -1.61261,1.1408 -2.32539,1.7151 -1.08817,0.8768 -1.47913,1.067 -2.43853,1.1869 -0.92367,0.1155 -1.32626,0.061 -2.10126,-0.2831 -0.82953,-0.3686 -2.17246,-0.6285 -3.63517,-0.7035 -1.3366,-0.069 -5.49532,0.3247 -6.27962,0.5939 -0.50958,0.175 -1.48236,0.3509 -2.1618,0.391 -2.0141,0.119 -4.10515,0.3296 -4.26745,0.4299 -0.0832,0.052 -1.10278,0.093 -2.26561,0.093 -1.16286,0 -2.94815,0.1031 -3.96729,0.2291 -1.01915,0.126 -2.0383,0.2236 -2.26478,0.2171 -0.22648,-0.01 -1.15221,0.1283 -2.05723,0.2997 -0.90497,0.1713 -2.51583,0.3384 -3.57968,0.3712 -1.77326,0.055 -1.97046,0.1024 -2.36939,0.5745 -0.85226,1.0085 -2.8654,1.5696 -3.2873,0.9163 -0.18775,-0.2907 -0.14456,-0.4188 0.22954,-0.6808 0.25343,-0.1776 0.46078,-0.4433 0.46078,-0.5907 0,-0.3369 -0.66868,-0.345 -6.44527,-0.078 -4.05049,0.1869 -4.52568,0.1743 -4.86149,-0.1297 -0.53409,-0.4833 -1.64021,-0.7634 -2.08172,-0.5271 -0.27877,0.1492 -0.37138,0.4756 -0.3924,1.3829 -0.0151,0.6532 -0.0476,1.5929 -0.0721,2.0882 -0.0474,0.9574 0.37934,1.5134 1.36218,1.7748 1.34787,0.3585 2.86364,0.825 4.04931,1.2461 1.40458,0.4989 3.31743,0.7845 5.03607,0.7519 0.56166,-0.011 1.12121,0.063 1.24343,0.1649 0.12223,0.1014 0.58917,0.2767 1.03767,0.3894 0.44849,0.1128 1.13972,0.2977 1.53606,0.411 1.81629,0.5191 2.4256,0.6115 3.29169,0.4989 0.51097,-0.067 1.0734,-0.1945 1.24983,-0.2844 0.17645,-0.09 0.96397,-0.2183 1.75005,-0.2853 1.60338,-0.1366 1.95562,-0.216 2.9458,-0.6639 0.41585,-0.1881 0.94221,-0.2635 1.31627,-0.1887 0.35439,0.071 0.74647,0.023 0.90877,-0.1123 0.70146,-0.5821 2.06756,0.9156 1.80159,1.9753 -0.0701,0.2794 -0.25442,0.6133 -0.40951,0.7421 -0.19502,0.1618 -0.24611,0.4978 -0.16564,1.0893 0.13791,1.0137 -0.39115,1.8546 -1.31023,2.0828 -0.3132,0.078 -0.75476,0.3048 -0.98123,0.5045 -0.22648,0.1998 -0.73605,0.4873 -1.13239,0.6388 -0.39634,0.1515 -1.13455,0.6761 -1.64046,1.1657 -0.50592,0.4896 -1.0472,0.8902 -1.20287,0.8902 -0.15565,0 -0.51857,0.1853 -0.80648,0.4117 -0.5516,0.4339 -1.86073,0.5364 -2.6298,0.2059 z"
       inkscape:connector-curvature="0" />
  </g>
</svg>
