<?xml version="1.0" encoding="UTF-8" standalone="no"?>
<!-- Created with Inkscape (http://www.inkscape.org/) -->

<svg
   xmlns:dc="http://purl.org/dc/elements/1.1/"
   xmlns:cc="http://creativecommons.org/ns#"
   xmlns:rdf="http://www.w3.org/1999/02/22-rdf-syntax-ns#"
   xmlns:svg="http://www.w3.org/2000/svg"
   xmlns="http://www.w3.org/2000/svg"
   xmlns:xlink="http://www.w3.org/1999/xlink"
   xmlns:sodipodi="http://sodipodi.sourceforge.net/DTD/sodipodi-0.dtd"
   xmlns:inkscape="http://www.inkscape.org/namespaces/inkscape"
   width="446.50671"
   height="476.2377"
   id="svg4303"
   version="1.1"
   inkscape:version="0.48.3.1 r9886"
   sodipodi:docname="ceph-openstack.svg">
  <defs
     id="defs4305">
    <clipPath
       id="clipPath3039">
      <path
         id="path3041"
         d="M 0,1765.9 0,0 l 1283.94,0 0,1765.9 -1283.94,0 z"
         inkscape:connector-curvature="0" />
    </clipPath>
    <linearGradient
       y2="649.50812"
       x2="428.87079"
       y1="668.42767"
       x1="409.9512"
       gradientUnits="userSpaceOnUse"
       id="SVGID_7_">
      <stop
         id="stop2914"
         style="stop-color:#88221A"
         offset="0" />
      <stop
         id="stop2916"
         style="stop-color:#C43827"
         offset="1" />
    </linearGradient>
    <clipPath
       id="SVGID_6_">
      <path
         inkscape:connector-curvature="0"
         d="m 402.137,666.088 -5.523,-5.463 c 0.002,-1.463 1.193,-2.75 2.659,-2.877 l 5.522,5.463 c -1.463,0.129 -2.655,1.415 -2.658,2.877 z"
         id="use2909" />
    </clipPath>
    <linearGradient
       y2="660.28339"
       x2="401.867"
       y1="663.08112"
       x1="399.06931"
       gradientUnits="userSpaceOnUse"
       id="linearGradient15368">
      <stop
         id="stop15370"
         style="stop-color:#88221A"
         offset="0" />
      <stop
         id="stop15372"
         style="stop-color:#C43827"
         offset="1" />
    </linearGradient>
    <linearGradient
       y2="660.28339"
       x2="401.867"
       y1="663.08112"
       x1="399.06931"
       gradientUnits="userSpaceOnUse"
       id="SVGID_5_">
      <stop
         id="stop2902"
         style="stop-color:#88221A"
         offset="0" />
      <stop
         id="stop2904"
         style="stop-color:#C43827"
         offset="1" />
    </linearGradient>
    <linearGradient
       y2="688.53943"
       x2="431.22809"
       y1="690.01862"
       x1="429.74899"
       gradientUnits="userSpaceOnUse"
       id="SVGID_3_">
      <stop
         id="stop2888"
         style="stop-color:#C63827"
         offset="0" />
      <stop
         id="stop2890"
         style="stop-color:#88221A"
         offset="1" />
    </linearGradient>
    <linearGradient
       inkscape:collect="always"
       xlink:href="#SVGID_3_"
       id="linearGradient4780"
       gradientUnits="userSpaceOnUse"
       x1="429.74899"
       y1="690.01862"
       x2="431.22809"
       y2="688.53943" />
    <linearGradient
       inkscape:collect="always"
       xlink:href="#SVGID_5_"
       id="linearGradient4782"
       gradientUnits="userSpaceOnUse"
       x1="399.06931"
       y1="663.08112"
       x2="401.867"
       y2="660.28339" />
    <linearGradient
       inkscape:collect="always"
       xlink:href="#SVGID_7_"
       id="linearGradient4784"
       gradientUnits="userSpaceOnUse"
       x1="409.9512"
       y1="668.42767"
       x2="428.87079"
       y2="649.50812" />
    <clipPath
       id="clipPath3039-4">
      <path
         id="path3041-4"
         d="M 0,1765.9 0,0 l 1283.94,0 0,1765.9 -1283.94,0 z"
         inkscape:connector-curvature="0" />
    </clipPath>
    <linearGradient
       inkscape:collect="always"
       xlink:href="#SVGID_5_"
       id="linearGradient5067"
       gradientUnits="userSpaceOnUse"
       x1="399.06931"
       y1="663.08112"
       x2="401.867"
       y2="660.28339" />
    <clipPath
       id="clipPath3039-4-4">
      <path
         inkscape:connector-curvature="0"
         id="path3041-4-3"
         d="M 0,1765.9 0,0 l 1283.94,0 0,1765.9 -1283.94,0 z" />
    </clipPath>
    <linearGradient
       inkscape:collect="always"
       xlink:href="#SVGID_5_-6"
       id="linearGradient4782-6"
       gradientUnits="userSpaceOnUse"
       x1="399.06931"
       y1="663.08112"
       x2="401.867"
       y2="660.28339" />
    <linearGradient
       y2="660.28339"
       x2="401.867"
       y1="663.08112"
       x1="399.06931"
       gradientUnits="userSpaceOnUse"
       id="SVGID_5_-6">
      <stop
         id="stop2902-8"
         style="stop-color:#88221A"
         offset="0" />
      <stop
         id="stop2904-6"
         style="stop-color:#C43827"
         offset="1" />
    </linearGradient>
    <linearGradient
       inkscape:collect="always"
       xlink:href="#SVGID_5_-6"
       id="linearGradient4997"
       gradientUnits="userSpaceOnUse"
       x1="399.06931"
       y1="663.08112"
       x2="401.867"
       y2="660.28339" />
    <linearGradient
       y2="660.28339"
       x2="401.867"
       y1="663.08112"
       x1="399.06931"
       gradientUnits="userSpaceOnUse"
       id="linearGradient4999">
      <stop
         id="stop5001"
         style="stop-color:#88221A"
         offset="0" />
      <stop
         id="stop5003"
         style="stop-color:#C43827"
         offset="1" />
    </linearGradient>
    <clipPath
       id="SVGID_6_-3">
      <use
         height="742.133"
         width="715.55798"
         y="0"
         x="0"
         style="overflow:visible"
         id="use2909-6"
         overflow="visible"
         xlink:href="#SVGID_4_" />
    </clipPath>
    <linearGradient
       inkscape:collect="always"
       xlink:href="#SVGID_7_-5"
       id="linearGradient4784-5"
       gradientUnits="userSpaceOnUse"
       x1="409.9512"
       y1="668.42767"
       x2="428.87079"
       y2="649.50812" />
    <linearGradient
       y2="649.50812"
       x2="428.87079"
       y1="668.42767"
       x1="409.9512"
       gradientUnits="userSpaceOnUse"
       id="SVGID_7_-5">
      <stop
         id="stop2914-6"
         style="stop-color:#88221A"
         offset="0" />
      <stop
         id="stop2916-3"
         style="stop-color:#C43827"
         offset="1" />
    </linearGradient>
    <linearGradient
       inkscape:collect="always"
       xlink:href="#SVGID_3_-4"
       id="linearGradient4780-0"
       gradientUnits="userSpaceOnUse"
       x1="429.74899"
       y1="690.01862"
       x2="431.22809"
       y2="688.53943" />
    <linearGradient
       y2="688.53943"
       x2="431.22809"
       y1="690.01862"
       x1="429.74899"
       gradientUnits="userSpaceOnUse"
       id="SVGID_3_-4">
      <stop
         id="stop2888-7"
         style="stop-color:#C63827"
         offset="0" />
      <stop
         id="stop2890-5"
         style="stop-color:#88221A"
         offset="1" />
    </linearGradient>
  </defs>
  <sodipodi:namedview
     id="base"
     pagecolor="#ffffff"
     bordercolor="#666666"
     borderopacity="1.0"
     inkscape:pageopacity="0.0"
     inkscape:pageshadow="2"
     inkscape:zoom="0.49497475"
     inkscape:cx="-121.775"
     inkscape:cy="204.23782"
     inkscape:document-units="px"
     inkscape:current-layer="g2873"
     showgrid="false"
     fit-margin-top="0"
     fit-margin-left="0"
     fit-margin-right="0"
     fit-margin-bottom="0"
     inkscape:window-width="1317"
     inkscape:window-height="744"
     inkscape:window-x="49"
     inkscape:window-y="24"
     inkscape:window-maximized="1" />
  <metadata
     id="metadata4308">
    <rdf:RDF>
      <cc:Work
         rdf:about="">
        <dc:format>image/svg+xml</dc:format>
        <dc:type
           rdf:resource="http://purl.org/dc/dcmitype/StillImage" />
        <dc:title></dc:title>
      </cc:Work>
    </rdf:RDF>
  </metadata>
  <g
     inkscape:label="Layer 1"
     inkscape:groupmode="layer"
     id="layer1"
     transform="translate(-161.51963,89.796558)">
    <g
       transform="matrix(4.617115,0,0,4.617115,-1862.8557,-2605.7045)"
       id="g2871">
      <g
         transform="translate(12.376312,-53.836958)"
         id="g2873">
        <path
           d="m 493.25233,630.06807 -34.73516,3.02064 c -1.61411,0.14192 -2.93802,1.56751 -2.94438,3.18162 l -0.008,3.51418 -3.99503,0.3474 3.9103,3.86581 0.10168,26.56081 34.80929,-3.04605 c 1.62259,-0.14192 2.94438,-1.56751 2.94861,-3.19433 l 0.004,-4.07128 3.82769,-0.33469 -3.81286,-3.77262 -0.10591,-26.07149 z m -61.404,-24.89797 73.62421,-6.40137 c 1.62259,-0.13769 3.09054,0.42153 4.10518,1.43618 l 2.34067,2.31313 9.36269,9.25678 c 0.93204,0.92144 1.49761,2.20722 1.49761,3.68364 l -0.0572,18.49026 -3.95902,0.34316 3.86581,3.82981 0.11015,28.03934 -3.81921,0.3368 3.8171,3.77051 -0.036,19.05794 c -0.0106,3.08629 -2.52497,5.81885 -5.63668,6.09422 l -73.61998,6.45009 c -1.6247,0.14192 -3.09053,-0.42366 -4.11577,-1.43617 L 427.62877,688.8645 c -0.9278,-0.91933 -1.49126,-2.21358 -1.48702,-3.6773 l 0.036,-19.05582 3.82769,-0.33681 -3.81922,-3.77473 -0.11226,-28.03511 4.00774,-0.35162 -3.91666,-3.8743 0.0508,-18.49026 c 0.004,-3.10324 2.5292,-5.82943 5.63244,-6.09845 z"
           id="path2879"
           inkscape:connector-curvature="0"
           style="fill:#88221a" />
        <g
           transform="matrix(2.1182557,0,0,2.1182557,-413.91185,-788.10833)"
           id="g2881">
          <path
             d="m 410.476,688.617 16.433,-1.438 5.523,5.463 -20.58,1.802 c -0.765,0.069 -1.382,-0.497 -1.382,-1.264 l 0.006,-1.923 -1.802,-1.781 1.805,-0.158 -0.003,-0.701 z"
             id="path2883"
             inkscape:connector-curvature="0"
             style="fill:#c63827" />
        </g>
        <g
           transform="matrix(2.1182557,0,0,2.1182557,-413.91185,-788.10833)"
           id="g2885">
          <linearGradient
             id="linearGradient15387"
             gradientUnits="userSpaceOnUse"
             x1="429.74899"
             y1="690.01862"
             x2="431.22809"
             y2="688.53943">
            <stop
               offset="0"
               style="stop-color:#C63827"
               id="stop15389" />
            <stop
               offset="1"
               style="stop-color:#88221A"
               id="stop15391" />
          </linearGradient>
          <path
             d="m 432.432,692.642 -5.523,-5.463 c 0.766,-0.067 1.39,-0.74 1.392,-1.508 l 5.523,5.465 c -0.003,0.766 -0.629,1.438 -1.392,1.506 z"
             id="path2892"
             inkscape:connector-curvature="0"
             style="fill:url(#linearGradient4780-0)" />
        </g>
        <g
           transform="matrix(2.1182557,0,0,2.1182557,-413.91185,-788.10833)"
           id="g2894">
          <g
             id="g2896">
            <defs
               id="defs2898">
              <path
                 id="SVGID_4_"
                 d="m 402.137,666.088 -5.523,-5.463 c 0.002,-1.463 1.193,-2.75 2.659,-2.877 l 5.522,5.463 c -1.463,0.129 -2.655,1.415 -2.658,2.877 z"
                 inkscape:connector-curvature="0" />
            </defs>
            <linearGradient
               id="linearGradient15398"
               gradientUnits="userSpaceOnUse"
               x1="399.06931"
               y1="663.08112"
               x2="401.867"
               y2="660.28339">
              <stop
                 offset="0"
                 style="stop-color:#88221A"
                 id="stop15400" />
              <stop
                 offset="1"
                 style="stop-color:#C43827"
                 id="stop15402" />
            </linearGradient>
            <use
               xlink:href="#SVGID_4_"
               overflow="visible"
               id="use2906"
               style="fill:url(#linearGradient4782-6);overflow:visible"
               x="0"
               y="0"
               width="715.55798"
               height="742.133" />
            <clipPath
               id="clipPath15405">
              <use
                 xlink:href="#SVGID_4_"
                 overflow="visible"
                 id="use15407"
                 style="overflow:visible"
                 x="0"
                 y="0"
                 width="715.55798"
                 height="742.133" />
            </clipPath>
            <g
               clip-path="url(#SVGID_6_-3)"
               id="g2911">
              <linearGradient
                 id="linearGradient15410"
                 gradientUnits="userSpaceOnUse"
                 x1="409.9512"
                 y1="668.42767"
                 x2="428.87079"
                 y2="649.50812">
                <stop
                   offset="0"
                   style="stop-color:#88221A"
                   id="stop15412" />
                <stop
                   offset="1"
                   style="stop-color:#C43827"
                   id="stop15414" />
              </linearGradient>
              <polygon
                 points="399.272,657.748 434.029,654.726 439.55,660.187 404.795,663.211 "
                 id="polygon2918"
                 style="fill:url(#linearGradient4784-5)" />
            </g>
          </g>
        </g>
        <g
           transform="matrix(2.1182557,0,0,2.1182557,-413.91185,-788.10833)"
           id="g2920">
          <path
             d="m 442.18,688.479 -0.017,8.997 c -0.005,1.457 -1.192,2.747 -2.661,2.877 l -34.755,3.045 c -1.463,0.129 -2.65,-0.955 -2.646,-2.413 l 0.017,-8.995 8.358,-0.733 -0.006,1.923 c 0,0.767 0.617,1.333 1.382,1.264 l 20.58,-1.802 c 0.764,-0.067 1.39,-0.739 1.392,-1.506 l 0.004,-1.924 8.352,-0.733 z"
             id="path2922"
             inkscape:connector-curvature="0"
             style="fill:#d83c27" />
        </g>
        <g
           transform="matrix(2.1182557,0,0,2.1182557,-413.91185,-788.10833)"
           id="g2924">
          <polygon
             points="442.181,686.54 433.831,687.271 433.778,674.035 442.129,673.303 "
             id="polygon2926"
             style="fill:#e1473b" />
        </g>
        <g
           transform="matrix(2.1182557,0,0,2.1182557,-413.91185,-788.10833)"
           id="g2928">
          <path
             d="m 435.968,655.403 1.105,1.092 4.42,4.37 c -0.482,-0.479 -1.175,-0.743 -1.943,-0.679 l -34.755,3.024 -5.522,-5.463 34.757,-3.022 c 0.765,-0.065 1.458,0.2 1.938,0.678 z"
             id="path2930"
             inkscape:connector-curvature="0"
             style="fill:#c43827" />
        </g>
        <g
           transform="matrix(2.1182557,0,0,2.1182557,-413.91185,-788.10833)"
           id="g2932">
          <polygon
             points="410.479,689.317 402.122,690.048 402.07,676.812 410.428,676.078 "
             id="polygon2934"
             style="fill:#e1473b" />
        </g>
        <g
           transform="matrix(2.1182557,0,0,2.1182557,-413.91185,-788.10833)"
           id="g2936">
          <path
             d="m 404.795,663.211 34.755,-3.024 c 1.467,-0.123 2.652,0.955 2.65,2.418 l -0.027,8.729 -8.352,0.729 0.002,-1.66 c 0.002,-0.767 -0.619,-1.331 -1.381,-1.263 l -20.581,1.789 c -0.762,0.067 -1.387,0.74 -1.39,1.502 l -0.004,1.659 -8.354,0.729 0.023,-8.729 c 0.004,-1.464 1.196,-2.75 2.659,-2.879 z"
             id="path2938"
             inkscape:connector-curvature="0"
             style="fill:#e4574e" />
        </g>
        <g
           transform="matrix(2.1182557,0,0,2.1182557,-413.91185,-788.10833)"
           id="g2940">
          <path
             d="m 433.827,689.212 -0.004,1.924 c -0.002,0.767 -0.628,1.438 -1.392,1.506 l -20.58,1.802 c -0.688,0.062 -1.257,-0.391 -1.363,-1.038 0.1,0.562 0.593,0.949 1.194,0.895 l 20.734,-1.813 c 0.684,-0.061 1.248,-0.666 1.25,-1.352 l 0.005,-1.924 v -0.155 l 0.156,0.155 z"
             id="path2942"
             inkscape:connector-curvature="0"
             style="opacity:0.3;fill:#ffffff" />
        </g>
        <g
           transform="matrix(2.1182557,0,0,2.1182557,-413.91185,-788.10833)"
           id="g2944">
          <path
             d="m 410.314,693.18 0.005,-1.909 0.156,-0.014 -0.006,1.923 c 0,0.767 0.617,1.333 1.382,1.264 l 20.58,-1.802 c 0.764,-0.067 1.39,-0.739 1.392,-1.506 l 0.004,-1.924 0.158,-0.014 -0.007,1.938 c -0.002,0.849 -0.69,1.588 -1.534,1.661 l -20.578,1.803 c -0.855,0.076 -1.553,-0.561 -1.552,-1.42 z"
             id="path2946"
             inkscape:connector-curvature="0"
             style="opacity:0.3;fill:#ffffff" />
        </g>
        <g
           id="g3031"
           transform="matrix(0.14060097,-0.00983174,0,-0.14060097,465.35323,663.92133)">
          <g
             id="g3033"
             transform="scale(0.1,0.1)">
            <g
               id="g3035">
              <g
                 id="g3037"
                 clip-path="url(#clipPath3039-4-4)">
                <path
                   style="fill:#f0424d;fill-opacity:1;fill-rule:nonzero;stroke:none"
                   id="path3043"
                   d="m 987.875,796.656 c -38.934,20.715 -61.172,44.063 -66.094,69.414 -4.746,24.547 6.203,51.848 33.508,83.489 65.251,74.861 101.191,171.031 101.191,270.811 0,227.54 -185.128,412.69 -412.691,412.69 -0.371,0 -1.82,-0.02 -1.82,-0.02 0,0 -1.485,0.02 -1.875,0.02 -227.571,0 -412.672,-185.15 -412.672,-412.69 0,-99.78 35.933,-195.95 101.207,-270.843 27.508,-31.851 38.195,-58.047 33.633,-82.371 -4.735,-25.324 -27.024,-48.996 -66.301,-70.468 -60.223,50.195 -113.477,117.257 -146.328,184.519 -17.817,36.503 -31.531,75.053 -40.778,114.573 -9.5191,40.62 -14.2886,82.54 -14.2886,124.59 0,73.59 14.3986,145.07 42.8556,212.38 27.504,64.94 66.816,123.3 116.93,173.37 50.058,50.1 108.414,89.41 173.375,116.9 67.296,28.46 138.738,42.88 212.367,42.88 0.39,0 1.82,0 1.82,0 0,0 1.504,0 1.875,0 73.629,0 145.082,-14.42 212.387,-42.88 64.941,-27.49 123.293,-66.8 173.374,-116.9 50.07,-50.07 89.42,-108.43 116.91,-173.37 28.46,-67.31 42.89,-138.79 42.89,-212.38 0,-42.05 -4.82,-83.97 -14.31,-124.59 -9.24,-39.52 -22.96,-78.07 -40.8,-114.573 -32.85,-67.289 -86.06,-134.344 -146.365,-184.551"
                   inkscape:connector-curvature="0" />
                <path
                   style="fill:#f0424d;fill-opacity:1;fill-rule:nonzero;stroke:none"
                   id="path3045"
                   d="m 786.578,694.59 c -6.34,3.988 -28,20.101 -49.113,49.351 -20.254,27.95 -44.086,74.317 -42.84,136.411 0.781,37.371 8.273,73.761 22.313,108.117 13.937,34.061 33.925,65.271 59.386,92.731 l 0.156,0.21 c 1.875,2.18 3.731,4.35 5.625,6.5 9.61,11.15 19.54,22.66 27.461,36.13 9.766,16.56 16.875,33.96 21.102,51.76 6.504,27.49 6.887,56.67 1.066,84.35 -5.371,25.45 -16.191,50.11 -31.3,71.37 -14.637,20.6 -33.7,38.57 -55.157,51.95 -22.363,13.97 -48.054,23.32 -74.222,27.03 -8.86,1.27 -17.989,1.92 -27.16,1.92 -0.629,0 -1.333,0 -1.965,0 -0.629,0 -1.282,0 -1.95,0 -9.152,0 -18.3,-0.65 -27.132,-1.92 -26.153,-3.71 -51.84,-13.06 -74.227,-27.03 -21.453,-13.38 -40.555,-31.35 -55.18,-51.95 -15.105,-21.26 -25.875,-45.92 -31.293,-71.37 -5.804,-27.68 -5.453,-56.86 1.098,-84.35 4.211,-17.8 11.32,-35.2 21.066,-51.76 7.961,-13.47 17.876,-24.98 27.489,-36.13 1.89,-2.15 3.73,-4.32 5.64,-6.5 l 0.114,-0.21 c 25.504,-27.46 45.472,-58.67 59.41,-92.731 14.031,-34.356 21.551,-70.746 22.293,-108.117 1.262,-62.094 -22.574,-108.461 -42.805,-136.411 -21.156,-29.25 -42.797,-45.363 -49.144,-49.351 -10.621,2.84 -21.215,6.031 -31.629,9.519 -31.348,10.512 -61.879,23.961 -90.891,40.063 49.875,26.832 81.574,79.215 81.574,136.305 0,37.777 -14.683,74.015 -43.633,107.656 -0.429,0.512 -0.875,0.926 -1.207,1.262 -0.058,0.085 -0.152,0.136 -0.222,0.23 -2.844,3.164 -5.66,6.254 -8.43,9.262 -8.316,9.133 -16.199,17.763 -23.238,27.213 -26.266,35.08 -45.508,76.22 -55.664,118.95 -11.039,46.46 -11.657,95.74 -1.797,142.51 9.074,43.12 27.414,84.94 52.969,120.92 24.722,34.81 56.945,65.15 93.175,87.74 37.957,23.68 81.465,39.51 125.805,45.83 15.016,2.16 30.399,3.21 45.766,3.21 0.648,0 2.156,0 2.156,0 0.633,0 1.297,0 1.945,0 15.371,0 30.797,-1.05 45.793,-3.21 44.356,-6.32 87.84,-22.15 125.801,-45.83 36.23,-22.59 68.465,-52.93 93.191,-87.74 25.539,-35.98 43.879,-77.8 52.989,-120.92 9.824,-46.77 9.191,-96.05 -1.817,-142.51 -10.183,-42.73 -29.402,-83.87 -55.703,-118.95 -7.051,-9.45 -14.902,-18.08 -23.25,-27.213 -2.734,-3.008 -5.539,-6.098 -8.39,-9.262 -0.098,-0.074 -0.164,-0.145 -0.262,-0.23 -0.332,-0.336 -0.801,-0.77 -1.203,-1.329 -29.344,-35.117 -43.621,-70.324 -43.621,-107.589 0,-57.09 31.699,-109.473 81.629,-136.305 -29.024,-16.102 -59.559,-29.551 -90.907,-40.063 -10.41,-3.488 -21.047,-6.679 -31.66,-9.519"
                   inkscape:connector-curvature="0" />
                <path
                   style="fill:#f0424d;fill-opacity:1;fill-rule:nonzero;stroke:none"
                   id="path3047"
                   d="m 641.93,1107.47 c -59.375,0 -107.707,48.32 -107.707,107.71 0,59.4 48.332,107.72 107.707,107.72 59.375,0 107.683,-48.32 107.683,-107.72 0,-59.39 -48.308,-107.71 -107.683,-107.71"
                   inkscape:connector-curvature="0" />
                <path
                   style="fill:#333c46;fill-opacity:1;fill-rule:nonzero;stroke:none"
                   id="path3049"
                   d="m 279.688,200.191 c 0,-70.882 -6.348,-90.48 -23.422,-107.5816 -10.118,-10.1211 -25.95,-17.0703 -55.704,-17.0703 l -104.4018,0 c -33.5391,0 -53.7657,5.6992 -67.7071,19.6015 C 6.32812,117.301 0,143.879 0,246.371 c 0,102.508 6.32812,129.098 28.4531,151.231 13.9414,13.918 34.168,19.597 67.7071,19.597 l 103.7888,0 c 30.981,0 44.899,-6.301 55.664,-17.078 16.442,-16.441 22.789,-39.223 22.789,-103.109 l -63.898,0 c -1.281,44.289 -3.805,51.867 -7.613,55.668 -3.805,3.789 -8.856,5.691 -23.407,5.691 l -79.097,0 c -19.6058,0 -24.6682,-1.902 -29.0901,-6.332 -6.3281,-6.309 -9.5,-18.34 -9.5,-105.668 0,-87.301 3.1719,-99.332 9.5,-105.66 4.4219,-4.43 9.4843,-6.332 29.0901,-6.332 l 79.715,0 c 13.933,0 20.285,1.262 24.683,5.691 4.438,4.442 6.977,17.102 6.977,60.121 l 63.926,0"
                   inkscape:connector-curvature="0" />
                <path
                   style="fill:#333c46;fill-opacity:1;fill-rule:nonzero;stroke:none"
                   id="path3051"
                   d="m 391.051,277.391 155.648,0 c 0,57.57 -3.808,70.23 -9.469,75.929 -3.824,3.789 -9.5,6.309 -29.101,6.309 l -78.488,0 c -19.606,0 -24.668,-1.899 -29.739,-6.949 -5.699,-5.711 -8.203,-17.071 -8.851,-75.289 z m 0,-52.532 c 0.648,-67.058 4.418,-80.347 9.5,-85.41 5.07,-5.07 9.484,-6.34 29.09,-6.34 l 88.586,0 c 14.566,0 19.003,2.532 22.808,6.34 4.399,4.43 5.664,12.02 6.961,42.391 l 63.883,0 C 610.621,128.699 605.551,109.711 588.457,92.6094 577.711,81.8516 563.16,75.5391 532.793,75.5391 l -110.727,0 c -33.543,0 -53.789,5.6992 -67.711,19.6015 -22.164,22.1604 -28.453,48.7384 -28.453,151.2304 0,102.508 6.289,129.098 28.453,151.231 13.922,13.918 34.168,19.597 67.711,19.597 l 93.637,0 c 33.555,0 55.051,-6.301 67.727,-18.961 22.121,-22.148 28.449,-48.738 28.449,-148.707 l 0,-17.082 c 0,-5.039 -1.891,-7.59 -7.606,-7.59 l -213.222,0"
                   inkscape:connector-curvature="0" />
                <path
                   style="fill:#333c46;fill-opacity:1;fill-rule:nonzero;stroke:none"
                   id="path3053"
                   d="m 869.449,141.969 c -5.683,-5.688 -13.945,-8.219 -34.785,-8.219 l -49.387,0 c -20.254,0 -37.851,5.711 -62.011,18 -1.473,0.75 -2.879,1.449 -4.422,2.23 l 0,186.051 C 744.164,352.68 761.871,359 782.77,359 l 51.894,0 c 20.84,0 29.102,-2.531 34.785,-8.219 9.481,-9.48 12.02,-27.82 12.02,-104.41 0,-76.582 -2.539,-94.902 -12.02,-104.402 z m -19.015,275.902 -46.153,0 c -28.496,0 -42.41,-6.351 -85.437,-41.781 l 0,41.109 -65.797,0 0,-417.199 c 23.699,0 65.797,0 65.797,0 l 0,116.02 c 43.027,-34.7817 56.941,-41.1098 85.437,-41.1098 l 46.153,0 c 36.738,0 55.078,6.3281 69.628,20.8593 18.333,18.3595 27.208,44.3005 27.208,150.6015 0,106.309 -8.875,132.27 -27.208,150.598 -14.55,14.551 -32.89,20.902 -69.628,20.902"
                   inkscape:connector-curvature="0" />
                <path
                   style="fill:#333c46;fill-opacity:1;fill-rule:nonzero;stroke:none"
                   id="path3055"
                   d="m 1263.67,398.238 c -12.66,12.66 -29.1,19.633 -58.85,19.633 l -53.77,0 c -28.48,0 -42.39,-6.351 -85.44,-41.781 l 0,130.23 c -20.42,11.211 -41.74,19.43 -65.33,24.489 -0.17,-0.008 -0.296,-0.11 -0.471,-0.168 l 0,-455.1019 65.801,0 0,264.4919 c 4.82,2.41 9.32,4.508 13.66,6.457 18.47,8.293 33.35,12.512 50.25,12.512 l 44.3,0 c 22.14,0 28.47,-2.531 35.43,-9.5 6.33,-6.32 8.85,-16.43 8.85,-32.891 l 0,-241.0699 65.84,0 0,245.4999 c 0,47.461 -6.98,63.91 -20.27,77.199"
                   inkscape:connector-curvature="0" />
              </g>
            </g>
          </g>
        </g>
      </g>
    </g>
  </g>
</svg>
